{"glyphs":{"0":{"ha":847,"x_min":44,"x_max":803,"o":"m 424 -14 q 140 114 235 -14 q 44 514 44 242 q 140 914 44 785 q 424 1042 235 1042 q 707 914 612 1042 q 803 514 803 785 q 707 114 803 242 q 424 -14 612 -14 m 424 211 q 488 239 464 211 q 523 333 512 267 q 535 514 535 399 q 523 695 535 629 q 488 789 512 761 q 424 817 464 817 q 359 789 383 817 q 324 695 335 761 q 313 514 313 629 q 324 333 313 399 q 359 239 335 267 q 424 211 383 211 z "},"1":{"ha":503,"x_min":6,"x_max":435,"o":"m 268 1032 l 435 1032 l 435 0 l 163 0 l 163 716 l 6 619 l 6 871 l 268 1032 z "},"2":{"ha":682,"x_min":8,"x_max":656,"o":"m 656 238 l 656 0 l 22 0 l 22 153 l 244 469 q 322 602 298 546 q 346 704 346 658 q 310 786 346 759 q 196 814 274 814 q 98 806 147 814 q 8 781 49 797 l 8 1007 q 117 1032 51 1022 q 239 1042 182 1042 q 518 966 421 1042 q 615 728 615 891 q 588 572 615 651 q 494 403 560 492 l 374 238 l 656 238 z "},"3":{"ha":683,"x_min":14,"x_max":658,"o":"m 467 530 q 610 447 562 509 q 658 288 658 384 q 610 124 658 192 q 468 21 561 56 q 244 -14 375 -14 q 14 15 124 -14 l 14 226 q 126 206 64 213 q 238 199 188 199 q 361 225 323 199 q 399 307 399 251 q 358 389 399 363 q 226 415 318 415 l 99 415 l 99 633 l 219 633 q 334 659 299 633 q 369 733 369 684 q 335 806 369 783 q 224 829 301 829 q 120 820 174 829 q 24 796 66 811 l 24 1007 q 136 1032 69 1022 q 263 1042 202 1042 q 536 970 442 1042 q 629 765 629 899 q 586 614 629 676 q 467 530 544 552 z "},"4":{"ha":817,"x_min":18,"x_max":801,"o":"m 801 407 l 801 199 l 690 199 l 690 0 l 450 0 l 450 199 l 18 199 l 18 351 l 318 1028 l 575 1028 l 308 407 l 450 407 l 478 681 l 690 681 l 690 407 l 801 407 z "},"5":{"ha":694,"x_min":35,"x_max":675,"o":"m 324 635 q 524 583 447 621 q 638 479 601 544 q 675 317 675 413 q 569 69 675 153 q 265 -14 463 -14 q 35 18 148 -14 l 35 229 q 147 207 85 215 q 258 199 209 199 q 378 225 341 199 q 415 306 415 251 q 394 369 415 345 q 313 408 372 393 q 142 431 254 423 l 60 436 l 92 1028 l 639 1028 l 639 804 l 334 804 l 324 635 z "},"6":{"ha":807,"x_min":50,"x_max":782,"o":"m 481 633 q 632 600 563 633 q 741 497 700 567 q 782 322 782 426 q 738 142 782 218 q 615 26 694 66 q 432 -14 535 -14 q 151 106 252 -14 q 50 488 50 226 q 180 905 50 767 q 544 1042 310 1042 q 731 1017 663 1042 l 731 800 q 645 818 686 813 q 553 824 604 824 q 382 767 440 824 q 317 587 324 710 q 393 622 350 610 q 481 633 435 633 m 435 192 q 508 222 479 192 q 536 313 536 252 q 506 401 536 372 q 425 431 476 431 q 317 397 365 431 q 335 271 320 316 q 374 209 349 226 q 435 192 399 192 z "},"7":{"ha":647,"x_min":7,"x_max":608,"o":"m 7 1028 l 608 1028 l 608 875 l 340 0 l 58 0 l 319 790 l 7 790 l 7 1028 z "},"8":{"ha":847,"x_min":38,"x_max":808,"o":"m 652 547 q 773 436 738 498 q 808 286 808 374 q 763 129 808 197 q 630 24 717 61 q 425 -14 543 -14 q 213 21 300 -14 q 82 119 126 56 q 38 263 38 181 q 78 396 38 336 q 198 497 118 456 q 92 608 124 545 q 60 750 60 670 q 104 904 60 838 q 233 1006 148 970 q 435 1042 317 1042 q 620 1009 541 1042 q 742 917 699 977 q 785 776 785 858 q 652 547 785 633 m 438 849 q 349 824 381 849 q 317 758 317 799 q 330 708 317 728 q 377 668 342 688 q 483 622 413 648 q 537 683 519 651 q 554 756 554 716 q 524 825 554 801 q 438 849 493 849 m 425 179 q 523 204 491 179 q 556 274 556 228 q 540 329 556 306 q 485 372 524 351 q 371 417 445 392 l 367 418 q 310 358 329 394 q 290 286 290 322 q 325 207 290 235 q 425 179 359 179 z "},"9":{"ha":807,"x_min":25,"x_max":757,"o":"m 375 1042 q 656 922 555 1042 q 757 540 757 801 q 627 123 757 260 q 263 -14 497 -14 q 76 11 144 -14 l 76 228 q 162 210 121 215 q 254 204 203 204 q 425 261 367 204 q 490 441 483 317 q 414 406 457 418 q 326 394 372 394 q 175 428 244 394 q 66 531 107 461 q 25 706 25 601 q 69 886 25 810 q 192 1002 113 962 q 375 1042 272 1042 m 271 715 q 301 627 271 656 q 382 597 331 597 q 490 631 442 597 q 472 757 487 712 q 433 819 458 801 q 372 836 408 836 q 299 806 328 836 q 271 715 271 776 z "},"\u0000":{"ha":0,"x_min":0,"x_max":0,"o":""},"\r":{"ha":306,"x_min":0,"x_max":0,"o":""}," ":{"ha":306,"x_min":0,"x_max":0,"o":""},"A":{"ha":903,"x_min":-6,"x_max":908,"o":"m 642 0 l 588 239 l 312 239 l 258 0 l -6 0 l 247 1028 l 656 1028 l 908 0 l 642 0 m 363 468 l 535 468 l 449 851 l 363 468 z "},"Á":{"ha":903,"x_min":-6,"x_max":908,"o":"m 642 0 l 588 239 l 312 239 l 258 0 l -6 0 l 247 1028 l 656 1028 l 908 0 l 642 0 m 363 468 l 535 468 l 449 851 l 363 468 m 332 1101 l 444 1321 l 722 1321 l 571 1101 l 332 1101 z "},"Ă":{"ha":903,"x_min":-6,"x_max":908,"o":"m 642 0 l 588 239 l 312 239 l 258 0 l -6 0 l 247 1028 l 656 1028 l 908 0 l 642 0 m 363 468 l 535 468 l 449 851 l 363 468 m 451 1101 q 274 1158 340 1101 q 197 1321 208 1215 l 358 1321 q 387 1252 365 1273 q 451 1231 410 1231 q 516 1252 493 1231 q 544 1321 538 1273 l 706 1321 q 629 1158 695 1215 q 451 1101 563 1101 z "},"Ắ":{"ha":903,"x_min":-6,"x_max":908,"o":"m 642 0 l 588 239 l 312 239 l 258 0 l -6 0 l 247 1028 l 656 1028 l 908 0 l 642 0 m 363 468 l 535 468 l 449 851 l 363 468 m 389 1269 l 449 1433 l 613 1433 l 514 1269 l 389 1269 m 451 1101 q 272 1152 338 1101 q 194 1290 206 1202 l 340 1290 q 374 1232 349 1251 q 451 1213 399 1213 q 529 1231 503 1213 q 569 1290 555 1250 l 708 1290 q 631 1152 697 1202 q 451 1101 565 1101 z "},"Ặ":{"ha":903,"x_min":-6,"x_max":908,"o":"m 642 0 l 588 239 l 312 239 l 258 0 l -6 0 l 247 1028 l 656 1028 l 908 0 l 642 0 m 363 468 l 535 468 l 449 851 l 363 468 m 451 -322 q 331 -291 374 -322 q 288 -197 288 -260 q 331 -103 288 -135 q 451 -72 374 -72 q 572 -103 529 -72 q 615 -197 615 -135 q 572 -291 615 -260 q 451 -322 529 -322 m 451 1101 q 274 1158 340 1101 q 197 1321 208 1215 l 358 1321 q 387 1252 365 1273 q 451 1231 410 1231 q 516 1252 493 1231 q 544 1321 538 1273 l 706 1321 q 629 1158 695 1215 q 451 1101 563 1101 z "},"Ằ":{"ha":903,"x_min":-6,"x_max":908,"o":"m 642 0 l 588 239 l 312 239 l 258 0 l -6 0 l 247 1028 l 656 1028 l 908 0 l 642 0 m 363 468 l 535 468 l 449 851 l 363 468 m 389 1269 l 290 1433 l 454 1433 l 514 1269 l 389 1269 m 451 1101 q 272 1152 338 1101 q 194 1290 206 1202 l 333 1290 q 374 1231 348 1250 q 451 1213 399 1213 q 529 1232 504 1213 q 563 1290 553 1251 l 708 1290 q 631 1152 697 1202 q 451 1101 565 1101 z "},"Ẳ":{"ha":903,"x_min":-6,"x_max":908,"o":"m 642 0 l 588 239 l 312 239 l 258 0 l -6 0 l 247 1028 l 656 1028 l 908 0 l 642 0 m 363 468 l 535 468 l 449 851 l 363 468 m 386 1269 q 399 1307 388 1292 q 425 1330 411 1322 q 461 1349 440 1339 q 483 1359 476 1356 q 489 1368 489 1363 q 473 1383 489 1378 q 424 1388 458 1388 q 301 1376 359 1388 l 301 1461 q 370 1471 328 1467 q 447 1475 413 1475 q 588 1455 544 1475 q 632 1388 632 1434 q 617 1352 632 1366 q 574 1324 602 1339 q 534 1298 548 1310 q 517 1269 520 1287 l 386 1269 m 451 1101 q 272 1152 338 1101 q 194 1290 206 1202 l 340 1290 q 374 1232 349 1251 q 451 1213 399 1213 q 529 1231 503 1213 q 569 1290 555 1250 l 708 1290 q 631 1152 697 1202 q 451 1101 565 1101 z "},"Ẵ":{"ha":903,"x_min":-6,"x_max":908,"o":"m 642 0 l 588 239 l 312 239 l 258 0 l -6 0 l 247 1028 l 656 1028 l 908 0 l 642 0 m 363 468 l 535 468 l 449 851 l 363 468 m 554 1319 q 501 1325 526 1319 q 438 1340 476 1330 q 388 1354 409 1349 q 346 1358 366 1358 q 270 1348 303 1358 q 194 1313 237 1338 l 194 1431 q 265 1466 231 1457 q 349 1475 298 1475 q 404 1469 377 1475 q 465 1453 431 1463 q 518 1439 498 1444 q 557 1435 538 1435 q 633 1445 600 1435 q 708 1481 666 1455 l 708 1363 q 639 1328 672 1336 q 554 1319 606 1319 m 451 1101 q 272 1152 338 1101 q 194 1290 206 1202 l 340 1290 q 374 1232 349 1251 q 451 1213 399 1213 q 529 1232 504 1213 q 563 1290 553 1251 l 708 1290 q 631 1152 697 1202 q 451 1101 565 1101 z "},"Â":{"ha":903,"x_min":-6,"x_max":908,"o":"m 642 0 l 588 239 l 312 239 l 258 0 l -6 0 l 247 1028 l 656 1028 l 908 0 l 642 0 m 363 468 l 535 468 l 449 851 l 363 468 m 697 1101 l 519 1101 l 451 1225 l 383 1101 l 206 1101 l 339 1321 l 564 1321 l 697 1101 z "},"Ấ":{"ha":903,"x_min":-6,"x_max":908,"o":"m 642 0 l 588 239 l 312 239 l 258 0 l -6 0 l 247 1028 l 656 1028 l 908 0 l 642 0 m 363 468 l 535 468 l 449 851 l 363 468 m 681 1433 l 844 1433 l 746 1269 l 621 1269 l 681 1433 m 339 1290 l 564 1290 l 697 1101 l 519 1101 l 451 1208 l 383 1101 l 206 1101 l 339 1290 z "},"Ậ":{"ha":903,"x_min":-6,"x_max":908,"o":"m 642 0 l 588 239 l 312 239 l 258 0 l -6 0 l 247 1028 l 656 1028 l 908 0 l 642 0 m 363 468 l 535 468 l 449 851 l 363 468 m 451 -322 q 331 -291 374 -322 q 288 -197 288 -260 q 331 -103 288 -135 q 451 -72 374 -72 q 572 -103 529 -72 q 615 -197 615 -135 q 572 -291 615 -260 q 451 -322 529 -322 m 697 1101 l 519 1101 l 451 1225 l 383 1101 l 206 1101 l 339 1321 l 564 1321 l 697 1101 z "},"Ầ":{"ha":903,"x_min":-6,"x_max":908,"o":"m 642 0 l 588 239 l 312 239 l 258 0 l -6 0 l 247 1028 l 656 1028 l 908 0 l 642 0 m 363 468 l 535 468 l 449 851 l 363 468 m 774 1269 l 649 1269 l 550 1433 l 714 1433 l 774 1269 m 339 1290 l 564 1290 l 697 1101 l 519 1101 l 451 1208 l 383 1101 l 206 1101 l 339 1290 z "},"Ẩ":{"ha":903,"x_min":-6,"x_max":908,"o":"m 642 0 l 588 239 l 312 239 l 258 0 l -6 0 l 247 1028 l 656 1028 l 908 0 l 642 0 m 363 468 l 535 468 l 449 851 l 363 468 m 682 1475 q 823 1455 778 1475 q 867 1388 867 1434 q 852 1352 867 1366 q 808 1324 837 1339 q 769 1298 783 1310 q 751 1269 755 1287 l 621 1269 q 634 1307 622 1292 q 660 1330 646 1322 q 696 1349 674 1339 q 717 1359 711 1356 q 724 1368 724 1363 q 708 1383 724 1378 q 658 1388 692 1388 q 536 1376 594 1388 l 536 1461 q 605 1471 563 1467 q 682 1475 648 1475 m 339 1290 l 564 1290 l 697 1101 l 519 1101 l 451 1208 l 383 1101 l 206 1101 l 339 1290 z "},"Ẫ":{"ha":903,"x_min":-6,"x_max":908,"o":"m 642 0 l 588 239 l 312 239 l 258 0 l -6 0 l 247 1028 l 656 1028 l 908 0 l 642 0 m 363 468 l 535 468 l 449 851 l 363 468 m 553 1435 q 625 1445 594 1435 q 697 1481 657 1455 l 697 1363 q 631 1328 663 1336 q 550 1319 599 1319 q 498 1325 523 1319 q 438 1341 472 1331 q 389 1354 409 1349 q 350 1358 369 1358 q 277 1348 309 1358 q 206 1313 246 1338 l 206 1431 q 273 1466 240 1457 q 353 1475 305 1475 q 406 1469 381 1475 q 465 1453 432 1463 q 515 1439 497 1443 q 553 1435 534 1435 m 339 1290 l 564 1290 l 697 1101 l 519 1101 l 451 1208 l 383 1101 l 206 1101 l 339 1290 z "},"Ȁ":{"ha":903,"x_min":-6,"x_max":908,"o":"m 642 0 l 588 239 l 312 239 l 258 0 l -6 0 l 247 1028 l 656 1028 l 908 0 l 642 0 m 363 468 l 535 468 l 449 851 l 363 468 m 199 1101 l 104 1321 l 321 1321 l 404 1101 l 199 1101 m 499 1101 l 404 1321 l 621 1321 l 704 1101 l 499 1101 z "},"Ä":{"ha":903,"x_min":-6,"x_max":908,"o":"m 642 0 l 588 239 l 312 239 l 258 0 l -6 0 l 247 1028 l 656 1028 l 908 0 l 642 0 m 363 468 l 535 468 l 449 851 l 363 468 m 278 1090 q 171 1123 209 1090 q 133 1215 133 1155 q 171 1308 133 1276 q 278 1340 209 1340 q 384 1308 347 1340 q 422 1215 422 1276 q 384 1123 422 1155 q 278 1090 347 1090 m 625 1090 q 518 1123 556 1090 q 481 1215 481 1155 q 518 1308 481 1276 q 625 1340 556 1340 q 732 1308 694 1340 q 769 1215 769 1276 q 732 1123 769 1155 q 625 1090 694 1090 z "},"Ạ":{"ha":903,"x_min":-6,"x_max":908,"o":"m 642 0 l 588 239 l 312 239 l 258 0 l -6 0 l 247 1028 l 656 1028 l 908 0 l 642 0 m 363 468 l 535 468 l 449 851 l 363 468 m 451 -322 q 331 -291 374 -322 q 288 -197 288 -260 q 331 -103 288 -135 q 451 -72 374 -72 q 572 -103 529 -72 q 615 -197 615 -135 q 572 -291 615 -260 q 451 -322 529 -322 z "},"À":{"ha":903,"x_min":-6,"x_max":908,"o":"m 642 0 l 588 239 l 312 239 l 258 0 l -6 0 l 247 1028 l 656 1028 l 908 0 l 642 0 m 363 468 l 535 468 l 449 851 l 363 468 m 332 1101 l 181 1321 l 458 1321 l 571 1101 l 332 1101 z "},"Ả":{"ha":903,"x_min":-6,"x_max":908,"o":"m 642 0 l 588 239 l 312 239 l 258 0 l -6 0 l 247 1028 l 656 1028 l 908 0 l 642 0 m 363 468 l 535 468 l 449 851 l 363 468 m 386 1101 q 409 1158 388 1138 q 462 1194 429 1178 q 483 1206 476 1201 q 489 1215 489 1210 q 473 1233 489 1228 q 424 1239 457 1239 q 361 1235 394 1239 q 301 1225 328 1231 l 301 1325 q 370 1336 327 1332 q 447 1340 413 1340 q 588 1316 544 1340 q 632 1239 632 1292 q 618 1198 632 1213 q 574 1164 603 1183 q 534 1135 548 1149 q 517 1101 520 1122 l 386 1101 z "},"Ȃ":{"ha":903,"x_min":-6,"x_max":908,"o":"m 642 0 l 588 239 l 312 239 l 258 0 l -6 0 l 247 1028 l 656 1028 l 908 0 l 642 0 m 363 468 l 535 468 l 449 851 l 363 468 m 197 1101 q 274 1264 208 1208 q 451 1321 340 1321 q 629 1264 563 1321 q 706 1101 695 1208 l 544 1101 q 516 1170 538 1149 q 451 1192 493 1192 q 387 1170 410 1192 q 358 1101 365 1149 l 197 1101 z "},"Ā":{"ha":903,"x_min":-6,"x_max":908,"o":"m 642 0 l 588 239 l 312 239 l 258 0 l -6 0 l 247 1028 l 656 1028 l 908 0 l 642 0 m 363 468 l 535 468 l 449 851 l 363 468 m 190 1126 l 190 1297 l 713 1297 l 713 1126 l 190 1126 z "},"Ą":{"ha":903,"x_min":-6,"x_max":917,"o":"m 826 -212 q 917 -194 869 -212 l 917 -299 q 790 -319 856 -319 q 638 -279 689 -319 q 588 -165 588 -238 q 613 -75 588 -115 q 697 0 638 -35 l 642 0 l 588 239 l 312 239 l 258 0 l -6 0 l 247 1028 l 656 1028 l 908 0 q 802 -48 840 -24 q 751 -98 765 -73 q 738 -150 738 -122 q 826 -212 738 -212 m 363 468 l 535 468 l 449 851 l 363 468 z "},"Å":{"ha":903,"x_min":-6,"x_max":908,"o":"m 642 0 l 588 239 l 312 239 l 258 0 l -6 0 l 247 1028 l 656 1028 l 908 0 l 642 0 m 363 468 l 535 468 l 449 851 l 363 468 m 451 1090 q 370 1110 406 1090 q 314 1165 334 1130 q 293 1243 293 1199 q 314 1322 293 1287 q 370 1376 334 1356 q 451 1396 406 1396 q 533 1376 497 1396 q 589 1322 569 1356 q 610 1243 610 1287 q 589 1165 610 1199 q 533 1110 569 1130 q 451 1090 497 1090 m 451 1186 q 491 1202 476 1186 q 506 1243 506 1217 q 491 1284 506 1269 q 451 1300 476 1300 q 412 1284 427 1300 q 397 1243 397 1269 q 412 1202 397 1217 q 451 1186 427 1186 z "},"Ǻ":{"ha":903,"x_min":-6,"x_max":908,"o":"m 642 0 l 588 239 l 312 239 l 258 0 l -6 0 l 247 1028 l 656 1028 l 908 0 l 642 0 m 363 468 l 535 468 l 449 851 l 363 468 m 593 1315 q 610 1243 610 1283 q 589 1165 610 1199 q 533 1110 569 1130 q 451 1090 497 1090 q 370 1110 406 1090 q 314 1165 334 1130 q 293 1243 293 1199 q 314 1322 293 1287 q 370 1376 334 1356 q 451 1396 406 1396 q 466 1395 461 1396 l 533 1483 l 739 1483 l 593 1315 m 451 1186 q 491 1202 476 1186 q 506 1243 506 1217 q 491 1284 506 1269 q 451 1300 476 1300 q 412 1284 427 1300 q 397 1243 397 1269 q 412 1202 397 1217 q 451 1186 427 1186 z "},"Ã":{"ha":903,"x_min":-6,"x_max":908,"o":"m 642 0 l 588 239 l 312 239 l 258 0 l -6 0 l 247 1028 l 656 1028 l 908 0 l 642 0 m 363 468 l 535 468 l 449 851 l 363 468 m 569 1101 q 507 1109 536 1101 q 438 1131 478 1117 q 380 1150 404 1144 q 331 1157 356 1157 q 256 1144 288 1157 q 190 1104 224 1131 l 190 1267 q 252 1308 219 1295 q 333 1321 286 1321 q 395 1313 367 1321 q 465 1290 423 1306 q 524 1270 501 1277 q 572 1264 547 1264 q 647 1277 615 1264 q 713 1317 678 1290 l 713 1154 q 651 1114 685 1126 q 569 1101 617 1101 z "},"Æ":{"ha":1279,"x_min":-6,"x_max":1239,"o":"m 864 232 l 1239 232 l 1239 0 l 618 0 l 601 238 l 317 238 l 263 0 l -6 0 l 247 1028 l 1232 1028 l 1232 796 l 815 796 l 828 640 l 1160 640 l 1160 408 l 849 408 l 864 232 m 369 469 l 584 469 l 560 796 l 443 796 l 369 469 z "},"Ǽ":{"ha":1279,"x_min":-6,"x_max":1239,"o":"m 864 232 l 1239 232 l 1239 0 l 618 0 l 601 238 l 317 238 l 263 0 l -6 0 l 247 1028 l 1232 1028 l 1232 796 l 815 796 l 828 640 l 1160 640 l 1160 408 l 849 408 l 864 232 m 369 469 l 584 469 l 560 796 l 443 796 l 369 469 m 543 1101 l 656 1321 l 933 1321 l 782 1101 l 543 1101 z "},"B":{"ha":863,"x_min":61,"x_max":844,"o":"m 665 530 q 796 450 747 510 q 844 290 844 391 q 725 62 844 138 q 347 -14 605 -14 q 205 -7 285 -14 q 61 10 124 -1 l 61 1007 q 219 1032 133 1023 q 382 1042 305 1042 q 626 1011 531 1042 q 768 917 722 981 q 815 751 815 853 q 774 612 815 672 q 665 530 733 552 m 428 833 q 326 825 378 833 l 326 632 l 419 632 q 503 642 472 632 q 547 674 533 652 q 560 732 560 696 q 530 810 560 786 q 428 833 499 833 m 425 194 q 521 206 485 194 q 573 242 557 217 q 589 307 589 266 q 553 390 589 364 q 438 415 517 415 l 326 415 l 326 199 q 425 194 387 194 z "},"C":{"ha":765,"x_min":38,"x_max":742,"o":"m 535 -14 q 165 113 292 -14 q 38 511 38 239 q 171 909 38 776 q 550 1042 304 1042 q 742 1021 654 1042 l 742 793 q 575 813 649 813 q 433 784 488 813 q 350 689 378 755 q 322 514 322 624 q 349 335 322 400 q 431 243 376 270 q 575 215 485 215 q 742 247 639 215 l 742 19 q 646 -5 703 4 q 535 -14 590 -14 z "},"Ć":{"ha":765,"x_min":38,"x_max":749,"o":"m 535 -14 q 165 113 292 -14 q 38 511 38 239 q 171 909 38 776 q 550 1042 304 1042 q 742 1021 654 1042 l 742 793 q 575 813 649 813 q 433 784 488 813 q 350 689 378 755 q 322 514 322 624 q 349 335 322 400 q 431 243 376 270 q 575 215 485 215 q 742 247 639 215 l 742 19 q 646 -5 703 4 q 535 -14 590 -14 m 358 1101 l 471 1321 l 749 1321 l 597 1101 l 358 1101 z "},"Č":{"ha":765,"x_min":38,"x_max":742,"o":"m 535 -14 q 165 113 292 -14 q 38 511 38 239 q 171 909 38 776 q 550 1042 304 1042 q 742 1021 654 1042 l 742 793 q 575 813 649 813 q 433 784 488 813 q 350 689 378 755 q 322 514 322 624 q 349 335 322 400 q 431 243 376 270 q 575 215 485 215 q 742 247 639 215 l 742 19 q 646 -5 703 4 q 535 -14 590 -14 m 546 1321 l 724 1321 l 590 1101 l 365 1101 l 232 1321 l 410 1321 l 478 1197 l 546 1321 z "},"Ç":{"ha":765,"x_min":38,"x_max":742,"o":"m 575 813 q 433 784 488 813 q 350 689 378 755 q 322 514 322 624 q 349 335 322 400 q 431 243 376 270 q 575 215 485 215 q 742 247 639 215 l 742 19 q 646 -5 703 4 q 535 -14 590 -14 l 524 -14 l 524 -55 q 616 -98 584 -65 q 647 -182 647 -130 q 442 -319 647 -319 q 310 -301 369 -319 l 310 -197 q 368 -211 335 -206 q 426 -215 400 -215 q 486 -205 467 -215 q 504 -171 504 -195 q 424 -124 504 -124 l 394 -124 l 394 -2 q 128 156 219 31 q 38 511 38 281 q 171 909 38 776 q 550 1042 304 1042 q 742 1021 654 1042 l 742 793 q 575 813 649 813 z "},"Ḉ":{"ha":765,"x_min":38,"x_max":749,"o":"m 749 1321 l 597 1101 l 358 1101 l 471 1321 l 749 1321 m 38 511 q 171 909 38 776 q 550 1042 304 1042 q 742 1021 654 1042 l 742 793 q 575 813 649 813 q 433 784 488 813 q 350 689 378 755 q 322 514 322 624 q 349 335 322 400 q 431 243 376 270 q 575 215 485 215 q 742 247 639 215 l 742 19 q 646 -5 703 4 q 535 -14 590 -14 l 524 -14 l 524 -55 q 616 -98 584 -65 q 647 -182 647 -130 q 442 -319 647 -319 q 310 -301 369 -319 l 310 -197 q 368 -211 335 -206 q 426 -215 400 -215 q 486 -205 467 -215 q 504 -171 504 -195 q 424 -124 504 -124 l 394 -124 l 394 -2 q 128 156 219 31 q 38 511 38 281 z "},"Ĉ":{"ha":765,"x_min":38,"x_max":742,"o":"m 535 -14 q 165 113 292 -14 q 38 511 38 239 q 171 909 38 776 q 550 1042 304 1042 q 742 1021 654 1042 l 742 793 q 575 813 649 813 q 433 784 488 813 q 350 689 378 755 q 322 514 322 624 q 349 335 322 400 q 431 243 376 270 q 575 215 485 215 q 742 247 639 215 l 742 19 q 646 -5 703 4 q 535 -14 590 -14 m 724 1101 l 546 1101 l 478 1225 l 410 1101 l 232 1101 l 365 1321 l 590 1321 l 724 1101 z "},"Ċ":{"ha":765,"x_min":38,"x_max":742,"o":"m 535 -14 q 165 113 292 -14 q 38 511 38 239 q 171 909 38 776 q 550 1042 304 1042 q 742 1021 654 1042 l 742 793 q 575 813 649 813 q 433 784 488 813 q 350 689 378 755 q 322 514 322 624 q 349 335 322 400 q 431 243 376 270 q 575 215 485 215 q 742 247 639 215 l 742 19 q 646 -5 703 4 q 535 -14 590 -14 m 478 1090 q 357 1122 400 1090 q 314 1215 314 1153 q 357 1309 314 1278 q 478 1340 400 1340 q 599 1309 556 1340 q 642 1215 642 1278 q 599 1122 642 1153 q 478 1090 556 1090 z "},"D":{"ha":925,"x_min":61,"x_max":888,"o":"m 328 -14 q 61 1 192 -14 l 61 1007 q 365 1042 219 1042 q 758 913 629 1042 q 888 514 888 785 q 826 215 888 331 q 641 42 765 98 q 328 -14 517 -14 m 403 213 q 515 240 470 213 q 583 334 559 268 q 607 514 607 400 q 582 694 607 628 q 511 789 557 761 q 399 817 465 817 q 364 815 383 817 q 333 810 345 813 l 333 214 q 403 213 364 213 z "},"Ǳ":{"ha":1669,"x_min":61,"x_max":1647,"o":"m 328 -14 q 61 1 192 -14 l 61 1007 q 365 1042 219 1042 q 758 913 629 1042 q 888 514 888 785 q 826 215 888 331 q 641 42 765 98 q 328 -14 517 -14 m 403 213 q 515 240 470 213 q 583 334 559 268 q 607 514 607 400 q 582 694 607 628 q 511 789 557 761 q 399 817 465 817 q 364 815 383 817 q 333 810 345 813 l 333 214 q 403 213 364 213 m 1272 240 l 1647 240 l 1647 0 l 919 0 l 919 153 l 1288 788 l 926 788 l 926 1028 l 1640 1028 l 1640 875 l 1272 240 z "},"Ǆ":{"ha":1669,"x_min":61,"x_max":1647,"o":"m 328 -14 q 61 1 192 -14 l 61 1007 q 365 1042 219 1042 q 758 913 629 1042 q 888 514 888 785 q 826 215 888 331 q 641 42 765 98 q 328 -14 517 -14 m 403 213 q 515 240 470 213 q 583 334 559 268 q 607 514 607 400 q 582 694 607 628 q 511 789 557 761 q 399 817 465 817 q 364 815 383 817 q 333 810 345 813 l 333 214 q 403 213 364 213 m 1272 240 l 1647 240 l 1647 0 l 919 0 l 919 153 l 1288 788 l 926 788 l 926 1028 l 1640 1028 l 1640 875 l 1272 240 m 1353 1321 l 1531 1321 l 1397 1101 l 1172 1101 l 1039 1321 l 1217 1321 l 1285 1197 l 1353 1321 z "},"Ð":{"ha":925,"x_min":0,"x_max":888,"o":"m 365 1042 q 758 913 629 1042 q 888 514 888 785 q 826 215 888 331 q 641 42 765 98 q 328 -14 517 -14 q 61 1 192 -14 l 61 439 l 0 439 l 0 619 l 61 619 l 61 1007 q 365 1042 219 1042 m 403 213 q 515 240 470 213 q 583 334 559 268 q 607 514 607 400 q 582 694 607 628 q 511 789 557 761 q 399 817 465 817 q 364 815 383 817 q 333 810 345 813 l 333 619 l 469 619 l 469 439 l 333 439 l 333 214 q 403 213 364 213 z "},"Ď":{"ha":925,"x_min":61,"x_max":888,"o":"m 328 -14 q 61 1 192 -14 l 61 1007 q 365 1042 219 1042 q 758 913 629 1042 q 888 514 888 785 q 826 215 888 331 q 641 42 765 98 q 328 -14 517 -14 m 403 213 q 515 240 470 213 q 583 334 559 268 q 607 514 607 400 q 582 694 607 628 q 511 789 557 761 q 399 817 465 817 q 364 815 383 817 q 333 810 345 813 l 333 214 q 403 213 364 213 m 497 1321 l 675 1321 l 542 1101 l 317 1101 l 183 1321 l 361 1321 l 429 1197 l 497 1321 z "},"Đ":{"ha":925,"x_min":0,"x_max":888,"o":"m 365 1042 q 758 913 629 1042 q 888 514 888 785 q 826 215 888 331 q 641 42 765 98 q 328 -14 517 -14 q 61 1 192 -14 l 61 439 l 0 439 l 0 619 l 61 619 l 61 1007 q 365 1042 219 1042 m 403 213 q 515 240 470 213 q 583 334 559 268 q 607 514 607 400 q 582 694 607 628 q 511 789 557 761 q 399 817 465 817 q 364 815 383 817 q 333 810 345 813 l 333 619 l 469 619 l 469 439 l 333 439 l 333 214 q 403 213 364 213 z "},"Ḍ":{"ha":925,"x_min":61,"x_max":888,"o":"m 328 -14 q 61 1 192 -14 l 61 1007 q 365 1042 219 1042 q 758 913 629 1042 q 888 514 888 785 q 826 215 888 331 q 641 42 765 98 q 328 -14 517 -14 m 403 213 q 515 240 470 213 q 583 334 559 268 q 607 514 607 400 q 582 694 607 628 q 511 789 557 761 q 399 817 465 817 q 364 815 383 817 q 333 810 345 813 l 333 214 q 403 213 364 213 m 443 -322 q 322 -291 365 -322 q 279 -197 279 -260 q 322 -103 279 -135 q 443 -72 365 -72 q 564 -103 521 -72 q 607 -197 607 -135 q 564 -291 607 -260 q 443 -322 521 -322 z "},"Ḏ":{"ha":925,"x_min":61,"x_max":888,"o":"m 328 -14 q 61 1 192 -14 l 61 1007 q 365 1042 219 1042 q 758 913 629 1042 q 888 514 888 785 q 826 215 888 331 q 641 42 765 98 q 328 -14 517 -14 m 403 213 q 515 240 470 213 q 583 334 559 268 q 607 514 607 400 q 582 694 607 628 q 511 789 557 761 q 399 817 465 817 q 364 815 383 817 q 333 810 345 813 l 333 214 q 403 213 364 213 m 182 -275 l 182 -104 l 704 -104 l 704 -275 l 182 -275 z "},"ǲ":{"ha":1533,"x_min":61,"x_max":1515,"o":"m 328 -14 q 61 1 192 -14 l 61 1007 q 365 1042 219 1042 q 758 913 629 1042 q 888 514 888 785 q 826 215 888 331 q 641 42 765 98 q 328 -14 517 -14 m 403 213 q 515 240 470 213 q 583 334 559 268 q 607 514 607 400 q 582 694 607 628 q 511 789 557 761 q 399 817 465 817 q 364 815 383 817 q 333 810 345 813 l 333 214 q 403 213 364 213 m 1251 208 l 1515 208 l 1515 0 l 954 0 l 954 167 l 1211 556 l 961 556 l 961 764 l 1508 764 l 1508 597 l 1251 208 z "},"ǅ":{"ha":1533,"x_min":61,"x_max":1515,"o":"m 328 -14 q 61 1 192 -14 l 61 1007 q 365 1042 219 1042 q 758 913 629 1042 q 888 514 888 785 q 826 215 888 331 q 641 42 765 98 q 328 -14 517 -14 m 403 213 q 515 240 470 213 q 583 334 559 268 q 607 514 607 400 q 582 694 607 628 q 511 789 557 761 q 399 817 465 817 q 364 815 383 817 q 333 810 345 813 l 333 214 q 403 213 364 213 m 1251 208 l 1515 208 l 1515 0 l 954 0 l 954 167 l 1211 556 l 961 556 l 961 764 l 1508 764 l 1508 597 l 1251 208 m 1303 1099 l 1481 1099 l 1347 879 l 1122 879 l 989 1099 l 1167 1099 l 1235 975 l 1303 1099 z "},"E":{"ha":783,"x_min":61,"x_max":743,"o":"m 329 232 l 743 232 l 743 0 l 61 0 l 61 1028 l 736 1028 l 736 796 l 329 796 l 329 640 l 664 640 l 664 408 l 329 408 l 329 232 z "},"É":{"ha":783,"x_min":61,"x_max":743,"o":"m 329 232 l 743 232 l 743 0 l 61 0 l 61 1028 l 736 1028 l 736 796 l 329 796 l 329 640 l 664 640 l 664 408 l 329 408 l 329 232 m 294 1101 l 407 1321 l 685 1321 l 533 1101 l 294 1101 z "},"Ĕ":{"ha":783,"x_min":61,"x_max":743,"o":"m 329 232 l 743 232 l 743 0 l 61 0 l 61 1028 l 736 1028 l 736 796 l 329 796 l 329 640 l 664 640 l 664 408 l 329 408 l 329 232 m 414 1101 q 236 1158 302 1101 q 160 1321 170 1215 l 321 1321 q 350 1252 327 1273 q 414 1231 372 1231 q 478 1252 456 1231 q 507 1321 501 1273 l 668 1321 q 592 1158 658 1215 q 414 1101 526 1101 z "},"Ě":{"ha":783,"x_min":61,"x_max":743,"o":"m 329 232 l 743 232 l 743 0 l 61 0 l 61 1028 l 736 1028 l 736 796 l 329 796 l 329 640 l 664 640 l 664 408 l 329 408 l 329 232 m 482 1321 l 660 1321 l 526 1101 l 301 1101 l 168 1321 l 346 1321 l 414 1197 l 482 1321 z "},"Ḝ":{"ha":783,"x_min":61,"x_max":743,"o":"m 414 1101 q 236 1158 302 1101 q 160 1321 170 1215 l 321 1321 q 350 1252 327 1273 q 414 1231 372 1231 q 478 1252 456 1231 q 507 1321 501 1273 l 668 1321 q 592 1158 658 1215 q 414 1101 526 1101 m 460 0 l 460 -55 q 552 -98 520 -65 q 583 -182 583 -130 q 378 -319 583 -319 q 246 -301 304 -319 l 246 -197 q 304 -211 272 -206 q 363 -215 336 -215 q 422 -205 403 -215 q 440 -171 440 -195 q 360 -124 440 -124 l 331 -124 l 331 0 l 61 0 l 61 1028 l 736 1028 l 736 796 l 329 796 l 329 640 l 664 640 l 664 408 l 329 408 l 329 232 l 743 232 l 743 0 l 460 0 z "},"Ê":{"ha":783,"x_min":61,"x_max":743,"o":"m 329 232 l 743 232 l 743 0 l 61 0 l 61 1028 l 736 1028 l 736 796 l 329 796 l 329 640 l 664 640 l 664 408 l 329 408 l 329 232 m 660 1101 l 482 1101 l 414 1225 l 346 1101 l 168 1101 l 301 1321 l 526 1321 l 660 1101 z "},"Ế":{"ha":783,"x_min":61,"x_max":807,"o":"m 329 232 l 743 232 l 743 0 l 61 0 l 61 1028 l 736 1028 l 736 796 l 329 796 l 329 640 l 664 640 l 664 408 l 329 408 l 329 232 m 643 1433 l 807 1433 l 708 1269 l 583 1269 l 643 1433 m 301 1290 l 526 1290 l 660 1101 l 482 1101 l 414 1208 l 346 1101 l 168 1101 l 301 1290 z "},"Ệ":{"ha":783,"x_min":61,"x_max":743,"o":"m 329 232 l 743 232 l 743 0 l 61 0 l 61 1028 l 736 1028 l 736 796 l 329 796 l 329 640 l 664 640 l 664 408 l 329 408 l 329 232 m 414 -322 q 293 -291 336 -322 q 250 -197 250 -260 q 293 -103 250 -135 q 414 -72 336 -72 q 535 -103 492 -72 q 578 -197 578 -135 q 535 -291 578 -260 q 414 -322 492 -322 m 660 1101 l 482 1101 l 414 1225 l 346 1101 l 168 1101 l 301 1321 l 526 1321 l 660 1101 z "},"Ề":{"ha":783,"x_min":61,"x_max":743,"o":"m 329 232 l 743 232 l 743 0 l 61 0 l 61 1028 l 736 1028 l 736 796 l 329 796 l 329 640 l 664 640 l 664 408 l 329 408 l 329 232 m 736 1269 l 611 1269 l 513 1433 l 676 1433 l 736 1269 m 301 1290 l 526 1290 l 660 1101 l 482 1101 l 414 1208 l 346 1101 l 168 1101 l 301 1290 z "},"Ể":{"ha":783,"x_min":61,"x_max":829,"o":"m 329 232 l 743 232 l 743 0 l 61 0 l 61 1028 l 736 1028 l 736 796 l 329 796 l 329 640 l 664 640 l 664 408 l 329 408 l 329 232 m 644 1475 q 785 1455 741 1475 q 829 1388 829 1434 q 814 1352 829 1366 q 771 1324 799 1339 q 731 1298 745 1310 q 714 1269 717 1287 l 583 1269 q 597 1307 585 1292 q 623 1330 608 1322 q 658 1349 637 1339 q 680 1359 674 1356 q 686 1368 686 1363 q 670 1383 686 1378 q 621 1388 655 1388 q 499 1376 556 1388 l 499 1461 q 568 1471 525 1467 q 644 1475 610 1475 m 301 1290 l 526 1290 l 660 1101 l 482 1101 l 414 1208 l 346 1101 l 168 1101 l 301 1290 z "},"Ễ":{"ha":783,"x_min":61,"x_max":743,"o":"m 329 232 l 743 232 l 743 0 l 61 0 l 61 1028 l 736 1028 l 736 796 l 329 796 l 329 640 l 664 640 l 664 408 l 329 408 l 329 232 m 515 1435 q 588 1445 556 1435 q 660 1481 619 1455 l 660 1363 q 594 1328 626 1336 q 513 1319 562 1319 q 460 1325 485 1319 q 401 1341 435 1331 q 352 1354 372 1349 q 313 1358 332 1358 q 240 1348 272 1358 q 168 1313 208 1338 l 168 1431 q 235 1466 203 1457 q 315 1475 267 1475 q 369 1469 343 1475 q 427 1453 394 1463 q 478 1439 459 1443 q 515 1435 497 1435 m 301 1290 l 526 1290 l 660 1101 l 482 1101 l 414 1208 l 346 1101 l 168 1101 l 301 1290 z "},"Ȅ":{"ha":783,"x_min":61,"x_max":743,"o":"m 329 232 l 743 232 l 743 0 l 61 0 l 61 1028 l 736 1028 l 736 796 l 329 796 l 329 640 l 664 640 l 664 408 l 329 408 l 329 232 m 161 1101 l 67 1321 l 283 1321 l 367 1101 l 161 1101 m 461 1101 l 367 1321 l 583 1321 l 667 1101 l 461 1101 z "},"Ë":{"ha":783,"x_min":61,"x_max":743,"o":"m 329 232 l 743 232 l 743 0 l 61 0 l 61 1028 l 736 1028 l 736 796 l 329 796 l 329 640 l 664 640 l 664 408 l 329 408 l 329 232 m 240 1090 q 134 1123 172 1090 q 96 1215 96 1155 q 134 1308 96 1276 q 240 1340 172 1340 q 347 1308 309 1340 q 385 1215 385 1276 q 347 1123 385 1155 q 240 1090 309 1090 m 588 1090 q 481 1123 519 1090 q 443 1215 443 1155 q 481 1308 443 1276 q 588 1340 519 1340 q 694 1308 656 1340 q 732 1215 732 1276 q 694 1123 732 1155 q 588 1090 656 1090 z "},"Ė":{"ha":783,"x_min":61,"x_max":743,"o":"m 329 232 l 743 232 l 743 0 l 61 0 l 61 1028 l 736 1028 l 736 796 l 329 796 l 329 640 l 664 640 l 664 408 l 329 408 l 329 232 m 414 1090 q 293 1122 336 1090 q 250 1215 250 1153 q 293 1309 250 1278 q 414 1340 336 1340 q 535 1309 492 1340 q 578 1215 578 1278 q 535 1122 578 1153 q 414 1090 492 1090 z "},"Ẹ":{"ha":783,"x_min":61,"x_max":743,"o":"m 329 232 l 743 232 l 743 0 l 61 0 l 61 1028 l 736 1028 l 736 796 l 329 796 l 329 640 l 664 640 l 664 408 l 329 408 l 329 232 m 414 -322 q 293 -291 336 -322 q 250 -197 250 -260 q 293 -103 250 -135 q 414 -72 336 -72 q 535 -103 492 -72 q 578 -197 578 -135 q 535 -291 578 -260 q 414 -322 492 -322 z "},"È":{"ha":783,"x_min":61,"x_max":743,"o":"m 329 232 l 743 232 l 743 0 l 61 0 l 61 1028 l 736 1028 l 736 796 l 329 796 l 329 640 l 664 640 l 664 408 l 329 408 l 329 232 m 294 1101 l 143 1321 l 421 1321 l 533 1101 l 294 1101 z "},"Ẻ":{"ha":783,"x_min":61,"x_max":743,"o":"m 329 232 l 743 232 l 743 0 l 61 0 l 61 1028 l 736 1028 l 736 796 l 329 796 l 329 640 l 664 640 l 664 408 l 329 408 l 329 232 m 349 1101 q 371 1158 351 1138 q 424 1194 392 1178 q 445 1206 439 1201 q 451 1215 451 1210 q 435 1233 451 1228 q 386 1239 419 1239 q 324 1235 357 1239 q 264 1225 291 1231 l 264 1325 q 332 1336 290 1332 q 410 1340 375 1340 q 550 1316 506 1340 q 594 1239 594 1292 q 580 1198 594 1213 q 536 1164 566 1183 q 497 1135 510 1149 q 479 1101 483 1122 l 349 1101 z "},"Ȇ":{"ha":783,"x_min":61,"x_max":743,"o":"m 329 232 l 743 232 l 743 0 l 61 0 l 61 1028 l 736 1028 l 736 796 l 329 796 l 329 640 l 664 640 l 664 408 l 329 408 l 329 232 m 160 1101 q 236 1264 170 1208 q 414 1321 302 1321 q 592 1264 526 1321 q 668 1101 658 1208 l 507 1101 q 478 1170 501 1149 q 414 1192 456 1192 q 350 1170 372 1192 q 321 1101 327 1149 l 160 1101 z "},"Ē":{"ha":783,"x_min":61,"x_max":743,"o":"m 329 232 l 743 232 l 743 0 l 61 0 l 61 1028 l 736 1028 l 736 796 l 329 796 l 329 640 l 664 640 l 664 408 l 329 408 l 329 232 m 153 1126 l 153 1297 l 675 1297 l 675 1126 l 153 1126 z "},"Ḗ":{"ha":783,"x_min":61,"x_max":743,"o":"m 329 232 l 743 232 l 743 0 l 61 0 l 61 1028 l 736 1028 l 736 796 l 329 796 l 329 640 l 664 640 l 664 408 l 329 408 l 329 232 m 282 1379 l 394 1540 l 697 1540 l 546 1379 l 282 1379 m 153 1126 l 153 1297 l 675 1297 l 675 1126 l 153 1126 z "},"Ḕ":{"ha":783,"x_min":61,"x_max":743,"o":"m 329 232 l 743 232 l 743 0 l 61 0 l 61 1028 l 736 1028 l 736 796 l 329 796 l 329 640 l 664 640 l 664 408 l 329 408 l 329 232 m 282 1379 l 131 1540 l 433 1540 l 546 1379 l 282 1379 m 153 1126 l 153 1297 l 675 1297 l 675 1126 l 153 1126 z "},"Ę":{"ha":783,"x_min":61,"x_max":743,"o":"m 688 0 q 581 -48 619 -24 q 530 -98 544 -73 q 517 -150 517 -122 q 606 -212 517 -212 q 696 -194 648 -212 l 696 -299 q 569 -319 635 -319 q 417 -279 468 -319 q 367 -165 367 -238 q 392 -75 367 -115 q 476 0 417 -35 l 61 0 l 61 1028 l 736 1028 l 736 796 l 329 796 l 329 640 l 664 640 l 664 408 l 329 408 l 329 232 l 743 232 l 743 0 l 688 0 z "},"Ẽ":{"ha":783,"x_min":61,"x_max":743,"o":"m 329 232 l 743 232 l 743 0 l 61 0 l 61 1028 l 736 1028 l 736 796 l 329 796 l 329 640 l 664 640 l 664 408 l 329 408 l 329 232 m 532 1101 q 470 1109 499 1101 q 401 1131 441 1117 q 342 1150 367 1144 q 293 1157 318 1157 q 219 1144 251 1157 q 153 1104 187 1131 l 153 1267 q 215 1308 181 1295 q 296 1321 249 1321 q 357 1313 329 1321 q 427 1290 385 1306 q 486 1270 463 1277 q 535 1264 510 1264 q 609 1277 577 1264 q 675 1317 641 1290 l 675 1154 q 614 1114 647 1126 q 532 1101 580 1101 z "},"F":{"ha":743,"x_min":61,"x_max":736,"o":"m 736 793 l 333 793 l 333 608 l 668 608 l 668 374 l 333 374 l 333 0 l 61 0 l 61 1028 l 736 1028 l 736 793 z "},"G":{"ha":889,"x_min":38,"x_max":831,"o":"m 831 500 l 831 7 q 590 -14 699 -14 q 176 115 314 -14 q 38 514 38 244 q 178 910 38 778 q 590 1042 319 1042 q 703 1036 653 1042 q 804 1017 753 1030 l 804 789 q 709 807 751 801 q 622 813 667 813 q 449 784 514 813 q 353 689 383 755 q 322 510 322 623 q 382 283 322 351 q 560 214 442 214 l 579 214 l 579 500 l 831 500 z "},"Ǵ":{"ha":889,"x_min":38,"x_max":831,"o":"m 831 500 l 831 7 q 590 -14 699 -14 q 176 115 314 -14 q 38 514 38 244 q 178 910 38 778 q 590 1042 319 1042 q 703 1036 653 1042 q 804 1017 753 1030 l 804 789 q 709 807 751 801 q 622 813 667 813 q 449 784 514 813 q 353 689 383 755 q 322 510 322 623 q 382 283 322 351 q 560 214 442 214 l 579 214 l 579 500 l 831 500 m 401 1101 l 514 1321 l 792 1321 l 640 1101 l 401 1101 z "},"Ğ":{"ha":889,"x_min":38,"x_max":831,"o":"m 831 500 l 831 7 q 590 -14 699 -14 q 176 115 314 -14 q 38 514 38 244 q 178 910 38 778 q 590 1042 319 1042 q 703 1036 653 1042 q 804 1017 753 1030 l 804 789 q 709 807 751 801 q 622 813 667 813 q 449 784 514 813 q 353 689 383 755 q 322 510 322 623 q 382 283 322 351 q 560 214 442 214 l 579 214 l 579 500 l 831 500 m 521 1101 q 343 1158 409 1101 q 267 1321 277 1215 l 428 1321 q 457 1252 434 1273 q 521 1231 479 1231 q 585 1252 563 1231 q 614 1321 608 1273 l 775 1321 q 699 1158 765 1215 q 521 1101 633 1101 z "},"Ǧ":{"ha":889,"x_min":38,"x_max":831,"o":"m 831 500 l 831 7 q 590 -14 699 -14 q 176 115 314 -14 q 38 514 38 244 q 178 910 38 778 q 590 1042 319 1042 q 703 1036 653 1042 q 804 1017 753 1030 l 804 789 q 709 807 751 801 q 622 813 667 813 q 449 784 514 813 q 353 689 383 755 q 322 510 322 623 q 382 283 322 351 q 560 214 442 214 l 579 214 l 579 500 l 831 500 m 589 1321 l 767 1321 l 633 1101 l 408 1101 l 275 1321 l 453 1321 l 521 1197 l 589 1321 z "},"Ĝ":{"ha":889,"x_min":38,"x_max":831,"o":"m 831 500 l 831 7 q 590 -14 699 -14 q 176 115 314 -14 q 38 514 38 244 q 178 910 38 778 q 590 1042 319 1042 q 703 1036 653 1042 q 804 1017 753 1030 l 804 789 q 709 807 751 801 q 622 813 667 813 q 449 784 514 813 q 353 689 383 755 q 322 510 322 623 q 382 283 322 351 q 560 214 442 214 l 579 214 l 579 500 l 831 500 m 767 1101 l 589 1101 l 521 1225 l 453 1101 l 275 1101 l 408 1321 l 633 1321 l 767 1101 z "},"Ģ":{"ha":889,"x_min":38,"x_max":831,"o":"m 831 500 l 831 7 q 590 -14 699 -14 q 176 115 314 -14 q 38 514 38 244 q 178 910 38 778 q 590 1042 319 1042 q 703 1036 653 1042 q 804 1017 753 1030 l 804 789 q 709 807 751 801 q 622 813 667 813 q 449 784 514 813 q 353 689 383 755 q 322 510 322 623 q 382 283 322 351 q 560 214 442 214 l 579 214 l 579 500 l 831 500 m 521 -72 q 665 -193 665 -72 q 648 -280 665 -233 q 604 -358 630 -326 l 435 -358 q 463 -300 453 -324 q 478 -254 474 -276 q 401 -224 426 -248 q 376 -164 376 -201 q 412 -96 376 -119 q 521 -72 447 -72 z "},"Ġ":{"ha":889,"x_min":38,"x_max":831,"o":"m 831 500 l 831 7 q 590 -14 699 -14 q 176 115 314 -14 q 38 514 38 244 q 178 910 38 778 q 590 1042 319 1042 q 703 1036 653 1042 q 804 1017 753 1030 l 804 789 q 709 807 751 801 q 622 813 667 813 q 449 784 514 813 q 353 689 383 755 q 322 510 322 623 q 382 283 322 351 q 560 214 442 214 l 579 214 l 579 500 l 831 500 m 521 1090 q 400 1122 443 1090 q 357 1215 357 1153 q 400 1309 357 1278 q 521 1340 443 1340 q 642 1309 599 1340 q 685 1215 685 1278 q 642 1122 685 1153 q 521 1090 599 1090 z "},"Ḡ":{"ha":889,"x_min":38,"x_max":831,"o":"m 831 500 l 831 7 q 590 -14 699 -14 q 176 115 314 -14 q 38 514 38 244 q 178 910 38 778 q 590 1042 319 1042 q 703 1036 653 1042 q 804 1017 753 1030 l 804 789 q 709 807 751 801 q 622 813 667 813 q 449 784 514 813 q 353 689 383 755 q 322 510 322 623 q 382 283 322 351 q 560 214 442 214 l 579 214 l 579 500 l 831 500 m 260 1126 l 260 1297 l 782 1297 l 782 1126 l 260 1126 z "},"H":{"ha":949,"x_min":61,"x_max":888,"o":"m 61 0 l 61 1028 l 333 1028 l 333 649 l 615 649 l 615 1028 l 888 1028 l 888 0 l 615 0 l 615 400 l 333 400 l 333 0 l 61 0 z "},"Ħ":{"ha":949,"x_min":0,"x_max":949,"o":"m 949 917 l 949 750 l 888 750 l 888 0 l 615 0 l 615 400 l 333 400 l 333 0 l 61 0 l 61 750 l 0 750 l 0 917 l 61 917 l 61 1028 l 333 1028 l 333 917 l 615 917 l 615 1028 l 888 1028 l 888 917 l 949 917 m 615 649 l 615 750 l 333 750 l 333 649 l 615 649 z "},"Ḫ":{"ha":949,"x_min":61,"x_max":888,"o":"m 61 0 l 61 1028 l 333 1028 l 333 649 l 615 649 l 615 1028 l 888 1028 l 888 0 l 615 0 l 615 400 l 333 400 l 333 0 l 61 0 m 475 -312 q 297 -256 363 -312 q 221 -93 231 -199 l 382 -93 q 411 -162 388 -141 q 475 -183 433 -183 q 539 -162 517 -183 q 568 -93 562 -141 l 729 -93 q 653 -256 719 -199 q 475 -312 587 -312 z "},"Ĥ":{"ha":949,"x_min":61,"x_max":888,"o":"m 61 0 l 61 1028 l 333 1028 l 333 649 l 615 649 l 615 1028 l 888 1028 l 888 0 l 615 0 l 615 400 l 333 400 l 333 0 l 61 0 m 721 1101 l 543 1101 l 475 1225 l 407 1101 l 229 1101 l 363 1321 l 588 1321 l 721 1101 z "},"Ḥ":{"ha":949,"x_min":61,"x_max":888,"o":"m 61 0 l 61 1028 l 333 1028 l 333 649 l 615 649 l 615 1028 l 888 1028 l 888 0 l 615 0 l 615 400 l 333 400 l 333 0 l 61 0 m 475 -322 q 354 -291 397 -322 q 311 -197 311 -260 q 354 -103 311 -135 q 475 -72 397 -72 q 596 -103 553 -72 q 639 -197 639 -135 q 596 -291 639 -260 q 475 -322 553 -322 z "},"I":{"ha":394,"x_min":61,"x_max":333,"o":"m 61 0 l 61 1028 l 333 1028 l 333 0 l 61 0 z "},"Í":{"ha":394,"x_min":61,"x_max":468,"o":"m 61 0 l 61 1028 l 333 1028 l 333 0 l 61 0 m 78 1101 l 190 1321 l 468 1321 l 317 1101 l 78 1101 z "},"Ĭ":{"ha":394,"x_min":-57,"x_max":451,"o":"m 61 0 l 61 1028 l 333 1028 l 333 0 l 61 0 m 197 1101 q 19 1158 85 1101 q -57 1321 -47 1215 l 104 1321 q 133 1252 110 1273 q 197 1231 156 1231 q 261 1252 239 1231 q 290 1321 284 1273 l 451 1321 q 375 1158 441 1215 q 197 1101 309 1101 z "},"Î":{"ha":394,"x_min":-49,"x_max":443,"o":"m 61 0 l 61 1028 l 333 1028 l 333 0 l 61 0 m 443 1101 l 265 1101 l 197 1225 l 129 1101 l -49 1101 l 85 1321 l 310 1321 l 443 1101 z "},"Ȉ":{"ha":394,"x_min":-150,"x_max":450,"o":"m 61 0 l 61 1028 l 333 1028 l 333 0 l 61 0 m -56 1101 l -150 1321 l 67 1321 l 150 1101 l -56 1101 m 244 1101 l 150 1321 l 367 1321 l 450 1101 l 244 1101 z "},"Ï":{"ha":394,"x_min":-121,"x_max":515,"o":"m 61 0 l 61 1028 l 333 1028 l 333 0 l 61 0 m 24 1090 q -83 1123 -45 1090 q -121 1215 -121 1155 q -83 1308 -121 1276 q 24 1340 -45 1340 q 130 1308 92 1340 q 168 1215 168 1276 q 130 1123 168 1155 q 24 1090 92 1090 m 371 1090 q 264 1123 302 1090 q 226 1215 226 1155 q 264 1308 226 1276 q 371 1340 302 1340 q 477 1308 440 1340 q 515 1215 515 1276 q 477 1123 515 1155 q 371 1090 440 1090 z "},"Ḯ":{"ha":394,"x_min":-121,"x_max":515,"o":"m 61 0 l 61 1028 l 333 1028 l 333 0 l 61 0 m 65 1379 l 178 1540 l 481 1540 l 329 1379 l 65 1379 m 24 1090 q -83 1123 -45 1090 q -121 1215 -121 1155 q -83 1308 -121 1276 q 24 1340 -45 1340 q 130 1308 92 1340 q 168 1215 168 1276 q 130 1123 168 1155 q 24 1090 92 1090 m 371 1090 q 264 1123 302 1090 q 226 1215 226 1155 q 264 1308 226 1276 q 371 1340 302 1340 q 477 1308 440 1340 q 515 1215 515 1276 q 477 1123 515 1155 q 371 1090 440 1090 z "},"İ":{"ha":394,"x_min":33,"x_max":361,"o":"m 61 0 l 61 1028 l 333 1028 l 333 0 l 61 0 m 197 1090 q 76 1122 119 1090 q 33 1215 33 1153 q 76 1309 33 1278 q 197 1340 119 1340 q 318 1309 275 1340 q 361 1215 361 1278 q 318 1122 361 1153 q 197 1090 275 1090 z "},"Ị":{"ha":394,"x_min":33,"x_max":361,"o":"m 61 0 l 61 1028 l 333 1028 l 333 0 l 61 0 m 197 -322 q 76 -291 119 -322 q 33 -197 33 -260 q 76 -103 33 -135 q 197 -72 119 -72 q 318 -103 275 -72 q 361 -197 361 -135 q 318 -291 361 -260 q 197 -322 275 -322 z "},"Ì":{"ha":394,"x_min":-74,"x_max":333,"o":"m 61 0 l 61 1028 l 333 1028 l 333 0 l 61 0 m 78 1101 l -74 1321 l 204 1321 l 317 1101 l 78 1101 z "},"Ỉ":{"ha":394,"x_min":47,"x_max":378,"o":"m 61 0 l 61 1028 l 333 1028 l 333 0 l 61 0 m 132 1101 q 155 1158 134 1138 q 208 1194 175 1178 q 228 1206 222 1201 q 235 1215 235 1210 q 219 1233 235 1228 q 169 1239 203 1239 q 107 1235 140 1239 q 47 1225 74 1231 l 47 1325 q 116 1336 73 1332 q 193 1340 158 1340 q 334 1316 290 1340 q 378 1239 378 1292 q 364 1198 378 1213 q 319 1164 349 1183 q 280 1135 294 1149 q 263 1101 266 1122 l 132 1101 z "},"Ȋ":{"ha":394,"x_min":-57,"x_max":451,"o":"m 61 0 l 61 1028 l 333 1028 l 333 0 l 61 0 m -57 1101 q 19 1264 -47 1208 q 197 1321 85 1321 q 375 1264 309 1321 q 451 1101 441 1208 l 290 1101 q 261 1170 284 1149 q 197 1192 239 1192 q 133 1170 156 1192 q 104 1101 110 1149 l -57 1101 z "},"Ī":{"ha":394,"x_min":-64,"x_max":458,"o":"m 61 0 l 61 1028 l 333 1028 l 333 0 l 61 0 m -64 1126 l -64 1297 l 458 1297 l 458 1126 l -64 1126 z "},"Į":{"ha":394,"x_min":13,"x_max":342,"o":"m 251 -212 q 342 -194 294 -212 l 342 -299 q 215 -319 281 -319 q 63 -279 114 -319 q 13 -165 13 -238 q 38 -75 13 -115 q 122 0 63 -35 l 61 0 l 61 1028 l 333 1028 l 333 0 q 227 -48 265 -24 q 176 -98 190 -73 q 163 -150 163 -122 q 251 -212 163 -212 z "},"Ĩ":{"ha":394,"x_min":-64,"x_max":458,"o":"m 61 0 l 61 1028 l 333 1028 l 333 0 l 61 0 m 315 1101 q 253 1109 282 1101 q 184 1131 224 1117 q 126 1150 150 1144 q 76 1157 101 1157 q 2 1144 34 1157 q -64 1104 -30 1131 l -64 1267 q -2 1308 -35 1295 q 79 1321 32 1321 q 141 1313 113 1321 q 210 1290 169 1306 q 270 1270 247 1277 q 318 1264 293 1264 q 392 1277 360 1264 q 458 1317 424 1290 l 458 1154 q 397 1114 431 1126 q 315 1101 363 1101 z "},"J":{"ha":394,"x_min":-35,"x_max":333,"o":"m -35 -126 q 41 27 20 -47 q 61 213 61 102 l 61 1028 l 333 1028 l 333 224 q 290 -22 333 89 q 143 -243 247 -133 l -35 -126 z "},"Ĵ":{"ha":394,"x_min":-49,"x_max":443,"o":"m -35 -126 q 41 27 20 -47 q 61 213 61 102 l 61 1028 l 333 1028 l 333 224 q 290 -22 333 89 q 143 -243 247 -133 l -35 -126 m 443 1101 l 265 1101 l 197 1225 l 129 1101 l -49 1101 l 85 1321 l 310 1321 l 443 1101 z "},"K":{"ha":860,"x_min":61,"x_max":908,"o":"m 618 0 l 391 400 l 333 400 l 333 0 l 61 0 l 61 1028 l 333 1028 l 333 649 l 392 649 l 601 1028 l 883 1028 l 609 531 l 908 0 l 618 0 z "},"Ķ":{"ha":860,"x_min":61,"x_max":908,"o":"m 618 0 l 391 400 l 333 400 l 333 0 l 61 0 l 61 1028 l 333 1028 l 333 649 l 392 649 l 601 1028 l 883 1028 l 609 531 l 908 0 l 618 0 m 449 -72 q 593 -193 593 -72 q 575 -280 593 -233 q 532 -358 558 -326 l 363 -358 q 391 -300 381 -324 q 406 -254 401 -276 q 329 -224 354 -248 q 304 -164 304 -201 q 340 -96 304 -119 q 449 -72 375 -72 z "},"L":{"ha":719,"x_min":61,"x_max":717,"o":"m 61 0 l 61 1028 l 333 1028 l 333 240 l 717 240 l 717 0 l 61 0 z "},"Ǉ":{"ha":1114,"x_min":61,"x_max":1053,"o":"m 61 0 l 61 1028 l 333 1028 l 333 240 l 717 240 l 717 0 l 61 0 m 685 -126 q 760 27 740 -47 q 781 213 781 102 l 781 1028 l 1053 1028 l 1053 224 q 1009 -22 1053 89 q 863 -243 966 -133 l 685 -126 z "},"Ĺ":{"ha":719,"x_min":61,"x_max":717,"o":"m 61 0 l 61 1028 l 333 1028 l 333 240 l 717 240 l 717 0 l 61 0 m 83 1101 l 196 1321 l 474 1321 l 322 1101 l 83 1101 z "},"Ľ":{"ha":719,"x_min":61,"x_max":717,"o":"m 61 0 l 61 1028 l 333 1028 l 333 240 l 717 240 l 717 0 l 61 0 m 447 792 q 465 944 460 872 q 469 1122 469 1016 l 649 1122 q 594 792 649 916 l 447 792 z "},"Ļ":{"ha":719,"x_min":61,"x_max":717,"o":"m 61 0 l 61 1028 l 333 1028 l 333 240 l 717 240 l 717 0 l 61 0 m 389 -72 q 533 -193 533 -72 q 516 -280 533 -233 q 472 -358 498 -326 l 303 -358 q 331 -300 321 -324 q 346 -254 342 -276 q 269 -224 294 -248 q 244 -164 244 -201 q 280 -96 244 -119 q 389 -72 315 -72 z "},"Ŀ":{"ha":719,"x_min":61,"x_max":717,"o":"m 61 0 l 61 1028 l 333 1028 l 333 240 l 717 240 l 717 0 l 61 0 m 553 476 q 430 514 470 476 q 390 621 390 551 q 430 728 390 690 q 553 765 470 765 q 675 728 635 765 q 715 621 715 690 q 675 514 715 551 q 553 476 635 476 z "},"Ḷ":{"ha":719,"x_min":61,"x_max":717,"o":"m 61 0 l 61 1028 l 333 1028 l 333 240 l 717 240 l 717 0 l 61 0 m 389 -322 q 268 -291 311 -322 q 225 -197 225 -260 q 268 -103 225 -135 q 389 -72 311 -72 q 510 -103 467 -72 q 553 -197 553 -135 q 510 -291 553 -260 q 389 -322 467 -322 z "},"ǈ":{"ha":1097,"x_min":61,"x_max":1071,"o":"m 61 0 l 61 1028 l 333 1028 l 333 240 l 717 240 l 717 0 l 61 0 m 678 -214 q 753 -60 733 -135 q 774 125 774 15 l 774 764 l 1043 764 l 1043 136 q 1000 -109 1043 1 q 856 -331 958 -220 l 678 -214 m 908 840 q 786 878 826 840 q 746 985 746 915 q 786 1092 746 1054 q 908 1129 826 1129 q 1031 1092 991 1129 q 1071 985 1071 1054 q 1031 878 1071 915 q 908 840 991 840 z "},"Ḻ":{"ha":719,"x_min":61,"x_max":717,"o":"m 61 0 l 61 1028 l 333 1028 l 333 240 l 717 240 l 717 0 l 61 0 m 128 -275 l 128 -104 l 650 -104 l 650 -275 l 128 -275 z "},"Ł":{"ha":746,"x_min":-28,"x_max":743,"o":"m 360 240 l 743 240 l 743 0 l 88 0 l 88 423 l 54 407 l -28 572 l 88 628 l 88 1028 l 360 1028 l 360 758 l 521 836 l 603 671 l 360 554 l 360 240 z "},"M":{"ha":1206,"x_min":64,"x_max":1142,"o":"m 806 1028 l 1142 1028 l 1142 0 l 889 0 l 889 647 l 708 153 l 497 153 l 317 627 l 317 0 l 64 0 l 64 1028 l 400 1028 l 608 458 l 806 1028 z "},"Ṃ":{"ha":1206,"x_min":64,"x_max":1142,"o":"m 806 1028 l 1142 1028 l 1142 0 l 889 0 l 889 647 l 708 153 l 497 153 l 317 627 l 317 0 l 64 0 l 64 1028 l 400 1028 l 608 458 l 806 1028 m 621 -322 q 500 -291 543 -322 q 457 -197 457 -260 q 500 -103 457 -135 q 621 -72 543 -72 q 742 -103 699 -72 q 785 -197 785 -135 q 742 -291 785 -260 q 621 -322 699 -322 z "},"N":{"ha":958,"x_min":61,"x_max":897,"o":"m 643 1028 l 897 1028 l 897 0 l 626 0 l 315 572 l 315 0 l 61 0 l 61 1028 l 332 1028 l 643 456 l 643 1028 z "},"Ǌ":{"ha":1353,"x_min":61,"x_max":1292,"o":"m 643 1028 l 897 1028 l 897 0 l 626 0 l 315 572 l 315 0 l 61 0 l 61 1028 l 332 1028 l 643 456 l 643 1028 m 924 -126 q 999 27 978 -47 q 1019 213 1019 102 l 1019 1028 l 1292 1028 l 1292 224 q 1248 -22 1292 89 q 1101 -243 1205 -133 l 924 -126 z "},"Ń":{"ha":958,"x_min":61,"x_max":897,"o":"m 643 1028 l 897 1028 l 897 0 l 626 0 l 315 572 l 315 0 l 61 0 l 61 1028 l 332 1028 l 643 456 l 643 1028 m 360 1101 l 472 1321 l 750 1321 l 599 1101 l 360 1101 z "},"Ň":{"ha":958,"x_min":61,"x_max":897,"o":"m 643 1028 l 897 1028 l 897 0 l 626 0 l 315 572 l 315 0 l 61 0 l 61 1028 l 332 1028 l 643 456 l 643 1028 m 547 1321 l 725 1321 l 592 1101 l 367 1101 l 233 1321 l 411 1321 l 479 1197 l 547 1321 z "},"Ņ":{"ha":958,"x_min":61,"x_max":897,"o":"m 643 1028 l 897 1028 l 897 0 l 626 0 l 315 572 l 315 0 l 61 0 l 61 1028 l 332 1028 l 643 456 l 643 1028 m 479 -72 q 624 -193 624 -72 q 606 -280 624 -233 q 563 -358 588 -326 l 393 -358 q 422 -300 411 -324 q 436 -254 432 -276 q 360 -224 385 -248 q 335 -164 335 -201 q 370 -96 335 -119 q 479 -72 406 -72 z "},"Ṅ":{"ha":958,"x_min":61,"x_max":897,"o":"m 643 1028 l 897 1028 l 897 0 l 626 0 l 315 572 l 315 0 l 61 0 l 61 1028 l 332 1028 l 643 456 l 643 1028 m 479 1090 q 358 1122 401 1090 q 315 1215 315 1153 q 358 1309 315 1278 q 479 1340 401 1340 q 600 1309 557 1340 q 643 1215 643 1278 q 600 1122 643 1153 q 479 1090 557 1090 z "},"Ṇ":{"ha":958,"x_min":61,"x_max":897,"o":"m 643 1028 l 897 1028 l 897 0 l 626 0 l 315 572 l 315 0 l 61 0 l 61 1028 l 332 1028 l 643 456 l 643 1028 m 479 -322 q 358 -291 401 -322 q 315 -197 315 -260 q 358 -103 315 -135 q 479 -72 401 -72 q 600 -103 557 -72 q 643 -197 643 -135 q 600 -291 643 -260 q 479 -322 557 -322 z "},"Ŋ":{"ha":958,"x_min":61,"x_max":897,"o":"m 897 1028 l 897 164 q 879 -23 897 60 q 820 -181 861 -106 q 710 -331 779 -256 l 532 -214 q 597 -112 573 -161 q 631 -9 620 -63 l 315 572 l 315 0 l 61 0 l 61 1028 l 332 1028 l 643 455 l 643 1028 l 897 1028 z "},"ǋ":{"ha":1336,"x_min":61,"x_max":1310,"o":"m 643 1028 l 897 1028 l 897 0 l 626 0 l 315 572 l 315 0 l 61 0 l 61 1028 l 332 1028 l 643 456 l 643 1028 m 917 -214 q 992 -60 972 -135 q 1013 125 1013 15 l 1013 764 l 1282 764 l 1282 136 q 1239 -109 1282 1 q 1094 -331 1197 -220 l 917 -214 m 1147 840 q 1025 878 1065 840 q 985 985 985 915 q 1025 1092 985 1054 q 1147 1129 1065 1129 q 1270 1092 1230 1129 q 1310 985 1310 1054 q 1270 878 1310 915 q 1147 840 1230 840 z "},"Ṉ":{"ha":958,"x_min":61,"x_max":897,"o":"m 643 1028 l 897 1028 l 897 0 l 626 0 l 315 572 l 315 0 l 61 0 l 61 1028 l 332 1028 l 643 456 l 643 1028 m 218 -275 l 218 -104 l 740 -104 l 740 -275 l 218 -275 z "},"Ñ":{"ha":958,"x_min":61,"x_max":897,"o":"m 643 1028 l 897 1028 l 897 0 l 626 0 l 315 572 l 315 0 l 61 0 l 61 1028 l 332 1028 l 643 456 l 643 1028 m 597 1101 q 535 1109 564 1101 q 466 1131 506 1117 q 408 1150 432 1144 q 358 1157 383 1157 q 284 1144 316 1157 q 218 1104 252 1131 l 218 1267 q 280 1308 247 1295 q 361 1321 314 1321 q 423 1313 394 1321 q 492 1290 451 1306 q 552 1270 528 1277 q 600 1264 575 1264 q 674 1277 642 1264 q 740 1317 706 1290 l 740 1154 q 679 1114 713 1126 q 597 1101 645 1101 z "},"O":{"ha":969,"x_min":38,"x_max":932,"o":"m 485 -14 q 249 42 349 -14 q 93 215 149 97 q 38 514 38 333 q 93 813 38 695 q 249 986 149 931 q 485 1042 349 1042 q 721 986 621 1042 q 876 813 821 931 q 932 514 932 695 q 876 215 932 333 q 721 42 821 97 q 485 -14 621 -14 m 485 211 q 610 280 568 211 q 651 508 651 348 q 632 690 651 622 q 577 787 613 758 q 485 817 540 817 q 360 748 401 817 q 318 519 318 680 q 337 338 318 406 q 393 241 356 270 q 485 211 429 211 z "},"Ó":{"ha":969,"x_min":38,"x_max":932,"o":"m 485 -14 q 249 42 349 -14 q 93 215 149 97 q 38 514 38 333 q 93 813 38 695 q 249 986 149 931 q 485 1042 349 1042 q 721 986 621 1042 q 876 813 821 931 q 932 514 932 695 q 876 215 932 333 q 721 42 821 97 q 485 -14 621 -14 m 485 211 q 610 280 568 211 q 651 508 651 348 q 632 690 651 622 q 577 787 613 758 q 485 817 540 817 q 360 748 401 817 q 318 519 318 680 q 337 338 318 406 q 393 241 356 270 q 485 211 429 211 m 365 1101 l 478 1321 l 756 1321 l 604 1101 l 365 1101 z "},"Ŏ":{"ha":969,"x_min":38,"x_max":932,"o":"m 485 -14 q 249 42 349 -14 q 93 215 149 97 q 38 514 38 333 q 93 813 38 695 q 249 986 149 931 q 485 1042 349 1042 q 721 986 621 1042 q 876 813 821 931 q 932 514 932 695 q 876 215 932 333 q 721 42 821 97 q 485 -14 621 -14 m 485 211 q 610 280 568 211 q 651 508 651 348 q 632 690 651 622 q 577 787 613 758 q 485 817 540 817 q 360 748 401 817 q 318 519 318 680 q 337 338 318 406 q 393 241 356 270 q 485 211 429 211 m 485 1101 q 307 1158 373 1101 q 231 1321 241 1215 l 392 1321 q 420 1252 398 1273 q 485 1231 443 1231 q 549 1252 526 1231 q 578 1321 572 1273 l 739 1321 q 663 1158 728 1215 q 485 1101 597 1101 z "},"Ô":{"ha":969,"x_min":38,"x_max":932,"o":"m 485 -14 q 249 42 349 -14 q 93 215 149 97 q 38 514 38 333 q 93 813 38 695 q 249 986 149 931 q 485 1042 349 1042 q 721 986 621 1042 q 876 813 821 931 q 932 514 932 695 q 876 215 932 333 q 721 42 821 97 q 485 -14 621 -14 m 485 211 q 610 280 568 211 q 651 508 651 348 q 632 690 651 622 q 577 787 613 758 q 485 817 540 817 q 360 748 401 817 q 318 519 318 680 q 337 338 318 406 q 393 241 356 270 q 485 211 429 211 m 731 1101 l 553 1101 l 485 1225 l 417 1101 l 239 1101 l 372 1321 l 597 1321 l 731 1101 z "},"Ố":{"ha":969,"x_min":38,"x_max":932,"o":"m 485 -14 q 249 42 349 -14 q 93 215 149 97 q 38 514 38 333 q 93 813 38 695 q 249 986 149 931 q 485 1042 349 1042 q 721 986 621 1042 q 876 813 821 931 q 932 514 932 695 q 876 215 932 333 q 721 42 821 97 q 485 -14 621 -14 m 485 211 q 610 280 568 211 q 651 508 651 348 q 632 690 651 622 q 577 787 613 758 q 485 817 540 817 q 360 748 401 817 q 318 519 318 680 q 337 338 318 406 q 393 241 356 270 q 485 211 429 211 m 714 1433 l 878 1433 l 779 1269 l 654 1269 l 714 1433 m 372 1290 l 597 1290 l 731 1101 l 553 1101 l 485 1208 l 417 1101 l 239 1101 l 372 1290 z "},"Ộ":{"ha":969,"x_min":38,"x_max":932,"o":"m 485 -14 q 249 42 349 -14 q 93 215 149 97 q 38 514 38 333 q 93 813 38 695 q 249 986 149 931 q 485 1042 349 1042 q 721 986 621 1042 q 876 813 821 931 q 932 514 932 695 q 876 215 932 333 q 721 42 821 97 q 485 -14 621 -14 m 485 211 q 610 280 568 211 q 651 508 651 348 q 632 690 651 622 q 577 787 613 758 q 485 817 540 817 q 360 748 401 817 q 318 519 318 680 q 337 338 318 406 q 393 241 356 270 q 485 211 429 211 m 485 -322 q 364 -291 407 -322 q 321 -197 321 -260 q 364 -103 321 -135 q 485 -72 407 -72 q 606 -103 563 -72 q 649 -197 649 -135 q 606 -291 649 -260 q 485 -322 563 -322 m 731 1101 l 553 1101 l 485 1225 l 417 1101 l 239 1101 l 372 1321 l 597 1321 l 731 1101 z "},"Ồ":{"ha":969,"x_min":38,"x_max":932,"o":"m 485 -14 q 249 42 349 -14 q 93 215 149 97 q 38 514 38 333 q 93 813 38 695 q 249 986 149 931 q 485 1042 349 1042 q 721 986 621 1042 q 876 813 821 931 q 932 514 932 695 q 876 215 932 333 q 721 42 821 97 q 485 -14 621 -14 m 485 211 q 610 280 568 211 q 651 508 651 348 q 632 690 651 622 q 577 787 613 758 q 485 817 540 817 q 360 748 401 817 q 318 519 318 680 q 337 338 318 406 q 393 241 356 270 q 485 211 429 211 m 807 1269 l 682 1269 l 583 1433 l 747 1433 l 807 1269 m 372 1290 l 597 1290 l 731 1101 l 553 1101 l 485 1208 l 417 1101 l 239 1101 l 372 1290 z "},"Ổ":{"ha":969,"x_min":38,"x_max":932,"o":"m 485 -14 q 249 42 349 -14 q 93 215 149 97 q 38 514 38 333 q 93 813 38 695 q 249 986 149 931 q 485 1042 349 1042 q 721 986 621 1042 q 876 813 821 931 q 932 514 932 695 q 876 215 932 333 q 721 42 821 97 q 485 -14 621 -14 m 485 211 q 610 280 568 211 q 651 508 651 348 q 632 690 651 622 q 577 787 613 758 q 485 817 540 817 q 360 748 401 817 q 318 519 318 680 q 337 338 318 406 q 393 241 356 270 q 485 211 429 211 m 715 1475 q 856 1455 812 1475 q 900 1388 900 1434 q 885 1352 900 1366 q 842 1324 870 1339 q 802 1298 816 1310 q 785 1269 788 1287 l 654 1269 q 667 1307 656 1292 q 693 1330 679 1322 q 729 1349 708 1339 q 751 1359 744 1356 q 757 1368 757 1363 q 741 1383 757 1378 q 692 1388 726 1388 q 569 1376 627 1388 l 569 1461 q 639 1471 596 1467 q 715 1475 681 1475 m 372 1290 l 597 1290 l 731 1101 l 553 1101 l 485 1208 l 417 1101 l 239 1101 l 372 1290 z "},"Ỗ":{"ha":969,"x_min":38,"x_max":932,"o":"m 485 -14 q 249 42 349 -14 q 93 215 149 97 q 38 514 38 333 q 93 813 38 695 q 249 986 149 931 q 485 1042 349 1042 q 721 986 621 1042 q 876 813 821 931 q 932 514 932 695 q 876 215 932 333 q 721 42 821 97 q 485 -14 621 -14 m 485 211 q 610 280 568 211 q 651 508 651 348 q 632 690 651 622 q 577 787 613 758 q 485 817 540 817 q 360 748 401 817 q 318 519 318 680 q 337 338 318 406 q 393 241 356 270 q 485 211 429 211 m 586 1435 q 659 1445 627 1435 q 731 1481 690 1455 l 731 1363 q 665 1328 697 1336 q 583 1319 633 1319 q 531 1325 556 1319 q 472 1341 506 1331 q 423 1354 442 1349 q 383 1358 403 1358 q 311 1348 342 1358 q 239 1313 279 1338 l 239 1431 q 306 1466 274 1457 q 386 1475 338 1475 q 440 1469 414 1475 q 498 1453 465 1463 q 549 1439 530 1443 q 586 1435 567 1435 m 372 1290 l 597 1290 l 731 1101 l 553 1101 l 485 1208 l 417 1101 l 239 1101 l 372 1290 z "},"Ȍ":{"ha":969,"x_min":38,"x_max":932,"o":"m 485 -14 q 249 42 349 -14 q 93 215 149 97 q 38 514 38 333 q 93 813 38 695 q 249 986 149 931 q 485 1042 349 1042 q 721 986 621 1042 q 876 813 821 931 q 932 514 932 695 q 876 215 932 333 q 721 42 821 97 q 485 -14 621 -14 m 485 211 q 610 280 568 211 q 651 508 651 348 q 632 690 651 622 q 577 787 613 758 q 485 817 540 817 q 360 748 401 817 q 318 519 318 680 q 337 338 318 406 q 393 241 356 270 q 485 211 429 211 m 232 1101 l 138 1321 l 354 1321 l 438 1101 l 232 1101 m 532 1101 l 438 1321 l 654 1321 l 738 1101 l 532 1101 z "},"Ö":{"ha":969,"x_min":38,"x_max":932,"o":"m 485 -14 q 249 42 349 -14 q 93 215 149 97 q 38 514 38 333 q 93 813 38 695 q 249 986 149 931 q 485 1042 349 1042 q 721 986 621 1042 q 876 813 821 931 q 932 514 932 695 q 876 215 932 333 q 721 42 821 97 q 485 -14 621 -14 m 485 211 q 610 280 568 211 q 651 508 651 348 q 632 690 651 622 q 577 787 613 758 q 485 817 540 817 q 360 748 401 817 q 318 519 318 680 q 337 338 318 406 q 393 241 356 270 q 485 211 429 211 m 311 1090 q 205 1123 242 1090 q 167 1215 167 1155 q 205 1308 167 1276 q 311 1340 242 1340 q 418 1308 380 1340 q 456 1215 456 1276 q 418 1123 456 1155 q 311 1090 380 1090 m 658 1090 q 552 1123 590 1090 q 514 1215 514 1155 q 552 1308 514 1276 q 658 1340 590 1340 q 765 1308 727 1340 q 803 1215 803 1276 q 765 1123 803 1155 q 658 1090 727 1090 z "},"Ȫ":{"ha":969,"x_min":38,"x_max":932,"o":"m 485 -14 q 249 42 349 -14 q 93 215 149 97 q 38 514 38 333 q 93 813 38 695 q 249 986 149 931 q 485 1042 349 1042 q 721 986 621 1042 q 876 813 821 931 q 932 514 932 695 q 876 215 932 333 q 721 42 821 97 q 485 -14 621 -14 m 485 211 q 610 280 568 211 q 651 508 651 348 q 632 690 651 622 q 577 787 613 758 q 485 817 540 817 q 360 748 401 817 q 318 519 318 680 q 337 338 318 406 q 393 241 356 270 q 485 211 429 211 m 311 1090 q 205 1123 242 1090 q 167 1215 167 1155 q 205 1308 167 1276 q 311 1340 242 1340 q 418 1308 380 1340 q 456 1215 456 1276 q 418 1123 456 1155 q 311 1090 380 1090 m 658 1090 q 552 1123 590 1090 q 514 1215 514 1155 q 552 1308 514 1276 q 658 1340 590 1340 q 765 1308 727 1340 q 803 1215 803 1276 q 765 1123 803 1155 q 658 1090 727 1090 m 224 1404 l 224 1575 l 746 1575 l 746 1404 l 224 1404 z "},"Ȱ":{"ha":969,"x_min":38,"x_max":932,"o":"m 485 -14 q 249 42 349 -14 q 93 215 149 97 q 38 514 38 333 q 93 813 38 695 q 249 986 149 931 q 485 1042 349 1042 q 721 986 621 1042 q 876 813 821 931 q 932 514 932 695 q 876 215 932 333 q 721 42 821 97 q 485 -14 621 -14 m 485 211 q 610 280 568 211 q 651 508 651 348 q 632 690 651 622 q 577 787 613 758 q 485 817 540 817 q 360 748 401 817 q 318 519 318 680 q 337 338 318 406 q 393 241 356 270 q 485 211 429 211 m 485 1090 q 364 1122 407 1090 q 321 1215 321 1153 q 364 1309 321 1278 q 485 1340 407 1340 q 606 1309 563 1340 q 649 1215 649 1278 q 606 1122 649 1153 q 485 1090 563 1090 m 224 1404 l 224 1575 l 746 1575 l 746 1404 l 224 1404 z "},"Ọ":{"ha":969,"x_min":38,"x_max":932,"o":"m 485 -14 q 249 42 349 -14 q 93 215 149 97 q 38 514 38 333 q 93 813 38 695 q 249 986 149 931 q 485 1042 349 1042 q 721 986 621 1042 q 876 813 821 931 q 932 514 932 695 q 876 215 932 333 q 721 42 821 97 q 485 -14 621 -14 m 485 211 q 610 280 568 211 q 651 508 651 348 q 632 690 651 622 q 577 787 613 758 q 485 817 540 817 q 360 748 401 817 q 318 519 318 680 q 337 338 318 406 q 393 241 356 270 q 485 211 429 211 m 485 -322 q 364 -291 407 -322 q 321 -197 321 -260 q 364 -103 321 -135 q 485 -72 407 -72 q 606 -103 563 -72 q 649 -197 649 -135 q 606 -291 649 -260 q 485 -322 563 -322 z "},"Ò":{"ha":969,"x_min":38,"x_max":932,"o":"m 485 -14 q 249 42 349 -14 q 93 215 149 97 q 38 514 38 333 q 93 813 38 695 q 249 986 149 931 q 485 1042 349 1042 q 721 986 621 1042 q 876 813 821 931 q 932 514 932 695 q 876 215 932 333 q 721 42 821 97 q 485 -14 621 -14 m 485 211 q 610 280 568 211 q 651 508 651 348 q 632 690 651 622 q 577 787 613 758 q 485 817 540 817 q 360 748 401 817 q 318 519 318 680 q 337 338 318 406 q 393 241 356 270 q 485 211 429 211 m 365 1101 l 214 1321 l 492 1321 l 604 1101 l 365 1101 z "},"Ỏ":{"ha":969,"x_min":38,"x_max":932,"o":"m 485 -14 q 249 42 349 -14 q 93 215 149 97 q 38 514 38 333 q 93 813 38 695 q 249 986 149 931 q 485 1042 349 1042 q 721 986 621 1042 q 876 813 821 931 q 932 514 932 695 q 876 215 932 333 q 721 42 821 97 q 485 -14 621 -14 m 485 211 q 610 280 568 211 q 651 508 651 348 q 632 690 651 622 q 577 787 613 758 q 485 817 540 817 q 360 748 401 817 q 318 519 318 680 q 337 338 318 406 q 393 241 356 270 q 485 211 429 211 m 419 1101 q 442 1158 422 1138 q 495 1194 463 1178 q 516 1206 510 1201 q 522 1215 522 1210 q 506 1233 522 1228 q 457 1239 490 1239 q 395 1235 428 1239 q 335 1225 362 1231 l 335 1325 q 403 1336 360 1332 q 481 1340 446 1340 q 621 1316 577 1340 q 665 1239 665 1292 q 651 1198 665 1213 q 607 1164 637 1183 q 567 1135 581 1149 q 550 1101 553 1122 l 419 1101 z "},"Ơ":{"ha":969,"x_min":38,"x_max":946,"o":"m 946 1119 q 808 917 946 955 q 900 751 868 851 q 932 514 932 650 q 814 115 932 244 q 485 -14 695 -14 q 156 115 274 -14 q 38 514 38 244 q 93 813 38 695 q 249 986 149 931 q 485 1042 349 1042 q 535 1039 510 1042 q 581 1034 560 1037 q 657 1028 626 1028 q 733 1052 708 1028 q 758 1136 758 1077 q 747 1233 758 1185 l 932 1233 q 946 1119 946 1190 m 485 211 q 610 280 568 211 q 651 508 651 348 q 632 690 651 622 q 577 787 613 758 q 485 817 540 817 q 360 748 401 817 q 318 519 318 680 q 337 338 318 406 q 393 241 356 270 q 485 211 429 211 z "},"Ớ":{"ha":969,"x_min":38,"x_max":946,"o":"m 946 1119 q 808 917 946 955 q 900 751 868 851 q 932 514 932 650 q 814 115 932 244 q 485 -14 695 -14 q 156 115 274 -14 q 38 514 38 244 q 93 813 38 695 q 249 986 149 931 q 485 1042 349 1042 q 535 1039 510 1042 q 581 1034 560 1037 q 657 1028 626 1028 q 733 1052 708 1028 q 758 1136 758 1077 q 747 1233 758 1185 l 932 1233 q 946 1119 946 1190 m 485 211 q 610 280 568 211 q 651 508 651 348 q 632 690 651 622 q 577 787 613 758 q 485 817 540 817 q 360 748 401 817 q 318 519 318 680 q 337 338 318 406 q 393 241 356 270 q 485 211 429 211 m 365 1101 l 478 1321 l 756 1321 l 604 1101 l 365 1101 z "},"Ợ":{"ha":969,"x_min":38,"x_max":946,"o":"m 946 1119 q 808 917 946 955 q 900 751 868 851 q 932 514 932 650 q 814 115 932 244 q 485 -14 695 -14 q 156 115 274 -14 q 38 514 38 244 q 93 813 38 695 q 249 986 149 931 q 485 1042 349 1042 q 535 1039 510 1042 q 581 1034 560 1037 q 657 1028 626 1028 q 733 1052 708 1028 q 758 1136 758 1077 q 747 1233 758 1185 l 932 1233 q 946 1119 946 1190 m 485 211 q 610 280 568 211 q 651 508 651 348 q 632 690 651 622 q 577 787 613 758 q 485 817 540 817 q 360 748 401 817 q 318 519 318 680 q 337 338 318 406 q 393 241 356 270 q 485 211 429 211 m 485 -322 q 364 -291 407 -322 q 321 -197 321 -260 q 364 -103 321 -135 q 485 -72 407 -72 q 606 -103 563 -72 q 649 -197 649 -135 q 606 -291 649 -260 q 485 -322 563 -322 z "},"Ờ":{"ha":969,"x_min":38,"x_max":946,"o":"m 946 1119 q 808 917 946 955 q 900 751 868 851 q 932 514 932 650 q 814 115 932 244 q 485 -14 695 -14 q 156 115 274 -14 q 38 514 38 244 q 93 813 38 695 q 249 986 149 931 q 485 1042 349 1042 q 535 1039 510 1042 q 581 1034 560 1037 q 657 1028 626 1028 q 733 1052 708 1028 q 758 1136 758 1077 q 747 1233 758 1185 l 932 1233 q 946 1119 946 1190 m 485 211 q 610 280 568 211 q 651 508 651 348 q 632 690 651 622 q 577 787 613 758 q 485 817 540 817 q 360 748 401 817 q 318 519 318 680 q 337 338 318 406 q 393 241 356 270 q 485 211 429 211 m 365 1101 l 214 1321 l 492 1321 l 604 1101 l 365 1101 z "},"Ở":{"ha":969,"x_min":38,"x_max":946,"o":"m 946 1119 q 808 917 946 955 q 900 751 868 851 q 932 514 932 650 q 814 115 932 244 q 485 -14 695 -14 q 156 115 274 -14 q 38 514 38 244 q 93 813 38 695 q 249 986 149 931 q 485 1042 349 1042 q 535 1039 510 1042 q 581 1034 560 1037 q 657 1028 626 1028 q 733 1052 708 1028 q 758 1136 758 1077 q 747 1233 758 1185 l 932 1233 q 946 1119 946 1190 m 485 211 q 610 280 568 211 q 651 508 651 348 q 632 690 651 622 q 577 787 613 758 q 485 817 540 817 q 360 748 401 817 q 318 519 318 680 q 337 338 318 406 q 393 241 356 270 q 485 211 429 211 m 419 1101 q 442 1158 422 1138 q 495 1194 463 1178 q 516 1206 510 1201 q 522 1215 522 1210 q 506 1233 522 1228 q 457 1239 490 1239 q 395 1235 428 1239 q 335 1225 362 1231 l 335 1325 q 403 1336 360 1332 q 481 1340 446 1340 q 621 1316 577 1340 q 665 1239 665 1292 q 651 1198 665 1213 q 607 1164 637 1183 q 567 1135 581 1149 q 550 1101 553 1122 l 419 1101 z "},"Ỡ":{"ha":969,"x_min":38,"x_max":946,"o":"m 592 1101 q 535 1109 561 1101 q 472 1131 509 1117 q 420 1151 441 1144 q 376 1157 399 1157 q 309 1144 338 1157 q 250 1104 281 1131 l 250 1267 q 306 1308 275 1295 q 379 1321 336 1321 q 435 1313 409 1321 q 497 1290 460 1306 q 551 1270 531 1276 q 593 1264 571 1264 q 660 1277 631 1264 q 719 1317 689 1290 l 719 1154 q 665 1114 694 1126 q 592 1101 635 1101 m 946 1119 q 808 917 946 955 q 900 751 868 851 q 932 514 932 650 q 814 115 932 244 q 485 -14 695 -14 q 156 115 274 -14 q 38 514 38 244 q 93 813 38 695 q 249 986 149 931 q 485 1042 349 1042 q 535 1039 510 1042 q 581 1034 560 1037 q 657 1028 626 1028 q 733 1052 708 1028 q 758 1136 758 1077 q 747 1233 758 1185 l 932 1233 q 946 1119 946 1190 m 485 211 q 610 280 568 211 q 651 508 651 348 q 632 690 651 622 q 577 787 613 758 q 485 817 540 817 q 360 748 401 817 q 318 519 318 680 q 337 338 318 406 q 393 241 356 270 q 485 211 429 211 z "},"Ő":{"ha":969,"x_min":38,"x_max":932,"o":"m 485 -14 q 249 42 349 -14 q 93 215 149 97 q 38 514 38 333 q 93 813 38 695 q 249 986 149 931 q 485 1042 349 1042 q 721 986 621 1042 q 876 813 821 931 q 932 514 932 695 q 876 215 932 333 q 721 42 821 97 q 485 -14 621 -14 m 485 211 q 610 280 568 211 q 651 508 651 348 q 632 690 651 622 q 577 787 613 758 q 485 817 540 817 q 360 748 401 817 q 318 519 318 680 q 337 338 318 406 q 393 241 356 270 q 485 211 429 211 m 232 1101 l 315 1321 l 532 1321 l 438 1101 l 232 1101 m 532 1101 l 615 1321 l 832 1321 l 738 1101 l 532 1101 z "},"Ȏ":{"ha":969,"x_min":38,"x_max":932,"o":"m 485 -14 q 249 42 349 -14 q 93 215 149 97 q 38 514 38 333 q 93 813 38 695 q 249 986 149 931 q 485 1042 349 1042 q 721 986 621 1042 q 876 813 821 931 q 932 514 932 695 q 876 215 932 333 q 721 42 821 97 q 485 -14 621 -14 m 485 211 q 610 280 568 211 q 651 508 651 348 q 632 690 651 622 q 577 787 613 758 q 485 817 540 817 q 360 748 401 817 q 318 519 318 680 q 337 338 318 406 q 393 241 356 270 q 485 211 429 211 m 231 1101 q 307 1264 241 1208 q 485 1321 373 1321 q 663 1264 597 1321 q 739 1101 728 1208 l 578 1101 q 549 1170 572 1149 q 485 1192 526 1192 q 420 1170 443 1192 q 392 1101 398 1149 l 231 1101 z "},"Ō":{"ha":969,"x_min":38,"x_max":932,"o":"m 485 -14 q 249 42 349 -14 q 93 215 149 97 q 38 514 38 333 q 93 813 38 695 q 249 986 149 931 q 485 1042 349 1042 q 721 986 621 1042 q 876 813 821 931 q 932 514 932 695 q 876 215 932 333 q 721 42 821 97 q 485 -14 621 -14 m 485 211 q 610 280 568 211 q 651 508 651 348 q 632 690 651 622 q 577 787 613 758 q 485 817 540 817 q 360 748 401 817 q 318 519 318 680 q 337 338 318 406 q 393 241 356 270 q 485 211 429 211 m 224 1126 l 224 1297 l 746 1297 l 746 1126 l 224 1126 z "},"Ṓ":{"ha":969,"x_min":38,"x_max":932,"o":"m 485 -14 q 249 42 349 -14 q 93 215 149 97 q 38 514 38 333 q 93 813 38 695 q 249 986 149 931 q 485 1042 349 1042 q 721 986 621 1042 q 876 813 821 931 q 932 514 932 695 q 876 215 932 333 q 721 42 821 97 q 485 -14 621 -14 m 485 211 q 610 280 568 211 q 651 508 651 348 q 632 690 651 622 q 577 787 613 758 q 485 817 540 817 q 360 748 401 817 q 318 519 318 680 q 337 338 318 406 q 393 241 356 270 q 485 211 429 211 m 353 1379 l 465 1540 l 768 1540 l 617 1379 l 353 1379 m 224 1126 l 224 1297 l 746 1297 l 746 1126 l 224 1126 z "},"Ṑ":{"ha":969,"x_min":38,"x_max":932,"o":"m 485 -14 q 249 42 349 -14 q 93 215 149 97 q 38 514 38 333 q 93 813 38 695 q 249 986 149 931 q 485 1042 349 1042 q 721 986 621 1042 q 876 813 821 931 q 932 514 932 695 q 876 215 932 333 q 721 42 821 97 q 485 -14 621 -14 m 485 211 q 610 280 568 211 q 651 508 651 348 q 632 690 651 622 q 577 787 613 758 q 485 817 540 817 q 360 748 401 817 q 318 519 318 680 q 337 338 318 406 q 393 241 356 270 q 485 211 429 211 m 353 1379 l 201 1540 l 504 1540 l 617 1379 l 353 1379 m 224 1126 l 224 1297 l 746 1297 l 746 1126 l 224 1126 z "},"Ǫ":{"ha":969,"x_min":38,"x_max":932,"o":"m 485 1042 q 721 986 621 1042 q 876 813 821 931 q 932 514 932 695 q 858 178 932 299 q 663 14 784 58 q 518 -63 561 -23 q 475 -150 475 -103 q 564 -212 475 -212 q 654 -194 606 -212 l 654 -299 q 528 -319 594 -319 q 376 -279 426 -319 q 325 -165 325 -238 q 347 -81 325 -119 q 418 -10 369 -43 q 138 138 238 9 q 38 514 38 267 q 93 813 38 695 q 249 986 149 931 q 485 1042 349 1042 m 485 211 q 610 280 568 211 q 651 508 651 348 q 632 690 651 622 q 577 787 613 758 q 485 817 540 817 q 360 748 401 817 q 318 519 318 680 q 337 338 318 406 q 393 241 356 270 q 485 211 429 211 z "},"Ø":{"ha":969,"x_min":38,"x_max":932,"o":"m 825 897 q 932 514 932 763 q 876 215 932 333 q 721 42 821 97 q 485 -14 621 -14 q 254 39 351 -14 l 200 -43 l 82 36 l 144 131 q 38 514 38 265 q 93 813 38 695 q 249 986 149 931 q 485 1042 349 1042 q 715 989 619 1042 l 769 1071 l 888 992 l 825 897 m 318 519 q 325 401 318 450 l 579 785 q 485 817 543 817 q 360 748 401 817 q 318 519 318 680 m 485 211 q 610 280 568 211 q 651 508 651 348 q 644 626 651 578 l 390 243 q 485 211 426 211 z "},"Ǿ":{"ha":969,"x_min":38,"x_max":932,"o":"m 825 897 q 932 514 932 763 q 876 215 932 333 q 721 42 821 97 q 485 -14 621 -14 q 254 39 351 -14 l 200 -43 l 82 36 l 144 131 q 38 514 38 265 q 93 813 38 695 q 249 986 149 931 q 485 1042 349 1042 q 715 989 619 1042 l 769 1071 l 888 992 l 825 897 m 318 519 q 325 401 318 450 l 579 785 q 485 817 543 817 q 360 748 401 817 q 318 519 318 680 m 485 211 q 610 280 568 211 q 651 508 651 348 q 644 626 651 578 l 390 243 q 485 211 426 211 m 367 1101 l 479 1321 l 757 1321 l 606 1101 l 367 1101 z "},"Õ":{"ha":969,"x_min":38,"x_max":932,"o":"m 485 -14 q 249 42 349 -14 q 93 215 149 97 q 38 514 38 333 q 93 813 38 695 q 249 986 149 931 q 485 1042 349 1042 q 721 986 621 1042 q 876 813 821 931 q 932 514 932 695 q 876 215 932 333 q 721 42 821 97 q 485 -14 621 -14 m 485 211 q 610 280 568 211 q 651 508 651 348 q 632 690 651 622 q 577 787 613 758 q 485 817 540 817 q 360 748 401 817 q 318 519 318 680 q 337 338 318 406 q 393 241 356 270 q 485 211 429 211 m 603 1101 q 541 1109 569 1101 q 472 1131 512 1117 q 413 1150 438 1144 q 364 1157 389 1157 q 290 1144 322 1157 q 224 1104 258 1131 l 224 1267 q 286 1308 252 1295 q 367 1321 319 1321 q 428 1313 400 1321 q 498 1290 456 1306 q 557 1270 534 1277 q 606 1264 581 1264 q 680 1277 648 1264 q 746 1317 712 1290 l 746 1154 q 684 1114 718 1126 q 603 1101 651 1101 z "},"Ṍ":{"ha":969,"x_min":38,"x_max":932,"o":"m 485 -14 q 249 42 349 -14 q 93 215 149 97 q 38 514 38 333 q 93 813 38 695 q 249 986 149 931 q 485 1042 349 1042 q 721 986 621 1042 q 876 813 821 931 q 932 514 932 695 q 876 215 932 333 q 721 42 821 97 q 485 -14 621 -14 m 485 211 q 610 280 568 211 q 651 508 651 348 q 632 690 651 622 q 577 787 613 758 q 485 817 540 817 q 360 748 401 817 q 318 519 318 680 q 337 338 318 406 q 393 241 356 270 q 485 211 429 211 m 353 1379 l 465 1540 l 768 1540 l 617 1379 l 353 1379 m 603 1101 q 541 1109 569 1101 q 472 1131 512 1117 q 413 1150 438 1144 q 364 1157 389 1157 q 290 1144 322 1157 q 224 1104 258 1131 l 224 1267 q 286 1308 252 1295 q 367 1321 319 1321 q 428 1313 400 1321 q 498 1290 456 1306 q 557 1270 534 1277 q 606 1264 581 1264 q 680 1277 648 1264 q 746 1317 712 1290 l 746 1154 q 684 1114 718 1126 q 603 1101 651 1101 z "},"Ṏ":{"ha":969,"x_min":38,"x_max":932,"o":"m 485 -14 q 249 42 349 -14 q 93 215 149 97 q 38 514 38 333 q 93 813 38 695 q 249 986 149 931 q 485 1042 349 1042 q 721 986 621 1042 q 876 813 821 931 q 932 514 932 695 q 876 215 932 333 q 721 42 821 97 q 485 -14 621 -14 m 485 211 q 610 280 568 211 q 651 508 651 348 q 632 690 651 622 q 577 787 613 758 q 485 817 540 817 q 360 748 401 817 q 318 519 318 680 q 337 338 318 406 q 393 241 356 270 q 485 211 429 211 m 603 1101 q 541 1109 569 1101 q 472 1131 512 1117 q 413 1150 438 1144 q 364 1157 389 1157 q 290 1144 322 1157 q 224 1104 258 1131 l 224 1267 q 286 1308 252 1295 q 367 1321 319 1321 q 428 1313 400 1321 q 498 1290 456 1306 q 557 1270 534 1277 q 606 1264 581 1264 q 680 1277 648 1264 q 746 1317 712 1290 l 746 1154 q 684 1114 718 1126 q 603 1101 651 1101 m 311 1368 q 205 1400 242 1368 q 167 1493 167 1433 q 205 1586 167 1553 q 311 1618 242 1618 q 418 1586 380 1618 q 456 1493 456 1553 q 418 1400 456 1433 q 311 1368 380 1368 m 658 1368 q 552 1400 590 1368 q 514 1493 514 1433 q 552 1586 514 1553 q 658 1618 590 1618 q 765 1586 727 1618 q 803 1493 803 1553 q 765 1400 803 1433 q 658 1368 727 1368 z "},"Ȭ":{"ha":969,"x_min":38,"x_max":932,"o":"m 485 -14 q 249 42 349 -14 q 93 215 149 97 q 38 514 38 333 q 93 813 38 695 q 249 986 149 931 q 485 1042 349 1042 q 721 986 621 1042 q 876 813 821 931 q 932 514 932 695 q 876 215 932 333 q 721 42 821 97 q 485 -14 621 -14 m 485 211 q 610 280 568 211 q 651 508 651 348 q 632 690 651 622 q 577 787 613 758 q 485 817 540 817 q 360 748 401 817 q 318 519 318 680 q 337 338 318 406 q 393 241 356 270 q 485 211 429 211 m 603 1101 q 541 1109 569 1101 q 472 1131 512 1117 q 413 1150 438 1144 q 364 1157 389 1157 q 290 1144 322 1157 q 224 1104 258 1131 l 224 1267 q 286 1308 252 1295 q 367 1321 319 1321 q 428 1313 400 1321 q 498 1290 456 1306 q 557 1270 534 1277 q 606 1264 581 1264 q 680 1277 648 1264 q 746 1317 712 1290 l 746 1154 q 684 1114 718 1126 q 603 1101 651 1101 m 224 1404 l 224 1575 l 746 1575 l 746 1404 l 224 1404 z "},"Œ":{"ha":1294,"x_min":38,"x_max":1254,"o":"m 1254 232 l 1254 0 l 763 0 q 663 -3 722 0 q 615 -6 649 -4 q 557 -7 581 -7 q 168 122 299 -7 q 38 514 38 251 q 177 906 38 777 q 571 1035 316 1035 q 626 1033 595 1035 q 670 1031 658 1032 q 763 1028 724 1028 l 1247 1028 l 1247 796 l 857 796 l 857 640 l 1175 640 l 1175 408 l 857 408 l 857 232 l 1254 232 m 589 807 q 519 808 558 808 q 409 781 453 808 q 342 689 365 753 q 318 514 318 624 q 342 338 318 403 q 409 245 365 273 q 519 218 453 218 q 589 219 558 218 l 589 807 z "},"P":{"ha":846,"x_min":61,"x_max":814,"o":"m 61 1007 q 368 1042 219 1042 q 703 948 592 1042 q 814 657 814 855 q 706 372 814 469 q 399 274 599 274 l 364 274 q 333 275 354 275 l 333 0 l 61 0 l 61 1007 m 401 492 q 514 529 478 492 q 550 654 550 567 q 512 783 550 743 q 394 824 474 824 q 333 818 358 824 l 333 496 q 401 492 365 492 z "},"Þ":{"ha":853,"x_min":61,"x_max":814,"o":"m 61 1028 l 333 1028 l 333 911 l 352 912 q 371 913 359 913 q 703 819 593 913 q 814 528 814 726 q 708 242 814 339 q 401 144 601 144 l 365 145 q 333 146 354 146 l 333 0 l 61 0 l 61 1028 m 401 363 q 514 400 478 363 q 550 525 550 438 q 512 654 550 614 q 394 694 474 694 q 333 689 358 694 l 333 367 q 401 363 365 363 z "},"Q":{"ha":969,"x_min":38,"x_max":932,"o":"m 932 514 q 862 199 932 321 q 660 36 792 77 q 915 -25 794 -8 l 864 -246 q 376 -83 558 -187 q 116 167 194 20 q 38 514 38 313 q 93 813 38 695 q 249 986 149 931 q 485 1042 349 1042 q 721 986 621 1042 q 876 813 821 931 q 932 514 932 695 m 318 519 q 337 338 318 406 q 393 241 356 270 q 485 211 429 211 q 610 280 568 211 q 651 508 651 348 q 632 690 651 622 q 577 787 613 758 q 485 817 540 817 q 360 748 401 817 q 318 519 318 680 z "},"R":{"ha":883,"x_min":61,"x_max":885,"o":"m 596 0 l 390 349 q 329 350 344 350 l 329 0 l 61 0 l 61 1007 q 372 1042 219 1042 q 702 956 592 1042 q 811 694 811 869 q 767 516 811 591 q 641 399 722 442 l 885 0 l 596 0 m 329 565 q 406 561 367 561 q 517 592 479 561 q 554 694 554 623 q 517 798 554 764 q 411 832 480 832 q 329 825 366 832 l 329 565 z "},"Ŕ":{"ha":883,"x_min":61,"x_max":885,"o":"m 596 0 l 390 349 q 329 350 344 350 l 329 0 l 61 0 l 61 1007 q 372 1042 219 1042 q 702 956 592 1042 q 811 694 811 869 q 767 516 811 591 q 641 399 722 442 l 885 0 l 596 0 m 329 565 q 406 561 367 561 q 517 592 479 561 q 554 694 554 623 q 517 798 554 764 q 411 832 480 832 q 329 825 366 832 l 329 565 m 313 1101 l 425 1321 l 703 1321 l 551 1101 l 313 1101 z "},"Ř":{"ha":883,"x_min":61,"x_max":885,"o":"m 596 0 l 390 349 q 329 350 344 350 l 329 0 l 61 0 l 61 1007 q 372 1042 219 1042 q 702 956 592 1042 q 811 694 811 869 q 767 516 811 591 q 641 399 722 442 l 885 0 l 596 0 m 329 565 q 406 561 367 561 q 517 592 479 561 q 554 694 554 623 q 517 798 554 764 q 411 832 480 832 q 329 825 366 832 l 329 565 m 500 1321 l 678 1321 l 544 1101 l 319 1101 l 186 1321 l 364 1321 l 432 1197 l 500 1321 z "},"Ŗ":{"ha":883,"x_min":61,"x_max":885,"o":"m 596 0 l 390 349 q 329 350 344 350 l 329 0 l 61 0 l 61 1007 q 372 1042 219 1042 q 702 956 592 1042 q 811 694 811 869 q 767 516 811 591 q 641 399 722 442 l 885 0 l 596 0 m 329 565 q 406 561 367 561 q 517 592 479 561 q 554 694 554 623 q 517 798 554 764 q 411 832 480 832 q 329 825 366 832 l 329 565 m 474 -72 q 618 -193 618 -72 q 600 -280 618 -233 q 557 -358 583 -326 l 388 -358 q 416 -300 406 -324 q 431 -254 426 -276 q 354 -224 379 -248 q 329 -164 329 -201 q 365 -96 329 -119 q 474 -72 400 -72 z "},"Ȑ":{"ha":883,"x_min":61,"x_max":885,"o":"m 596 0 l 390 349 q 329 350 344 350 l 329 0 l 61 0 l 61 1007 q 372 1042 219 1042 q 702 956 592 1042 q 811 694 811 869 q 767 516 811 591 q 641 399 722 442 l 885 0 l 596 0 m 329 565 q 406 561 367 561 q 517 592 479 561 q 554 694 554 623 q 517 798 554 764 q 411 832 480 832 q 329 825 366 832 l 329 565 m 179 1101 l 85 1321 l 301 1321 l 385 1101 l 179 1101 m 479 1101 l 385 1321 l 601 1321 l 685 1101 l 479 1101 z "},"Ṛ":{"ha":883,"x_min":61,"x_max":885,"o":"m 596 0 l 390 349 q 329 350 344 350 l 329 0 l 61 0 l 61 1007 q 372 1042 219 1042 q 702 956 592 1042 q 811 694 811 869 q 767 516 811 591 q 641 399 722 442 l 885 0 l 596 0 m 329 565 q 406 561 367 561 q 517 592 479 561 q 554 694 554 623 q 517 798 554 764 q 411 832 480 832 q 329 825 366 832 l 329 565 m 474 -322 q 353 -291 396 -322 q 310 -197 310 -260 q 353 -103 310 -135 q 474 -72 396 -72 q 594 -103 551 -72 q 638 -197 638 -135 q 594 -291 638 -260 q 474 -322 551 -322 z "},"Ȓ":{"ha":883,"x_min":61,"x_max":885,"o":"m 596 0 l 390 349 q 329 350 344 350 l 329 0 l 61 0 l 61 1007 q 372 1042 219 1042 q 702 956 592 1042 q 811 694 811 869 q 767 516 811 591 q 641 399 722 442 l 885 0 l 596 0 m 329 565 q 406 561 367 561 q 517 592 479 561 q 554 694 554 623 q 517 798 554 764 q 411 832 480 832 q 329 825 366 832 l 329 565 m 178 1101 q 254 1264 188 1208 q 432 1321 320 1321 q 610 1264 544 1321 q 686 1101 676 1208 l 525 1101 q 496 1170 519 1149 q 432 1192 474 1192 q 368 1170 390 1192 q 339 1101 345 1149 l 178 1101 z "},"Ṟ":{"ha":883,"x_min":61,"x_max":885,"o":"m 596 0 l 390 349 q 329 350 344 350 l 329 0 l 61 0 l 61 1007 q 372 1042 219 1042 q 702 956 592 1042 q 811 694 811 869 q 767 516 811 591 q 641 399 722 442 l 885 0 l 596 0 m 329 565 q 406 561 367 561 q 517 592 479 561 q 554 694 554 623 q 517 798 554 764 q 411 832 480 832 q 329 825 366 832 l 329 565 m 213 -275 l 213 -104 l 735 -104 l 735 -275 l 213 -275 z "},"S":{"ha":729,"x_min":14,"x_max":715,"o":"m 310 -14 q 173 -2 245 -14 q 46 29 101 9 l 46 256 q 303 214 181 214 q 409 234 376 214 q 442 292 442 255 q 432 326 442 311 q 399 353 423 340 q 331 382 376 367 l 247 410 q 77 521 141 446 q 14 711 14 596 q 60 889 14 815 q 201 1002 107 963 q 433 1042 294 1042 q 555 1034 497 1042 q 658 1014 613 1027 l 658 788 q 565 807 617 800 q 463 814 514 814 q 288 732 288 814 q 295 701 288 714 q 323 676 303 688 q 382 651 343 665 l 465 624 q 651 510 586 584 q 715 317 715 437 q 667 141 715 216 q 528 26 619 67 q 310 -14 437 -14 z "},"Ś":{"ha":729,"x_min":14,"x_max":715,"o":"m 310 -14 q 173 -2 245 -14 q 46 29 101 9 l 46 256 q 303 214 181 214 q 409 234 376 214 q 442 292 442 255 q 432 326 442 311 q 399 353 423 340 q 331 382 376 367 l 247 410 q 77 521 141 446 q 14 711 14 596 q 60 889 14 815 q 201 1002 107 963 q 433 1042 294 1042 q 555 1034 497 1042 q 658 1014 613 1027 l 658 788 q 565 807 617 800 q 463 814 514 814 q 288 732 288 814 q 295 701 288 714 q 323 676 303 688 q 382 651 343 665 l 465 624 q 651 510 586 584 q 715 317 715 437 q 667 141 715 216 q 528 26 619 67 q 310 -14 437 -14 m 253 1101 l 365 1321 l 643 1321 l 492 1101 l 253 1101 z "},"Ṥ":{"ha":729,"x_min":14,"x_max":715,"o":"m 310 -14 q 173 -2 245 -14 q 46 29 101 9 l 46 256 q 303 214 181 214 q 409 234 376 214 q 442 292 442 255 q 432 326 442 311 q 399 353 423 340 q 331 382 376 367 l 247 410 q 77 521 141 446 q 14 711 14 596 q 60 889 14 815 q 201 1002 107 963 q 433 1042 294 1042 q 555 1034 497 1042 q 658 1014 613 1027 l 658 788 q 565 807 617 800 q 463 814 514 814 q 288 732 288 814 q 295 701 288 714 q 323 676 303 688 q 382 651 343 665 l 465 624 q 651 510 586 584 q 715 317 715 437 q 667 141 715 216 q 528 26 619 67 q 310 -14 437 -14 m 164 1293 q 68 1318 102 1293 q 33 1393 33 1343 q 68 1468 33 1443 q 164 1493 102 1493 q 260 1468 226 1493 q 294 1393 294 1443 q 260 1318 294 1343 q 164 1293 226 1293 m 253 1101 l 365 1321 l 643 1321 l 492 1101 l 253 1101 z "},"Š":{"ha":729,"x_min":14,"x_max":715,"o":"m 310 -14 q 173 -2 245 -14 q 46 29 101 9 l 46 256 q 303 214 181 214 q 409 234 376 214 q 442 292 442 255 q 432 326 442 311 q 399 353 423 340 q 331 382 376 367 l 247 410 q 77 521 141 446 q 14 711 14 596 q 60 889 14 815 q 201 1002 107 963 q 433 1042 294 1042 q 555 1034 497 1042 q 658 1014 613 1027 l 658 788 q 565 807 617 800 q 463 814 514 814 q 288 732 288 814 q 295 701 288 714 q 323 676 303 688 q 382 651 343 665 l 465 624 q 651 510 586 584 q 715 317 715 437 q 667 141 715 216 q 528 26 619 67 q 310 -14 437 -14 m 440 1321 l 618 1321 l 485 1101 l 260 1101 l 126 1321 l 304 1321 l 372 1197 l 440 1321 z "},"Ṧ":{"ha":729,"x_min":14,"x_max":715,"o":"m 310 -14 q 173 -2 245 -14 q 46 29 101 9 l 46 256 q 303 214 181 214 q 409 234 376 214 q 442 292 442 255 q 432 326 442 311 q 399 353 423 340 q 331 382 376 367 l 247 410 q 77 521 141 446 q 14 711 14 596 q 60 889 14 815 q 201 1002 107 963 q 433 1042 294 1042 q 555 1034 497 1042 q 658 1014 613 1027 l 658 788 q 565 807 617 800 q 463 814 514 814 q 288 732 288 814 q 295 701 288 714 q 323 676 303 688 q 382 651 343 665 l 465 624 q 651 510 586 584 q 715 317 715 437 q 667 141 715 216 q 528 26 619 67 q 310 -14 437 -14 m 372 1349 q 276 1374 310 1349 q 242 1449 242 1399 q 276 1524 242 1499 q 372 1549 310 1549 q 468 1524 434 1549 q 503 1449 503 1499 q 468 1374 503 1399 q 372 1349 434 1349 m 440 1321 l 618 1321 l 485 1101 l 260 1101 l 126 1321 l 304 1321 l 372 1197 l 440 1321 z "},"Ş":{"ha":729,"x_min":14,"x_max":715,"o":"m 715 317 q 681 164 715 231 q 579 54 646 97 q 418 -6 512 10 l 418 -55 q 510 -98 478 -65 q 542 -182 542 -130 q 336 -319 542 -319 q 204 -301 263 -319 l 204 -197 q 262 -211 230 -206 q 321 -215 294 -215 q 380 -205 362 -215 q 399 -171 399 -195 q 318 -124 399 -124 l 289 -124 l 289 -14 q 161 -1 226 -12 q 46 29 96 10 l 46 256 q 303 214 181 214 q 409 234 376 214 q 442 292 442 255 q 432 326 442 311 q 399 353 423 340 q 331 382 376 367 l 247 410 q 77 521 141 446 q 14 711 14 596 q 60 889 14 815 q 201 1002 107 963 q 433 1042 294 1042 q 555 1034 497 1042 q 658 1014 613 1027 l 658 788 q 565 807 617 800 q 463 814 514 814 q 288 732 288 814 q 295 701 288 714 q 323 676 303 688 q 382 651 343 665 l 465 624 q 651 510 586 584 q 715 317 715 437 z "},"Ŝ":{"ha":729,"x_min":14,"x_max":715,"o":"m 310 -14 q 173 -2 245 -14 q 46 29 101 9 l 46 256 q 303 214 181 214 q 409 234 376 214 q 442 292 442 255 q 432 326 442 311 q 399 353 423 340 q 331 382 376 367 l 247 410 q 77 521 141 446 q 14 711 14 596 q 60 889 14 815 q 201 1002 107 963 q 433 1042 294 1042 q 555 1034 497 1042 q 658 1014 613 1027 l 658 788 q 565 807 617 800 q 463 814 514 814 q 288 732 288 814 q 295 701 288 714 q 323 676 303 688 q 382 651 343 665 l 465 624 q 651 510 586 584 q 715 317 715 437 q 667 141 715 216 q 528 26 619 67 q 310 -14 437 -14 m 618 1101 l 440 1101 l 372 1225 l 304 1101 l 126 1101 l 260 1321 l 485 1321 l 618 1101 z "},"Ș":{"ha":729,"x_min":14,"x_max":715,"o":"m 310 -14 q 173 -2 245 -14 q 46 29 101 9 l 46 256 q 303 214 181 214 q 409 234 376 214 q 442 292 442 255 q 432 326 442 311 q 399 353 423 340 q 331 382 376 367 l 247 410 q 77 521 141 446 q 14 711 14 596 q 60 889 14 815 q 201 1002 107 963 q 433 1042 294 1042 q 555 1034 497 1042 q 658 1014 613 1027 l 658 788 q 565 807 617 800 q 463 814 514 814 q 288 732 288 814 q 295 701 288 714 q 323 676 303 688 q 382 651 343 665 l 465 624 q 651 510 586 584 q 715 317 715 437 q 667 141 715 216 q 528 26 619 67 q 310 -14 437 -14 m 372 -72 q 517 -193 517 -72 q 499 -280 517 -233 q 456 -358 481 -326 l 286 -358 q 315 -300 304 -324 q 329 -254 325 -276 q 253 -224 278 -248 q 228 -164 228 -201 q 263 -96 228 -119 q 372 -72 299 -72 z "},"Ṡ":{"ha":729,"x_min":14,"x_max":715,"o":"m 310 -14 q 173 -2 245 -14 q 46 29 101 9 l 46 256 q 303 214 181 214 q 409 234 376 214 q 442 292 442 255 q 432 326 442 311 q 399 353 423 340 q 331 382 376 367 l 247 410 q 77 521 141 446 q 14 711 14 596 q 60 889 14 815 q 201 1002 107 963 q 433 1042 294 1042 q 555 1034 497 1042 q 658 1014 613 1027 l 658 788 q 565 807 617 800 q 463 814 514 814 q 288 732 288 814 q 295 701 288 714 q 323 676 303 688 q 382 651 343 665 l 465 624 q 651 510 586 584 q 715 317 715 437 q 667 141 715 216 q 528 26 619 67 q 310 -14 437 -14 m 372 1090 q 251 1122 294 1090 q 208 1215 208 1153 q 251 1309 208 1278 q 372 1340 294 1340 q 493 1309 450 1340 q 536 1215 536 1278 q 493 1122 536 1153 q 372 1090 450 1090 z "},"Ṣ":{"ha":729,"x_min":14,"x_max":715,"o":"m 310 -14 q 173 -2 245 -14 q 46 29 101 9 l 46 256 q 303 214 181 214 q 409 234 376 214 q 442 292 442 255 q 432 326 442 311 q 399 353 423 340 q 331 382 376 367 l 247 410 q 77 521 141 446 q 14 711 14 596 q 60 889 14 815 q 201 1002 107 963 q 433 1042 294 1042 q 555 1034 497 1042 q 658 1014 613 1027 l 658 788 q 565 807 617 800 q 463 814 514 814 q 288 732 288 814 q 295 701 288 714 q 323 676 303 688 q 382 651 343 665 l 465 624 q 651 510 586 584 q 715 317 715 437 q 667 141 715 216 q 528 26 619 67 q 310 -14 437 -14 m 372 -322 q 251 -291 294 -322 q 208 -197 208 -260 q 251 -103 208 -135 q 372 -72 294 -72 q 493 -103 450 -72 q 536 -197 536 -135 q 493 -291 536 -260 q 372 -322 450 -322 z "},"Ṩ":{"ha":729,"x_min":14,"x_max":715,"o":"m 310 -14 q 173 -2 245 -14 q 46 29 101 9 l 46 256 q 303 214 181 214 q 409 234 376 214 q 442 292 442 255 q 432 326 442 311 q 399 353 423 340 q 331 382 376 367 l 247 410 q 77 521 141 446 q 14 711 14 596 q 60 889 14 815 q 201 1002 107 963 q 433 1042 294 1042 q 555 1034 497 1042 q 658 1014 613 1027 l 658 788 q 565 807 617 800 q 463 814 514 814 q 288 732 288 814 q 295 701 288 714 q 323 676 303 688 q 382 651 343 665 l 465 624 q 651 510 586 584 q 715 317 715 437 q 667 141 715 216 q 528 26 619 67 q 310 -14 437 -14 m 372 -322 q 251 -291 294 -322 q 208 -197 208 -260 q 251 -103 208 -135 q 372 -72 294 -72 q 493 -103 450 -72 q 536 -197 536 -135 q 493 -291 536 -260 q 372 -322 450 -322 m 372 1090 q 251 1122 294 1090 q 208 1215 208 1153 q 251 1309 208 1278 q 372 1340 294 1340 q 493 1309 450 1340 q 536 1215 536 1278 q 493 1122 536 1153 q 372 1090 450 1090 z "},"ẞ":{"ha":1153,"x_min":61,"x_max":1139,"o":"m 899 624 q 1077 510 1015 584 q 1139 317 1139 437 q 1092 141 1139 216 q 956 26 1046 67 q 742 -14 867 -14 q 615 -3 684 -14 q 496 26 547 8 l 496 253 q 616 225 553 235 q 735 214 678 214 q 836 234 804 214 q 868 292 868 255 q 847 342 868 322 q 769 382 826 363 l 689 410 q 525 520 587 444 q 464 711 464 596 q 476 812 464 766 q 438 818 458 818 q 360 789 388 818 q 333 699 333 759 l 333 0 l 61 0 l 61 664 q 157 944 61 846 q 438 1042 252 1042 q 647 1001 563 1042 q 881 1042 742 1042 q 987 1035 934 1042 q 1085 1018 1040 1029 l 1085 792 q 996 808 1044 802 q 907 814 948 814 q 736 732 736 814 q 753 686 736 704 q 818 651 770 668 l 899 624 z "},"Ə":{"ha":951,"x_min":31,"x_max":914,"o":"m 369 1042 q 778 908 643 1042 q 914 500 914 775 q 857 216 914 331 q 702 43 801 100 q 478 -14 603 -14 q 246 40 347 -14 q 88 210 145 94 q 31 500 31 325 l 31 596 l 637 596 q 591 729 626 680 q 496 799 556 778 q 342 819 435 819 q 216 811 282 819 q 94 789 150 803 l 94 1013 q 228 1034 155 1026 q 369 1042 302 1042 m 479 206 q 561 223 528 206 q 613 280 593 240 q 639 392 632 321 l 315 392 q 341 282 322 323 q 394 224 360 242 q 479 206 427 206 z "},"T":{"ha":824,"x_min":3,"x_max":821,"o":"m 275 0 l 275 788 l 3 788 l 3 1028 l 821 1028 l 821 788 l 549 788 l 549 0 l 275 0 z "},"Ŧ":{"ha":824,"x_min":3,"x_max":821,"o":"m 821 788 l 549 788 l 549 576 l 718 576 l 718 396 l 549 396 l 549 0 l 275 0 l 275 396 l 107 396 l 107 576 l 275 576 l 275 788 l 3 788 l 3 1028 l 821 1028 l 821 788 z "},"Ť":{"ha":824,"x_min":3,"x_max":821,"o":"m 275 0 l 275 788 l 3 788 l 3 1028 l 821 1028 l 821 788 l 549 788 l 549 0 l 275 0 m 481 1321 l 658 1321 l 525 1101 l 300 1101 l 167 1321 l 344 1321 l 413 1197 l 481 1321 z "},"Ţ":{"ha":824,"x_min":3,"x_max":821,"o":"m 458 0 l 458 -55 q 550 -98 519 -65 q 582 -182 582 -130 q 376 -319 582 -319 q 244 -301 303 -319 l 244 -197 q 302 -211 270 -206 q 361 -215 335 -215 q 420 -205 402 -215 q 439 -171 439 -195 q 358 -124 439 -124 l 329 -124 l 329 0 l 275 0 l 275 788 l 3 788 l 3 1028 l 821 1028 l 821 788 l 549 788 l 549 0 l 458 0 z "},"Ț":{"ha":824,"x_min":3,"x_max":821,"o":"m 275 0 l 275 788 l 3 788 l 3 1028 l 821 1028 l 821 788 l 549 788 l 549 0 l 275 0 m 413 -72 q 557 -193 557 -72 q 539 -280 557 -233 q 496 -358 522 -326 l 326 -358 q 355 -300 344 -324 q 369 -254 365 -276 q 293 -224 318 -248 q 268 -164 268 -201 q 303 -96 268 -119 q 413 -72 339 -72 z "},"Ṭ":{"ha":824,"x_min":3,"x_max":821,"o":"m 275 0 l 275 788 l 3 788 l 3 1028 l 821 1028 l 821 788 l 549 788 l 549 0 l 275 0 m 413 -322 q 292 -291 335 -322 q 249 -197 249 -260 q 292 -103 249 -135 q 413 -72 335 -72 q 533 -103 490 -72 q 576 -197 576 -135 q 533 -291 576 -260 q 413 -322 490 -322 z "},"Ṯ":{"ha":824,"x_min":3,"x_max":821,"o":"m 275 0 l 275 788 l 3 788 l 3 1028 l 821 1028 l 821 788 l 549 788 l 549 0 l 275 0 m 151 -275 l 151 -104 l 674 -104 l 674 -275 l 151 -275 z "},"U":{"ha":929,"x_min":57,"x_max":872,"o":"m 468 -14 q 239 31 329 -14 q 102 170 148 75 q 57 419 57 266 l 57 1028 l 329 1028 l 329 389 q 365 254 329 294 q 468 214 400 214 q 571 254 536 214 q 606 389 606 294 l 606 1028 l 872 1028 l 872 419 q 828 170 872 265 q 694 30 783 74 q 468 -14 606 -14 z "},"Ú":{"ha":929,"x_min":57,"x_max":872,"o":"m 468 -14 q 239 31 329 -14 q 102 170 148 75 q 57 419 57 266 l 57 1028 l 329 1028 l 329 389 q 365 254 329 294 q 468 214 400 214 q 571 254 536 214 q 606 389 606 294 l 606 1028 l 872 1028 l 872 419 q 828 170 872 265 q 694 30 783 74 q 468 -14 606 -14 m 349 1101 l 461 1321 l 739 1321 l 588 1101 l 349 1101 z "},"Ŭ":{"ha":929,"x_min":57,"x_max":872,"o":"m 468 -14 q 239 31 329 -14 q 102 170 148 75 q 57 419 57 266 l 57 1028 l 329 1028 l 329 389 q 365 254 329 294 q 468 214 400 214 q 571 254 536 214 q 606 389 606 294 l 606 1028 l 872 1028 l 872 419 q 828 170 872 265 q 694 30 783 74 q 468 -14 606 -14 m 468 1101 q 290 1158 356 1101 q 214 1321 224 1215 l 375 1321 q 404 1252 381 1273 q 468 1231 426 1231 q 532 1252 510 1231 q 561 1321 555 1273 l 722 1321 q 646 1158 712 1215 q 468 1101 580 1101 z "},"Û":{"ha":929,"x_min":57,"x_max":872,"o":"m 468 -14 q 239 31 329 -14 q 102 170 148 75 q 57 419 57 266 l 57 1028 l 329 1028 l 329 389 q 365 254 329 294 q 468 214 400 214 q 571 254 536 214 q 606 389 606 294 l 606 1028 l 872 1028 l 872 419 q 828 170 872 265 q 694 30 783 74 q 468 -14 606 -14 m 714 1101 l 536 1101 l 468 1225 l 400 1101 l 222 1101 l 356 1321 l 581 1321 l 714 1101 z "},"Ȕ":{"ha":929,"x_min":57,"x_max":872,"o":"m 468 -14 q 239 31 329 -14 q 102 170 148 75 q 57 419 57 266 l 57 1028 l 329 1028 l 329 389 q 365 254 329 294 q 468 214 400 214 q 571 254 536 214 q 606 389 606 294 l 606 1028 l 872 1028 l 872 419 q 828 170 872 265 q 694 30 783 74 q 468 -14 606 -14 m 215 1101 l 121 1321 l 338 1321 l 421 1101 l 215 1101 m 515 1101 l 421 1321 l 638 1321 l 721 1101 l 515 1101 z "},"Ü":{"ha":929,"x_min":57,"x_max":872,"o":"m 468 -14 q 239 31 329 -14 q 102 170 148 75 q 57 419 57 266 l 57 1028 l 329 1028 l 329 389 q 365 254 329 294 q 468 214 400 214 q 571 254 536 214 q 606 389 606 294 l 606 1028 l 872 1028 l 872 419 q 828 170 872 265 q 694 30 783 74 q 468 -14 606 -14 m 294 1090 q 188 1123 226 1090 q 150 1215 150 1155 q 188 1308 150 1276 q 294 1340 226 1340 q 401 1308 363 1340 q 439 1215 439 1276 q 401 1123 439 1155 q 294 1090 363 1090 m 642 1090 q 535 1123 573 1090 q 497 1215 497 1155 q 535 1308 497 1276 q 642 1340 573 1340 q 748 1308 710 1340 q 786 1215 786 1276 q 748 1123 786 1155 q 642 1090 710 1090 z "},"Ụ":{"ha":929,"x_min":57,"x_max":872,"o":"m 468 -14 q 239 31 329 -14 q 102 170 148 75 q 57 419 57 266 l 57 1028 l 329 1028 l 329 389 q 365 254 329 294 q 468 214 400 214 q 571 254 536 214 q 606 389 606 294 l 606 1028 l 872 1028 l 872 419 q 828 170 872 265 q 694 30 783 74 q 468 -14 606 -14 m 468 -322 q 347 -291 390 -322 q 304 -197 304 -260 q 347 -103 304 -135 q 468 -72 390 -72 q 589 -103 546 -72 q 632 -197 632 -135 q 589 -291 632 -260 q 468 -322 546 -322 z "},"Ù":{"ha":929,"x_min":57,"x_max":872,"o":"m 468 -14 q 239 31 329 -14 q 102 170 148 75 q 57 419 57 266 l 57 1028 l 329 1028 l 329 389 q 365 254 329 294 q 468 214 400 214 q 571 254 536 214 q 606 389 606 294 l 606 1028 l 872 1028 l 872 419 q 828 170 872 265 q 694 30 783 74 q 468 -14 606 -14 m 349 1101 l 197 1321 l 475 1321 l 588 1101 l 349 1101 z "},"Ủ":{"ha":929,"x_min":57,"x_max":872,"o":"m 468 -14 q 239 31 329 -14 q 102 170 148 75 q 57 419 57 266 l 57 1028 l 329 1028 l 329 389 q 365 254 329 294 q 468 214 400 214 q 571 254 536 214 q 606 389 606 294 l 606 1028 l 872 1028 l 872 419 q 828 170 872 265 q 694 30 783 74 q 468 -14 606 -14 m 403 1101 q 425 1158 405 1138 q 478 1194 446 1178 q 499 1206 493 1201 q 506 1215 506 1210 q 490 1233 506 1228 q 440 1239 474 1239 q 378 1235 411 1239 q 318 1225 345 1231 l 318 1325 q 386 1336 344 1332 q 464 1340 429 1340 q 605 1316 560 1340 q 649 1239 649 1292 q 634 1198 649 1213 q 590 1164 620 1183 q 551 1135 565 1149 q 533 1101 537 1122 l 403 1101 z "},"Ư":{"ha":936,"x_min":57,"x_max":988,"o":"m 468 -14 q 239 31 329 -14 q 102 170 148 75 q 57 419 57 266 l 57 1028 l 329 1028 l 329 389 q 365 254 329 294 q 468 214 400 214 q 571 254 536 214 q 606 389 606 294 l 606 1028 l 699 1028 q 775 1052 750 1028 q 800 1136 800 1077 q 789 1233 800 1185 l 974 1233 q 988 1119 988 1190 q 957 994 988 1042 q 872 925 927 946 l 872 419 q 828 170 872 265 q 694 30 783 74 q 468 -14 606 -14 z "},"Ứ":{"ha":936,"x_min":57,"x_max":988,"o":"m 468 -14 q 239 31 329 -14 q 102 170 148 75 q 57 419 57 266 l 57 1028 l 329 1028 l 329 389 q 365 254 329 294 q 468 214 400 214 q 571 254 536 214 q 606 389 606 294 l 606 1028 l 699 1028 q 775 1052 750 1028 q 800 1136 800 1077 q 789 1233 800 1185 l 974 1233 q 988 1119 988 1190 q 957 994 988 1042 q 872 925 927 946 l 872 419 q 828 170 872 265 q 694 30 783 74 q 468 -14 606 -14 m 346 1101 l 458 1321 l 736 1321 l 585 1101 l 346 1101 z "},"Ự":{"ha":936,"x_min":57,"x_max":988,"o":"m 468 -14 q 239 31 329 -14 q 102 170 148 75 q 57 419 57 266 l 57 1028 l 329 1028 l 329 389 q 365 254 329 294 q 468 214 400 214 q 571 254 536 214 q 606 389 606 294 l 606 1028 l 699 1028 q 775 1052 750 1028 q 800 1136 800 1077 q 789 1233 800 1185 l 974 1233 q 988 1119 988 1190 q 957 994 988 1042 q 872 925 927 946 l 872 419 q 828 170 872 265 q 694 30 783 74 q 468 -14 606 -14 m 465 -322 q 344 -291 388 -322 q 301 -197 301 -260 q 344 -103 301 -135 q 465 -72 388 -72 q 586 -103 543 -72 q 629 -197 629 -135 q 586 -291 629 -260 q 465 -322 543 -322 z "},"Ừ":{"ha":936,"x_min":57,"x_max":988,"o":"m 468 -14 q 239 31 329 -14 q 102 170 148 75 q 57 419 57 266 l 57 1028 l 329 1028 l 329 389 q 365 254 329 294 q 468 214 400 214 q 571 254 536 214 q 606 389 606 294 l 606 1028 l 699 1028 q 775 1052 750 1028 q 800 1136 800 1077 q 789 1233 800 1185 l 974 1233 q 988 1119 988 1190 q 957 994 988 1042 q 872 925 927 946 l 872 419 q 828 170 872 265 q 694 30 783 74 q 468 -14 606 -14 m 346 1101 l 194 1321 l 472 1321 l 585 1101 l 346 1101 z "},"Ử":{"ha":936,"x_min":57,"x_max":988,"o":"m 468 -14 q 239 31 329 -14 q 102 170 148 75 q 57 419 57 266 l 57 1028 l 329 1028 l 329 389 q 365 254 329 294 q 468 214 400 214 q 571 254 536 214 q 606 389 606 294 l 606 1028 l 699 1028 q 775 1052 750 1028 q 800 1136 800 1077 q 789 1233 800 1185 l 974 1233 q 988 1119 988 1190 q 957 994 988 1042 q 872 925 927 946 l 872 419 q 828 170 872 265 q 694 30 783 74 q 468 -14 606 -14 m 400 1101 q 423 1158 402 1138 q 476 1194 443 1178 q 497 1206 490 1201 q 503 1215 503 1210 q 487 1233 503 1228 q 438 1239 471 1239 q 375 1235 408 1239 q 315 1225 342 1231 l 315 1325 q 384 1336 341 1332 q 461 1340 426 1340 q 602 1316 558 1340 q 646 1239 646 1292 q 632 1198 646 1213 q 588 1164 617 1183 q 548 1135 562 1149 q 531 1101 534 1122 l 400 1101 z "},"Ữ":{"ha":936,"x_min":57,"x_max":988,"o":"m 468 -14 q 239 31 329 -14 q 102 170 148 75 q 57 419 57 266 l 57 1028 l 329 1028 l 329 389 q 365 254 329 294 q 468 214 400 214 q 571 254 536 214 q 606 389 606 294 l 606 1028 l 699 1028 q 775 1052 750 1028 q 800 1136 800 1077 q 789 1233 800 1185 l 974 1233 q 988 1119 988 1190 q 957 994 988 1042 q 872 925 927 946 l 872 419 q 828 170 872 265 q 694 30 783 74 q 468 -14 606 -14 m 583 1101 q 521 1109 550 1101 q 452 1131 492 1117 q 394 1150 418 1144 q 344 1157 369 1157 q 270 1144 302 1157 q 204 1104 238 1131 l 204 1267 q 266 1308 233 1295 q 347 1321 300 1321 q 409 1313 381 1321 q 478 1290 437 1306 q 538 1270 515 1277 q 586 1264 561 1264 q 660 1277 628 1264 q 726 1317 692 1290 l 726 1154 q 665 1114 699 1126 q 583 1101 631 1101 z "},"Ű":{"ha":929,"x_min":57,"x_max":872,"o":"m 468 -14 q 239 31 329 -14 q 102 170 148 75 q 57 419 57 266 l 57 1028 l 329 1028 l 329 389 q 365 254 329 294 q 468 214 400 214 q 571 254 536 214 q 606 389 606 294 l 606 1028 l 872 1028 l 872 419 q 828 170 872 265 q 694 30 783 74 q 468 -14 606 -14 m 215 1101 l 299 1321 l 515 1321 l 421 1101 l 215 1101 m 515 1101 l 599 1321 l 815 1321 l 721 1101 l 515 1101 z "},"Ȗ":{"ha":929,"x_min":57,"x_max":872,"o":"m 468 -14 q 239 31 329 -14 q 102 170 148 75 q 57 419 57 266 l 57 1028 l 329 1028 l 329 389 q 365 254 329 294 q 468 214 400 214 q 571 254 536 214 q 606 389 606 294 l 606 1028 l 872 1028 l 872 419 q 828 170 872 265 q 694 30 783 74 q 468 -14 606 -14 m 214 1101 q 290 1264 224 1208 q 468 1321 356 1321 q 646 1264 580 1321 q 722 1101 712 1208 l 561 1101 q 532 1170 555 1149 q 468 1192 510 1192 q 404 1170 426 1192 q 375 1101 381 1149 l 214 1101 z "},"Ū":{"ha":929,"x_min":57,"x_max":872,"o":"m 468 -14 q 239 31 329 -14 q 102 170 148 75 q 57 419 57 266 l 57 1028 l 329 1028 l 329 389 q 365 254 329 294 q 468 214 400 214 q 571 254 536 214 q 606 389 606 294 l 606 1028 l 872 1028 l 872 419 q 828 170 872 265 q 694 30 783 74 q 468 -14 606 -14 m 207 1126 l 207 1297 l 729 1297 l 729 1126 l 207 1126 z "},"Ṻ":{"ha":929,"x_min":57,"x_max":872,"o":"m 468 -14 q 239 31 329 -14 q 102 170 148 75 q 57 419 57 266 l 57 1028 l 329 1028 l 329 389 q 365 254 329 294 q 468 214 400 214 q 571 254 536 214 q 606 389 606 294 l 606 1028 l 872 1028 l 872 419 q 828 170 872 265 q 694 30 783 74 q 468 -14 606 -14 m 207 1126 l 207 1297 l 729 1297 l 729 1126 l 207 1126 m 294 1368 q 188 1400 226 1368 q 150 1493 150 1433 q 188 1586 150 1553 q 294 1618 226 1618 q 401 1586 363 1618 q 439 1493 439 1553 q 401 1400 439 1433 q 294 1368 363 1368 m 642 1368 q 535 1400 573 1368 q 497 1493 497 1433 q 535 1586 497 1553 q 642 1618 573 1618 q 748 1586 710 1618 q 786 1493 786 1553 q 748 1400 786 1433 q 642 1368 710 1368 z "},"Ų":{"ha":929,"x_min":57,"x_max":872,"o":"m 872 1028 l 872 419 q 818 151 872 250 q 657 14 765 52 q 541 -41 582 -13 q 486 -95 500 -69 q 472 -150 472 -121 q 561 -212 472 -212 q 651 -194 603 -212 l 651 -299 q 525 -319 591 -319 q 373 -279 424 -319 q 322 -165 322 -238 q 344 -82 322 -119 q 414 -12 365 -45 q 145 103 233 1 q 57 419 57 206 l 57 1028 l 329 1028 l 329 389 q 365 254 329 294 q 468 214 400 214 q 571 254 536 214 q 606 389 606 294 l 606 1028 l 872 1028 z "},"Ů":{"ha":929,"x_min":57,"x_max":872,"o":"m 468 -14 q 239 31 329 -14 q 102 170 148 75 q 57 419 57 266 l 57 1028 l 329 1028 l 329 389 q 365 254 329 294 q 468 214 400 214 q 571 254 536 214 q 606 389 606 294 l 606 1028 l 872 1028 l 872 419 q 828 170 872 265 q 694 30 783 74 q 468 -14 606 -14 m 468 1090 q 387 1110 423 1090 q 330 1165 351 1130 q 310 1243 310 1199 q 330 1322 310 1287 q 387 1376 351 1356 q 468 1396 423 1396 q 549 1376 513 1396 q 606 1322 585 1356 q 626 1243 626 1287 q 606 1165 626 1199 q 549 1110 585 1130 q 468 1090 513 1090 m 468 1186 q 507 1202 492 1186 q 522 1243 522 1217 q 507 1284 522 1269 q 468 1300 492 1300 q 429 1284 444 1300 q 414 1243 414 1269 q 429 1202 414 1217 q 468 1186 444 1186 z "},"Ũ":{"ha":929,"x_min":57,"x_max":872,"o":"m 468 -14 q 239 31 329 -14 q 102 170 148 75 q 57 419 57 266 l 57 1028 l 329 1028 l 329 389 q 365 254 329 294 q 468 214 400 214 q 571 254 536 214 q 606 389 606 294 l 606 1028 l 872 1028 l 872 419 q 828 170 872 265 q 694 30 783 74 q 468 -14 606 -14 m 586 1101 q 524 1109 553 1101 q 455 1131 495 1117 q 397 1150 421 1144 q 347 1157 372 1157 q 273 1144 305 1157 q 207 1104 241 1131 l 207 1267 q 269 1308 235 1295 q 350 1321 303 1321 q 411 1313 383 1321 q 481 1290 440 1306 q 541 1270 517 1277 q 589 1264 564 1264 q 663 1277 631 1264 q 729 1317 695 1290 l 729 1154 q 668 1114 701 1126 q 586 1101 634 1101 z "},"Ṹ":{"ha":929,"x_min":57,"x_max":872,"o":"m 468 -14 q 239 31 329 -14 q 102 170 148 75 q 57 419 57 266 l 57 1028 l 329 1028 l 329 389 q 365 254 329 294 q 468 214 400 214 q 571 254 536 214 q 606 389 606 294 l 606 1028 l 872 1028 l 872 419 q 828 170 872 265 q 694 30 783 74 q 468 -14 606 -14 m 336 1379 l 449 1540 l 751 1540 l 600 1379 l 336 1379 m 586 1101 q 524 1109 553 1101 q 455 1131 495 1117 q 397 1150 421 1144 q 347 1157 372 1157 q 273 1144 305 1157 q 207 1104 241 1131 l 207 1267 q 269 1308 235 1295 q 350 1321 303 1321 q 411 1313 383 1321 q 481 1290 440 1306 q 541 1270 517 1277 q 589 1264 564 1264 q 663 1277 631 1264 q 729 1317 695 1290 l 729 1154 q 668 1114 701 1126 q 586 1101 634 1101 z "},"V":{"ha":889,"x_min":-12,"x_max":901,"o":"m 642 1028 l 901 1028 l 653 0 l 236 0 l -12 1028 l 267 1028 l 451 218 l 642 1028 z "},"W":{"ha":1408,"x_min":3,"x_max":1406,"o":"m 1151 1028 l 1406 1028 l 1194 0 l 842 0 l 711 665 l 567 0 l 214 0 l 3 1028 l 276 1028 l 414 296 l 567 1028 l 861 1028 l 1005 284 l 1151 1028 z "},"Ẃ":{"ha":1408,"x_min":3,"x_max":1406,"o":"m 1151 1028 l 1406 1028 l 1194 0 l 842 0 l 711 665 l 567 0 l 214 0 l 3 1028 l 276 1028 l 414 296 l 567 1028 l 861 1028 l 1005 284 l 1151 1028 m 585 1101 l 697 1321 l 975 1321 l 824 1101 l 585 1101 z "},"Ŵ":{"ha":1408,"x_min":3,"x_max":1406,"o":"m 1151 1028 l 1406 1028 l 1194 0 l 842 0 l 711 665 l 567 0 l 214 0 l 3 1028 l 276 1028 l 414 296 l 567 1028 l 861 1028 l 1005 284 l 1151 1028 m 950 1101 l 772 1101 l 704 1225 l 636 1101 l 458 1101 l 592 1321 l 817 1321 l 950 1101 z "},"Ẅ":{"ha":1408,"x_min":3,"x_max":1406,"o":"m 1151 1028 l 1406 1028 l 1194 0 l 842 0 l 711 665 l 567 0 l 214 0 l 3 1028 l 276 1028 l 414 296 l 567 1028 l 861 1028 l 1005 284 l 1151 1028 m 531 1090 q 424 1123 462 1090 q 386 1215 386 1155 q 424 1308 386 1276 q 531 1340 462 1340 q 637 1308 599 1340 q 675 1215 675 1276 q 637 1123 675 1155 q 531 1090 599 1090 m 878 1090 q 771 1123 809 1090 q 733 1215 733 1155 q 771 1308 733 1276 q 878 1340 809 1340 q 984 1308 947 1340 q 1022 1215 1022 1276 q 984 1123 1022 1155 q 878 1090 947 1090 z "},"Ẁ":{"ha":1408,"x_min":3,"x_max":1406,"o":"m 1151 1028 l 1406 1028 l 1194 0 l 842 0 l 711 665 l 567 0 l 214 0 l 3 1028 l 276 1028 l 414 296 l 567 1028 l 861 1028 l 1005 284 l 1151 1028 m 585 1101 l 433 1321 l 711 1321 l 824 1101 l 585 1101 z "},"X":{"ha":896,"x_min":-36,"x_max":925,"o":"m 606 540 l 925 0 l 632 0 l 447 322 l 261 0 l -36 0 l 289 539 l -4 1028 l 293 1028 l 447 761 l 601 1028 l 893 1028 l 606 540 z "},"Y":{"ha":824,"x_min":-50,"x_max":869,"o":"m 869 1028 l 549 424 l 549 0 l 276 0 l 276 422 l -50 1028 l 235 1028 l 421 671 l 608 1028 l 869 1028 z "},"Ý":{"ha":824,"x_min":-50,"x_max":869,"o":"m 869 1028 l 549 424 l 549 0 l 276 0 l 276 422 l -50 1028 l 235 1028 l 421 671 l 608 1028 l 869 1028 m 294 1101 l 407 1321 l 685 1321 l 533 1101 l 294 1101 z "},"Ŷ":{"ha":824,"x_min":-50,"x_max":869,"o":"m 869 1028 l 549 424 l 549 0 l 276 0 l 276 422 l -50 1028 l 235 1028 l 421 671 l 608 1028 l 869 1028 m 660 1101 l 482 1101 l 414 1225 l 346 1101 l 168 1101 l 301 1321 l 526 1321 l 660 1101 z "},"Ÿ":{"ha":824,"x_min":-50,"x_max":869,"o":"m 869 1028 l 549 424 l 549 0 l 276 0 l 276 422 l -50 1028 l 235 1028 l 421 671 l 608 1028 l 869 1028 m 240 1090 q 134 1123 172 1090 q 96 1215 96 1155 q 134 1308 96 1276 q 240 1340 172 1340 q 347 1308 309 1340 q 385 1215 385 1276 q 347 1123 385 1155 q 240 1090 309 1090 m 588 1090 q 481 1123 519 1090 q 443 1215 443 1155 q 481 1308 443 1276 q 588 1340 519 1340 q 694 1308 656 1340 q 732 1215 732 1276 q 694 1123 732 1155 q 588 1090 656 1090 z "},"Ẏ":{"ha":824,"x_min":-50,"x_max":869,"o":"m 869 1028 l 549 424 l 549 0 l 276 0 l 276 422 l -50 1028 l 235 1028 l 421 671 l 608 1028 l 869 1028 m 414 1090 q 293 1122 336 1090 q 250 1215 250 1153 q 293 1309 250 1278 q 414 1340 336 1340 q 535 1309 492 1340 q 578 1215 578 1278 q 535 1122 578 1153 q 414 1090 492 1090 z "},"Ỵ":{"ha":824,"x_min":-50,"x_max":869,"o":"m 869 1028 l 549 424 l 549 0 l 276 0 l 276 422 l -50 1028 l 235 1028 l 421 671 l 608 1028 l 869 1028 m 413 -322 q 292 -291 335 -322 q 249 -197 249 -260 q 292 -103 249 -135 q 413 -72 335 -72 q 533 -103 490 -72 q 576 -197 576 -135 q 533 -291 576 -260 q 413 -322 490 -322 z "},"Ỳ":{"ha":824,"x_min":-50,"x_max":869,"o":"m 869 1028 l 549 424 l 549 0 l 276 0 l 276 422 l -50 1028 l 235 1028 l 421 671 l 608 1028 l 869 1028 m 294 1101 l 143 1321 l 421 1321 l 533 1101 l 294 1101 z "},"Ỷ":{"ha":824,"x_min":-50,"x_max":869,"o":"m 869 1028 l 549 424 l 549 0 l 276 0 l 276 422 l -50 1028 l 235 1028 l 421 671 l 608 1028 l 869 1028 m 349 1101 q 371 1158 351 1138 q 424 1194 392 1178 q 445 1206 439 1201 q 451 1215 451 1210 q 435 1233 451 1228 q 386 1239 419 1239 q 324 1235 357 1239 q 264 1225 291 1231 l 264 1325 q 332 1336 290 1332 q 410 1340 375 1340 q 550 1316 506 1340 q 594 1239 594 1292 q 580 1198 594 1213 q 536 1164 566 1183 q 497 1135 510 1149 q 479 1101 483 1122 l 349 1101 z "},"Ȳ":{"ha":824,"x_min":-50,"x_max":869,"o":"m 869 1028 l 549 424 l 549 0 l 276 0 l 276 422 l -50 1028 l 235 1028 l 421 671 l 608 1028 l 869 1028 m 153 1126 l 153 1297 l 675 1297 l 675 1126 l 153 1126 z "},"Ỹ":{"ha":824,"x_min":-50,"x_max":869,"o":"m 869 1028 l 549 424 l 549 0 l 276 0 l 276 422 l -50 1028 l 235 1028 l 421 671 l 608 1028 l 869 1028 m 532 1101 q 470 1109 499 1101 q 401 1131 441 1117 q 342 1150 367 1144 q 293 1157 318 1157 q 219 1144 251 1157 q 153 1104 187 1131 l 153 1267 q 215 1308 181 1295 q 296 1321 249 1321 q 357 1313 329 1321 q 427 1290 385 1306 q 486 1270 463 1277 q 535 1264 510 1264 q 609 1277 577 1264 q 675 1317 641 1290 l 675 1154 q 614 1114 647 1126 q 532 1101 580 1101 z "},"Z":{"ha":772,"x_min":22,"x_max":750,"o":"m 375 240 l 750 240 l 750 0 l 22 0 l 22 153 l 390 788 l 29 788 l 29 1028 l 743 1028 l 743 875 l 375 240 z "},"Ź":{"ha":772,"x_min":22,"x_max":750,"o":"m 375 240 l 750 240 l 750 0 l 22 0 l 22 153 l 390 788 l 29 788 l 29 1028 l 743 1028 l 743 875 l 375 240 m 268 1101 l 381 1321 l 658 1321 l 507 1101 l 268 1101 z "},"Ž":{"ha":772,"x_min":22,"x_max":750,"o":"m 375 240 l 750 240 l 750 0 l 22 0 l 22 153 l 390 788 l 29 788 l 29 1028 l 743 1028 l 743 875 l 375 240 m 456 1321 l 633 1321 l 500 1101 l 275 1101 l 142 1321 l 319 1321 l 388 1197 l 456 1321 z "},"Ż":{"ha":772,"x_min":22,"x_max":750,"o":"m 375 240 l 750 240 l 750 0 l 22 0 l 22 153 l 390 788 l 29 788 l 29 1028 l 743 1028 l 743 875 l 375 240 m 388 1090 q 267 1122 310 1090 q 224 1215 224 1153 q 267 1309 224 1278 q 388 1340 310 1340 q 508 1309 465 1340 q 551 1215 551 1278 q 508 1122 551 1153 q 388 1090 465 1090 z "},"Ẓ":{"ha":772,"x_min":22,"x_max":750,"o":"m 375 240 l 750 240 l 750 0 l 22 0 l 22 153 l 390 788 l 29 788 l 29 1028 l 743 1028 l 743 875 l 375 240 m 382 -322 q 261 -291 304 -322 q 218 -197 218 -260 q 261 -103 218 -135 q 382 -72 304 -72 q 503 -103 460 -72 q 546 -197 546 -135 q 503 -291 546 -260 q 382 -322 460 -322 z "},"a":{"ha":700,"x_min":21,"x_max":649,"o":"m 314 776 q 507 745 434 776 q 614 642 579 713 q 649 449 649 570 l 649 0 l 432 0 l 413 78 l 401 78 q 239 -15 358 -15 q 125 13 175 -15 q 48 93 76 41 q 21 213 21 144 q 92 392 21 329 q 324 465 164 455 l 389 469 q 376 525 388 505 q 336 555 364 545 q 260 564 309 564 q 170 558 218 564 q 81 539 123 551 l 81 750 q 194 769 132 763 q 314 776 257 776 m 338 181 q 389 197 367 181 l 389 319 l 357 317 q 300 295 319 315 q 281 243 281 276 q 296 197 281 213 q 338 181 312 181 z "},"á":{"ha":700,"x_min":21,"x_max":649,"o":"m 314 776 q 507 745 434 776 q 614 642 579 713 q 649 449 649 570 l 649 0 l 432 0 l 413 78 l 401 78 q 239 -15 358 -15 q 125 13 175 -15 q 48 93 76 41 q 21 213 21 144 q 92 392 21 329 q 324 465 164 455 l 389 469 q 376 525 388 505 q 336 555 364 545 q 260 564 309 564 q 170 558 218 564 q 81 539 123 551 l 81 750 q 194 769 132 763 q 314 776 257 776 m 338 181 q 389 197 367 181 l 389 319 l 357 317 q 300 295 319 315 q 281 243 281 276 q 296 197 281 213 q 338 181 312 181 m 232 847 l 376 1122 l 646 1122 l 465 847 l 232 847 z "},"ă":{"ha":700,"x_min":21,"x_max":649,"o":"m 314 776 q 507 745 434 776 q 614 642 579 713 q 649 449 649 570 l 649 0 l 432 0 l 413 78 l 401 78 q 239 -15 358 -15 q 125 13 175 -15 q 48 93 76 41 q 21 213 21 144 q 92 392 21 329 q 324 465 164 455 l 389 469 q 376 525 388 505 q 336 555 364 545 q 260 564 309 564 q 170 558 218 564 q 81 539 123 551 l 81 750 q 194 769 132 763 q 314 776 257 776 m 338 181 q 389 197 367 181 l 389 319 l 357 317 q 300 295 319 315 q 281 243 281 276 q 296 197 281 213 q 338 181 312 181 m 349 856 q 175 917 240 856 q 103 1108 110 979 l 264 1108 q 349 992 269 992 q 433 1108 428 992 l 594 1108 q 523 917 588 979 q 349 856 458 856 z "},"ắ":{"ha":700,"x_min":21,"x_max":649,"o":"m 314 776 q 507 745 434 776 q 614 642 579 713 q 649 449 649 570 l 649 0 l 432 0 l 413 78 l 401 78 q 239 -15 358 -15 q 125 13 175 -15 q 48 93 76 41 q 21 213 21 144 q 92 392 21 329 q 324 465 164 455 l 389 469 q 376 525 388 505 q 336 555 364 545 q 260 564 309 564 q 170 558 218 564 q 81 539 123 551 l 81 750 q 194 769 132 763 q 314 776 257 776 m 338 181 q 389 197 367 181 l 389 319 l 357 317 q 300 295 319 315 q 281 243 281 276 q 296 197 281 213 q 338 181 312 181 m 258 1110 l 371 1297 l 590 1297 l 439 1110 l 258 1110 m 349 856 q 171 912 237 856 q 94 1075 105 969 l 256 1075 q 284 1006 262 1027 q 349 985 307 985 q 413 1006 390 985 q 442 1075 435 1027 l 603 1075 q 526 912 592 969 q 349 856 460 856 z "},"ặ":{"ha":700,"x_min":21,"x_max":649,"o":"m 314 776 q 507 745 434 776 q 614 642 579 713 q 649 449 649 570 l 649 0 l 432 0 l 413 78 l 401 78 q 239 -15 358 -15 q 125 13 175 -15 q 48 93 76 41 q 21 213 21 144 q 92 392 21 329 q 324 465 164 455 l 389 469 q 376 525 388 505 q 336 555 364 545 q 260 564 309 564 q 170 558 218 564 q 81 539 123 551 l 81 750 q 194 769 132 763 q 314 776 257 776 m 338 181 q 389 197 367 181 l 389 319 l 357 317 q 300 295 319 315 q 281 243 281 276 q 296 197 281 213 q 338 181 312 181 m 349 -347 q 245 -310 283 -347 q 207 -210 207 -274 q 245 -109 207 -146 q 349 -72 283 -72 q 452 -109 414 -72 q 490 -210 490 -146 q 452 -310 490 -274 q 349 -347 414 -347 m 349 856 q 175 917 240 856 q 103 1108 110 979 l 264 1108 q 349 992 269 992 q 433 1108 428 992 l 594 1108 q 523 917 588 979 q 349 856 458 856 z "},"ằ":{"ha":700,"x_min":21,"x_max":649,"o":"m 314 776 q 507 745 434 776 q 614 642 579 713 q 649 449 649 570 l 649 0 l 432 0 l 413 78 l 401 78 q 239 -15 358 -15 q 125 13 175 -15 q 48 93 76 41 q 21 213 21 144 q 92 392 21 329 q 324 465 164 455 l 389 469 q 376 525 388 505 q 336 555 364 545 q 260 564 309 564 q 170 558 218 564 q 81 539 123 551 l 81 750 q 194 769 132 763 q 314 776 257 776 m 338 181 q 389 197 367 181 l 389 319 l 357 317 q 300 295 319 315 q 281 243 281 276 q 296 197 281 213 q 338 181 312 181 m 258 1110 l 107 1297 l 326 1297 l 439 1110 l 258 1110 m 349 856 q 171 912 237 856 q 94 1075 105 969 l 256 1075 q 284 1006 262 1027 q 349 985 307 985 q 413 1006 390 985 q 442 1075 435 1027 l 603 1075 q 526 912 592 969 q 349 856 460 856 z "},"ẳ":{"ha":700,"x_min":21,"x_max":649,"o":"m 314 776 q 507 745 434 776 q 614 642 579 713 q 649 449 649 570 l 649 0 l 432 0 l 413 78 l 401 78 q 239 -15 358 -15 q 125 13 175 -15 q 48 93 76 41 q 21 213 21 144 q 92 392 21 329 q 324 465 164 455 l 389 469 q 376 525 388 505 q 336 555 364 545 q 260 564 309 564 q 170 558 218 564 q 81 539 123 551 l 81 750 q 194 769 132 763 q 314 776 257 776 m 338 181 q 389 197 367 181 l 389 319 l 357 317 q 300 295 319 315 q 281 243 281 276 q 296 197 281 213 q 338 181 312 181 m 283 1110 q 297 1147 285 1132 q 323 1170 308 1162 q 358 1189 337 1179 q 380 1200 374 1196 q 386 1208 386 1203 q 370 1223 386 1219 q 321 1228 355 1228 q 199 1217 256 1228 l 199 1301 q 268 1311 225 1308 q 344 1315 310 1315 q 485 1295 441 1315 q 529 1228 529 1274 q 514 1193 529 1206 q 471 1164 499 1179 q 431 1139 445 1150 q 414 1110 417 1127 l 283 1110 m 349 856 q 171 912 237 856 q 94 1075 105 969 l 256 1075 q 284 1006 262 1027 q 349 985 307 985 q 413 1006 390 985 q 442 1075 435 1027 l 603 1075 q 526 912 592 969 q 349 856 460 856 z "},"ẵ":{"ha":700,"x_min":21,"x_max":649,"o":"m 314 776 q 507 745 434 776 q 614 642 579 713 q 649 449 649 570 l 649 0 l 432 0 l 413 78 l 401 78 q 239 -15 358 -15 q 125 13 175 -15 q 48 93 76 41 q 21 213 21 144 q 92 392 21 329 q 324 465 164 455 l 389 469 q 376 525 388 505 q 336 555 364 545 q 260 564 309 564 q 170 558 218 564 q 81 539 123 551 l 81 750 q 194 769 132 763 q 314 776 257 776 m 338 181 q 389 197 367 181 l 389 319 l 357 317 q 300 295 319 315 q 281 243 281 276 q 296 197 281 213 q 338 181 312 181 m 464 1108 q 405 1115 432 1108 q 337 1133 378 1121 q 277 1150 300 1144 q 231 1156 255 1156 q 158 1145 190 1156 q 94 1111 127 1134 l 94 1250 q 154 1286 122 1275 q 233 1297 187 1297 q 294 1291 266 1297 q 360 1272 322 1284 q 418 1254 395 1260 q 467 1249 442 1249 q 539 1259 508 1249 q 603 1293 570 1270 l 603 1154 q 543 1119 576 1129 q 464 1108 511 1108 m 349 856 q 171 912 237 856 q 94 1075 105 969 l 256 1075 q 284 1006 262 1027 q 349 985 307 985 q 413 1006 390 985 q 442 1075 435 1027 l 603 1075 q 526 912 592 969 q 349 856 460 856 z "},"â":{"ha":700,"x_min":21,"x_max":649,"o":"m 314 776 q 507 745 434 776 q 614 642 579 713 q 649 449 649 570 l 649 0 l 432 0 l 413 78 l 401 78 q 239 -15 358 -15 q 125 13 175 -15 q 48 93 76 41 q 21 213 21 144 q 92 392 21 329 q 324 465 164 455 l 389 469 q 376 525 388 505 q 336 555 364 545 q 260 564 309 564 q 170 558 218 564 q 81 539 123 551 l 81 750 q 194 769 132 763 q 314 776 257 776 m 338 181 q 389 197 367 181 l 389 319 l 357 317 q 300 295 319 315 q 281 243 281 276 q 296 197 281 213 q 338 181 312 181 m 594 847 l 417 847 l 349 1001 l 281 847 l 103 847 l 236 1122 l 461 1122 l 594 847 z "},"ấ":{"ha":700,"x_min":21,"x_max":840,"o":"m 314 776 q 507 745 434 776 q 614 642 579 713 q 649 449 649 570 l 649 0 l 432 0 l 413 78 l 401 78 q 239 -15 358 -15 q 125 13 175 -15 q 48 93 76 41 q 21 213 21 144 q 92 392 21 329 q 324 465 164 455 l 389 469 q 376 525 388 505 q 336 555 364 545 q 260 564 309 564 q 170 558 218 564 q 81 539 123 551 l 81 750 q 194 769 132 763 q 314 776 257 776 m 338 181 q 389 197 367 181 l 389 319 l 357 317 q 300 295 319 315 q 281 243 281 276 q 296 197 281 213 q 338 181 312 181 m 621 1297 l 840 1297 l 689 1110 l 508 1110 l 621 1297 m 236 1122 l 461 1122 l 594 847 l 417 847 l 349 1001 l 281 847 l 103 847 l 236 1122 z "},"ậ":{"ha":700,"x_min":21,"x_max":649,"o":"m 314 776 q 507 745 434 776 q 614 642 579 713 q 649 449 649 570 l 649 0 l 432 0 l 413 78 l 401 78 q 239 -15 358 -15 q 125 13 175 -15 q 48 93 76 41 q 21 213 21 144 q 92 392 21 329 q 324 465 164 455 l 389 469 q 376 525 388 505 q 336 555 364 545 q 260 564 309 564 q 170 558 218 564 q 81 539 123 551 l 81 750 q 194 769 132 763 q 314 776 257 776 m 338 181 q 389 197 367 181 l 389 319 l 357 317 q 300 295 319 315 q 281 243 281 276 q 296 197 281 213 q 338 181 312 181 m 349 -347 q 245 -310 283 -347 q 207 -210 207 -274 q 245 -109 207 -146 q 349 -72 283 -72 q 452 -109 414 -72 q 490 -210 490 -146 q 452 -310 490 -274 q 349 -347 414 -347 m 594 847 l 417 847 l 349 1001 l 281 847 l 103 847 l 236 1122 l 461 1122 l 594 847 z "},"ầ":{"ha":700,"x_min":21,"x_max":717,"o":"m 314 776 q 507 745 434 776 q 614 642 579 713 q 649 449 649 570 l 649 0 l 432 0 l 413 78 l 401 78 q 239 -15 358 -15 q 125 13 175 -15 q 48 93 76 41 q 21 213 21 144 q 92 392 21 329 q 324 465 164 455 l 389 469 q 376 525 388 505 q 336 555 364 545 q 260 564 309 564 q 170 558 218 564 q 81 539 123 551 l 81 750 q 194 769 132 763 q 314 776 257 776 m 338 181 q 389 197 367 181 l 389 319 l 357 317 q 300 295 319 315 q 281 243 281 276 q 296 197 281 213 q 338 181 312 181 m 717 1110 l 536 1110 l 385 1297 l 604 1297 l 717 1110 m 236 1122 l 461 1122 l 594 847 l 417 847 l 349 1001 l 281 847 l 103 847 l 236 1122 z "},"ẩ":{"ha":700,"x_min":21,"x_max":753,"o":"m 314 776 q 507 745 434 776 q 614 642 579 713 q 649 449 649 570 l 649 0 l 432 0 l 413 78 l 401 78 q 239 -15 358 -15 q 125 13 175 -15 q 48 93 76 41 q 21 213 21 144 q 92 392 21 329 q 324 465 164 455 l 389 469 q 376 525 388 505 q 336 555 364 545 q 260 564 309 564 q 170 558 218 564 q 81 539 123 551 l 81 750 q 194 769 132 763 q 314 776 257 776 m 338 181 q 389 197 367 181 l 389 319 l 357 317 q 300 295 319 315 q 281 243 281 276 q 296 197 281 213 q 338 181 312 181 m 568 1315 q 709 1295 665 1315 q 753 1228 753 1274 q 738 1193 753 1206 q 694 1164 723 1179 q 655 1139 669 1150 q 638 1110 641 1127 l 507 1110 q 520 1147 508 1132 q 546 1170 532 1162 q 582 1189 560 1179 q 603 1200 597 1196 q 610 1208 610 1203 q 594 1223 610 1219 q 544 1228 578 1228 q 422 1217 480 1228 l 422 1301 q 491 1311 449 1308 q 568 1315 534 1315 m 236 1122 l 461 1122 l 594 847 l 417 847 l 349 1001 l 281 847 l 103 847 l 236 1122 z "},"ẫ":{"ha":700,"x_min":21,"x_max":649,"o":"m 314 776 q 507 745 434 776 q 614 642 579 713 q 649 449 649 570 l 649 0 l 432 0 l 413 78 l 401 78 q 239 -15 358 -15 q 125 13 175 -15 q 48 93 76 41 q 21 213 21 144 q 92 392 21 329 q 324 465 164 455 l 389 469 q 376 525 388 505 q 336 555 364 545 q 260 564 309 564 q 170 558 218 564 q 81 539 123 551 l 81 750 q 194 769 132 763 q 314 776 257 776 m 338 181 q 389 197 367 181 l 389 319 l 357 317 q 300 295 319 315 q 281 243 281 276 q 296 197 281 213 q 338 181 312 181 m 469 1248 q 543 1259 511 1248 q 610 1294 576 1270 l 610 1153 q 548 1119 581 1129 q 467 1108 515 1108 q 405 1115 433 1108 q 335 1134 376 1122 q 276 1151 299 1145 q 228 1156 253 1156 q 154 1145 186 1156 q 88 1110 122 1134 l 88 1251 q 150 1286 116 1275 q 231 1297 183 1297 q 294 1290 264 1297 q 362 1271 324 1283 q 420 1254 396 1260 q 469 1248 444 1248 m 236 1068 l 461 1068 l 594 849 l 417 849 l 349 972 l 281 849 l 103 849 l 236 1068 z "},"ȁ":{"ha":700,"x_min":-12,"x_max":649,"o":"m 314 776 q 507 745 434 776 q 614 642 579 713 q 649 449 649 570 l 649 0 l 432 0 l 413 78 l 401 78 q 239 -15 358 -15 q 125 13 175 -15 q 48 93 76 41 q 21 213 21 144 q 92 392 21 329 q 324 465 164 455 l 389 469 q 376 525 388 505 q 336 555 364 545 q 260 564 309 564 q 170 558 218 564 q 81 539 123 551 l 81 750 q 194 769 132 763 q 314 776 257 776 m 338 181 q 389 197 367 181 l 389 319 l 357 317 q 300 295 319 315 q 281 243 281 276 q 296 197 281 213 q 338 181 312 181 m 96 847 l -12 1122 l 204 1122 l 301 847 l 96 847 m 396 847 l 288 1122 l 504 1122 l 601 847 l 396 847 z "},"ä":{"ha":700,"x_min":21,"x_max":658,"o":"m 314 776 q 507 745 434 776 q 614 642 579 713 q 649 449 649 570 l 649 0 l 432 0 l 413 78 l 401 78 q 239 -15 358 -15 q 125 13 175 -15 q 48 93 76 41 q 21 213 21 144 q 92 392 21 329 q 324 465 164 455 l 389 469 q 376 525 388 505 q 336 555 364 545 q 260 564 309 564 q 170 558 218 564 q 81 539 123 551 l 81 750 q 194 769 132 763 q 314 776 257 776 m 338 181 q 389 197 367 181 l 389 319 l 357 317 q 300 295 319 315 q 281 243 281 276 q 296 197 281 213 q 338 181 312 181 m 181 847 q 77 884 115 847 q 39 985 39 921 q 77 1085 39 1049 q 181 1122 115 1122 q 284 1085 246 1122 q 322 985 322 1049 q 284 884 322 921 q 181 847 246 847 m 517 847 q 413 884 451 847 q 375 985 375 921 q 413 1085 375 1049 q 517 1122 451 1122 q 620 1085 582 1122 q 658 985 658 1049 q 620 884 658 921 q 517 847 582 847 z "},"ạ":{"ha":700,"x_min":21,"x_max":649,"o":"m 314 776 q 507 745 434 776 q 614 642 579 713 q 649 449 649 570 l 649 0 l 432 0 l 413 78 l 401 78 q 239 -15 358 -15 q 125 13 175 -15 q 48 93 76 41 q 21 213 21 144 q 92 392 21 329 q 324 465 164 455 l 389 469 q 376 525 388 505 q 336 555 364 545 q 260 564 309 564 q 170 558 218 564 q 81 539 123 551 l 81 750 q 194 769 132 763 q 314 776 257 776 m 338 181 q 389 197 367 181 l 389 319 l 357 317 q 300 295 319 315 q 281 243 281 276 q 296 197 281 213 q 338 181 312 181 m 349 -347 q 245 -310 283 -347 q 207 -210 207 -274 q 245 -109 207 -146 q 349 -72 283 -72 q 452 -109 414 -72 q 490 -210 490 -146 q 452 -310 490 -274 q 349 -347 414 -347 z "},"à":{"ha":700,"x_min":21,"x_max":649,"o":"m 314 776 q 507 745 434 776 q 614 642 579 713 q 649 449 649 570 l 649 0 l 432 0 l 413 78 l 401 78 q 239 -15 358 -15 q 125 13 175 -15 q 48 93 76 41 q 21 213 21 144 q 92 392 21 329 q 324 465 164 455 l 389 469 q 376 525 388 505 q 336 555 364 545 q 260 564 309 564 q 170 558 218 564 q 81 539 123 551 l 81 750 q 194 769 132 763 q 314 776 257 776 m 338 181 q 389 197 367 181 l 389 319 l 357 317 q 300 295 319 315 q 281 243 281 276 q 296 197 281 213 q 338 181 312 181 m 232 847 l 51 1122 l 321 1122 l 465 847 l 232 847 z "},"ả":{"ha":700,"x_min":21,"x_max":649,"o":"m 314 776 q 507 745 434 776 q 614 642 579 713 q 649 449 649 570 l 649 0 l 432 0 l 413 78 l 401 78 q 239 -15 358 -15 q 125 13 175 -15 q 48 93 76 41 q 21 213 21 144 q 92 392 21 329 q 324 465 164 455 l 389 469 q 376 525 388 505 q 336 555 364 545 q 260 564 309 564 q 170 558 218 564 q 81 539 123 551 l 81 750 q 194 769 132 763 q 314 776 257 776 m 338 181 q 389 197 367 181 l 389 319 l 357 317 q 300 295 319 315 q 281 243 281 276 q 296 197 281 213 q 338 181 312 181 m 283 847 q 301 913 285 889 q 344 958 317 936 q 366 980 359 972 q 372 999 372 988 q 358 1019 372 1013 q 321 1026 344 1026 q 213 1010 267 1026 l 213 1113 q 276 1126 240 1121 q 344 1131 312 1131 q 473 1103 431 1131 q 515 1018 515 1076 q 508 974 515 992 q 489 944 500 956 q 461 917 478 932 q 428 884 439 899 q 414 847 417 870 l 283 847 z "},"ȃ":{"ha":700,"x_min":21,"x_max":649,"o":"m 314 776 q 507 745 434 776 q 614 642 579 713 q 649 449 649 570 l 649 0 l 432 0 l 413 78 l 401 78 q 239 -15 358 -15 q 125 13 175 -15 q 48 93 76 41 q 21 213 21 144 q 92 392 21 329 q 324 465 164 455 l 389 469 q 376 525 388 505 q 336 555 364 545 q 260 564 309 564 q 170 558 218 564 q 81 539 123 551 l 81 750 q 194 769 132 763 q 314 776 257 776 m 338 181 q 389 197 367 181 l 389 319 l 357 317 q 300 295 319 315 q 281 243 281 276 q 296 197 281 213 q 338 181 312 181 m 103 867 q 174 1058 110 997 q 349 1119 238 1119 q 522 1058 456 1119 q 594 867 588 996 l 433 867 q 349 988 428 988 q 287 960 307 988 q 264 867 267 932 l 103 867 z "},"ā":{"ha":700,"x_min":21,"x_max":649,"o":"m 314 776 q 507 745 434 776 q 614 642 579 713 q 649 449 649 570 l 649 0 l 432 0 l 413 78 l 401 78 q 239 -15 358 -15 q 125 13 175 -15 q 48 93 76 41 q 21 213 21 144 q 92 392 21 329 q 324 465 164 455 l 389 469 q 376 525 388 505 q 336 555 364 545 q 260 564 309 564 q 170 558 218 564 q 81 539 123 551 l 81 750 q 194 769 132 763 q 314 776 257 776 m 338 181 q 389 197 367 181 l 389 319 l 357 317 q 300 295 319 315 q 281 243 281 276 q 296 197 281 213 q 338 181 312 181 m 101 900 l 101 1071 l 596 1071 l 596 900 l 101 900 z "},"ą":{"ha":700,"x_min":21,"x_max":649,"o":"m 649 0 q 525 -71 558 -35 q 492 -150 492 -107 q 511 -196 492 -180 q 567 -212 530 -212 q 649 -194 601 -212 l 649 -299 q 593 -314 620 -308 q 531 -319 565 -319 q 390 -278 438 -319 q 342 -165 342 -237 q 365 -74 342 -114 q 444 0 388 -35 l 432 0 l 413 78 l 401 78 q 239 -15 358 -15 q 125 13 175 -15 q 48 93 76 41 q 21 213 21 144 q 92 392 21 329 q 324 465 164 455 l 389 469 q 376 525 388 505 q 336 555 364 545 q 260 564 309 564 q 170 558 218 564 q 81 539 123 551 l 81 750 q 194 769 132 763 q 314 776 257 776 q 507 745 434 776 q 614 642 579 713 q 649 449 649 570 l 649 0 m 338 181 q 389 197 367 181 l 389 319 l 357 317 q 300 295 319 315 q 281 243 281 276 q 296 197 281 213 q 338 181 312 181 z "},"å":{"ha":700,"x_min":21,"x_max":649,"o":"m 314 776 q 507 745 434 776 q 614 642 579 713 q 649 449 649 570 l 649 0 l 432 0 l 413 78 l 401 78 q 239 -15 358 -15 q 125 13 175 -15 q 48 93 76 41 q 21 213 21 144 q 92 392 21 329 q 324 465 164 455 l 389 469 q 376 525 388 505 q 336 555 364 545 q 260 564 309 564 q 170 558 218 564 q 81 539 123 551 l 81 750 q 194 769 132 763 q 314 776 257 776 m 338 181 q 389 197 367 181 l 389 319 l 357 317 q 300 295 319 315 q 281 243 281 276 q 296 197 281 213 q 338 181 312 181 m 349 843 q 267 863 303 843 q 211 917 231 883 q 190 996 190 952 q 211 1074 190 1040 q 267 1129 231 1109 q 349 1149 303 1149 q 430 1129 394 1149 q 486 1074 466 1109 q 507 996 507 1040 q 486 917 507 952 q 430 863 466 883 q 349 843 394 843 m 349 939 q 388 955 373 939 q 403 996 403 970 q 388 1037 403 1022 q 349 1053 373 1053 q 309 1037 324 1053 q 294 996 294 1022 q 309 955 294 970 q 349 939 324 939 z "},"ǻ":{"ha":700,"x_min":21,"x_max":649,"o":"m 314 776 q 507 745 434 776 q 614 642 579 713 q 649 449 649 570 l 649 0 l 432 0 l 413 78 l 401 78 q 239 -15 358 -15 q 125 13 175 -15 q 48 93 76 41 q 21 213 21 144 q 92 392 21 329 q 324 465 164 455 l 389 469 q 376 525 388 505 q 336 555 364 545 q 260 564 309 564 q 170 558 218 564 q 81 539 123 551 l 81 750 q 194 769 132 763 q 314 776 257 776 m 338 181 q 389 197 367 181 l 389 319 l 357 317 q 300 295 319 315 q 281 243 281 276 q 296 197 281 213 q 338 181 312 181 m 490 1067 q 507 996 507 1036 q 486 917 507 952 q 430 863 466 883 q 349 843 394 843 q 267 863 303 843 q 211 917 231 883 q 190 996 190 952 q 211 1074 190 1040 q 267 1129 231 1109 q 349 1149 303 1149 q 363 1148 358 1149 l 431 1236 l 636 1236 l 490 1067 m 349 939 q 388 955 373 939 q 403 996 403 970 q 388 1037 403 1022 q 349 1053 373 1053 q 309 1037 324 1053 q 294 996 294 1022 q 309 955 294 970 q 349 939 324 939 z "},"ã":{"ha":700,"x_min":21,"x_max":649,"o":"m 314 776 q 507 745 434 776 q 614 642 579 713 q 649 449 649 570 l 649 0 l 432 0 l 413 78 l 401 78 q 239 -15 358 -15 q 125 13 175 -15 q 48 93 76 41 q 21 213 21 144 q 92 392 21 329 q 324 465 164 455 l 389 469 q 376 525 388 505 q 336 555 364 545 q 260 564 309 564 q 170 558 218 564 q 81 539 123 551 l 81 750 q 194 769 132 763 q 314 776 257 776 m 338 181 q 389 197 367 181 l 389 319 l 357 317 q 300 295 319 315 q 281 243 281 276 q 296 197 281 213 q 338 181 312 181 m 458 868 q 401 877 428 868 q 335 904 374 886 q 279 927 299 920 q 236 935 258 935 q 166 920 197 935 q 101 872 134 905 l 101 1046 q 162 1089 129 1076 q 239 1103 195 1103 q 296 1094 269 1103 q 362 1067 323 1085 q 418 1043 398 1051 q 461 1036 439 1036 q 532 1051 500 1036 q 596 1099 563 1066 l 596 925 q 535 882 568 895 q 458 868 502 868 z "},"æ":{"ha":1038,"x_min":21,"x_max":1017,"o":"m 1017 301 l 649 301 q 668 239 653 261 q 716 207 683 217 q 806 197 748 197 q 979 221 880 197 l 979 10 q 873 -9 921 -3 q 774 -15 824 -15 q 595 9 668 -15 q 477 84 522 33 q 384 7 436 29 q 267 -15 333 -15 q 134 13 189 -15 q 50 92 78 40 q 21 217 21 144 q 95 395 21 330 q 325 460 170 460 l 394 460 q 362 541 394 517 q 257 564 331 564 q 171 557 218 564 q 82 539 124 551 l 82 750 q 301 776 193 776 q 533 697 460 776 q 725 776 605 776 q 880 731 815 776 q 981 597 946 686 q 1017 378 1017 508 l 1017 301 m 710 604 q 675 592 688 604 q 656 549 663 581 q 649 460 649 518 l 768 460 q 762 549 768 518 q 743 592 756 581 q 710 604 731 604 m 342 182 q 379 189 362 182 q 413 211 397 195 q 397 311 401 258 l 358 311 q 300 292 319 311 q 281 240 281 274 q 297 197 281 213 q 342 182 313 182 z "},"ǽ":{"ha":1038,"x_min":21,"x_max":1017,"o":"m 1017 301 l 649 301 q 668 239 653 261 q 716 207 683 217 q 806 197 748 197 q 979 221 880 197 l 979 10 q 873 -9 921 -3 q 774 -15 824 -15 q 595 9 668 -15 q 477 84 522 33 q 384 7 436 29 q 267 -15 333 -15 q 134 13 189 -15 q 50 92 78 40 q 21 217 21 144 q 95 395 21 330 q 325 460 170 460 l 394 460 q 362 541 394 517 q 257 564 331 564 q 171 557 218 564 q 82 539 124 551 l 82 750 q 301 776 193 776 q 533 697 460 776 q 725 776 605 776 q 880 731 815 776 q 981 597 946 686 q 1017 378 1017 508 l 1017 301 m 710 604 q 675 592 688 604 q 656 549 663 581 q 649 460 649 518 l 768 460 q 762 549 768 518 q 743 592 756 581 q 710 604 731 604 m 342 182 q 379 189 362 182 q 413 211 397 195 q 397 311 401 258 l 358 311 q 300 292 319 311 q 281 240 281 274 q 297 197 281 213 q 342 182 313 182 m 406 847 l 550 1122 l 819 1122 l 639 847 l 406 847 z "},"b":{"ha":767,"x_min":54,"x_max":739,"o":"m 338 -14 q 189 -2 264 -14 q 54 32 114 9 l 54 1122 l 322 1122 l 322 686 l 335 686 q 395 753 357 730 q 486 776 434 776 q 614 735 556 776 q 705 607 671 693 q 739 393 739 520 q 642 90 739 193 q 338 -14 545 -14 m 356 189 q 417 205 394 189 q 453 260 441 221 q 465 369 465 299 q 454 482 465 442 q 422 536 443 522 q 367 551 401 551 q 322 543 341 551 l 322 193 q 356 189 339 189 z "},"c":{"ha":586,"x_min":28,"x_max":560,"o":"m 393 -15 q 121 83 215 -15 q 28 381 28 181 q 131 680 28 583 q 418 776 233 776 q 560 764 493 776 l 560 547 q 471 554 513 554 q 345 515 384 554 q 307 385 307 476 q 323 278 307 317 q 371 223 339 240 q 454 207 403 207 q 560 226 499 207 l 560 10 q 478 -9 522 -3 q 393 -15 435 -15 z "},"ć":{"ha":586,"x_min":28,"x_max":615,"o":"m 393 -15 q 121 83 215 -15 q 28 381 28 181 q 131 680 28 583 q 418 776 233 776 q 560 764 493 776 l 560 547 q 471 554 513 554 q 345 515 384 554 q 307 385 307 476 q 323 278 307 317 q 371 223 339 240 q 454 207 403 207 q 560 226 499 207 l 560 10 q 478 -9 522 -3 q 393 -15 435 -15 m 201 847 l 346 1122 l 615 1122 l 435 847 l 201 847 z "},"č":{"ha":586,"x_min":28,"x_max":564,"o":"m 393 -15 q 121 83 215 -15 q 28 381 28 181 q 131 680 28 583 q 418 776 233 776 q 560 764 493 776 l 560 547 q 471 554 513 554 q 345 515 384 554 q 307 385 307 476 q 323 278 307 317 q 371 223 339 240 q 454 207 403 207 q 560 226 499 207 l 560 10 q 478 -9 522 -3 q 393 -15 435 -15 m 386 1122 l 564 1122 l 431 847 l 206 847 l 72 1122 l 250 1122 l 318 968 l 386 1122 z "},"ç":{"ha":586,"x_min":28,"x_max":560,"o":"m 471 554 q 345 515 384 554 q 307 385 307 476 q 323 278 307 317 q 371 223 339 240 q 454 207 403 207 q 560 226 499 207 l 560 10 q 406 -15 490 -13 l 406 -56 q 487 -100 458 -68 q 515 -182 515 -132 q 469 -283 515 -247 q 324 -319 422 -319 q 206 -301 265 -319 l 206 -197 q 259 -211 231 -206 q 308 -215 287 -215 q 357 -205 342 -215 q 372 -171 372 -195 q 306 -124 372 -124 l 276 -124 l 276 -3 q 91 121 154 26 q 28 381 28 217 q 131 680 28 583 q 418 776 233 776 q 560 764 493 776 l 560 547 q 471 554 513 554 z "},"ḉ":{"ha":586,"x_min":28,"x_max":615,"o":"m 615 1122 l 435 847 l 201 847 l 346 1122 l 615 1122 m 28 381 q 131 680 28 583 q 418 776 233 776 q 560 764 493 776 l 560 547 q 471 554 513 554 q 345 515 384 554 q 307 385 307 476 q 323 278 307 317 q 371 223 339 240 q 454 207 403 207 q 560 226 499 207 l 560 10 q 406 -15 490 -13 l 406 -56 q 487 -100 458 -68 q 515 -182 515 -132 q 469 -283 515 -247 q 324 -319 422 -319 q 206 -301 265 -319 l 206 -197 q 259 -211 231 -206 q 308 -215 287 -215 q 357 -205 342 -215 q 372 -171 372 -195 q 306 -124 372 -124 l 276 -124 l 276 -3 q 91 121 154 26 q 28 381 28 217 z "},"ĉ":{"ha":586,"x_min":28,"x_max":564,"o":"m 393 -15 q 121 83 215 -15 q 28 381 28 181 q 131 680 28 583 q 418 776 233 776 q 560 764 493 776 l 560 547 q 471 554 513 554 q 345 515 384 554 q 307 385 307 476 q 323 278 307 317 q 371 223 339 240 q 454 207 403 207 q 560 226 499 207 l 560 10 q 478 -9 522 -3 q 393 -15 435 -15 m 564 847 l 386 847 l 318 1001 l 250 847 l 72 847 l 206 1122 l 431 1122 l 564 847 z "},"ċ":{"ha":586,"x_min":28,"x_max":560,"o":"m 393 -15 q 121 83 215 -15 q 28 381 28 181 q 131 680 28 583 q 418 776 233 776 q 560 764 493 776 l 560 547 q 471 554 513 554 q 345 515 384 554 q 307 385 307 476 q 323 278 307 317 q 371 223 339 240 q 454 207 403 207 q 560 226 499 207 l 560 10 q 478 -9 522 -3 q 393 -15 435 -15 m 318 840 q 195 878 235 840 q 156 985 156 915 q 195 1092 156 1054 q 318 1129 235 1129 q 441 1092 401 1129 q 481 985 481 1054 q 441 878 481 915 q 318 840 401 840 z "},"d":{"ha":767,"x_min":28,"x_max":713,"o":"m 299 -15 q 164 26 225 -15 q 65 154 102 68 q 28 367 28 240 q 126 671 28 567 q 433 775 224 775 l 444 775 l 444 1122 l 713 1122 l 713 0 l 486 0 l 468 83 l 457 83 q 395 10 435 36 q 299 -15 356 -15 m 392 208 q 444 222 422 208 l 444 569 q 411 572 422 572 q 349 556 373 572 q 314 501 326 540 q 301 390 301 461 q 312 278 301 318 q 342 223 323 238 q 392 208 362 208 z "},"ð":{"ha":742,"x_min":28,"x_max":714,"o":"m 573 917 q 676 679 639 806 q 714 431 714 553 q 627 88 714 194 q 371 -18 541 -18 q 116 80 203 -18 q 28 376 28 178 q 114 674 28 576 q 350 772 200 772 q 403 763 372 772 q 345 866 376 819 l 108 813 l 75 951 l 249 990 q 118 1122 194 1053 l 406 1122 q 483 1043 445 1088 l 663 1083 l 696 944 l 573 917 m 371 179 q 411 194 397 179 q 433 250 426 208 q 440 372 440 292 q 432 500 440 456 q 410 559 424 544 q 371 575 395 575 q 332 559 347 575 q 309 500 317 544 q 301 375 301 457 q 309 251 301 293 q 331 194 316 208 q 371 179 345 179 z "},"ď":{"ha":767,"x_min":28,"x_max":947,"o":"m 299 -15 q 164 26 225 -15 q 65 154 102 68 q 28 367 28 240 q 126 671 28 567 q 433 775 224 775 l 444 775 l 444 1122 l 713 1122 l 713 0 l 486 0 l 468 83 l 457 83 q 395 10 435 36 q 299 -15 356 -15 m 392 208 q 444 222 422 208 l 444 569 q 411 572 422 572 q 349 556 373 572 q 314 501 326 540 q 301 390 301 461 q 312 278 301 318 q 342 223 323 238 q 392 208 362 208 m 746 819 q 763 967 758 899 q 768 1122 768 1035 l 947 1122 q 933 957 947 1035 q 893 819 919 878 l 746 819 z "},"đ":{"ha":767,"x_min":28,"x_max":767,"o":"m 767 847 l 713 847 l 713 0 l 486 0 l 468 83 l 457 83 q 395 10 435 36 q 299 -15 356 -15 q 164 26 225 -15 q 65 154 102 68 q 28 367 28 240 q 126 671 28 567 q 433 775 224 775 l 444 775 l 444 847 l 285 847 l 285 1028 l 444 1028 l 444 1122 l 713 1122 l 713 1028 l 767 1028 l 767 847 m 444 569 q 411 572 422 572 q 349 556 373 572 q 314 501 326 540 q 301 390 301 461 q 312 278 301 318 q 342 223 323 238 q 392 208 362 208 q 444 222 422 208 l 444 569 z "},"ḍ":{"ha":767,"x_min":28,"x_max":713,"o":"m 299 -15 q 164 26 225 -15 q 65 154 102 68 q 28 367 28 240 q 126 671 28 567 q 433 775 224 775 l 444 775 l 444 1122 l 713 1122 l 713 0 l 486 0 l 468 83 l 457 83 q 395 10 435 36 q 299 -15 356 -15 m 392 208 q 444 222 422 208 l 444 569 q 411 572 422 572 q 349 556 373 572 q 314 501 326 540 q 301 390 301 461 q 312 278 301 318 q 342 223 323 238 q 392 208 362 208 m 390 -347 q 287 -310 325 -347 q 249 -210 249 -274 q 287 -109 249 -146 q 390 -72 325 -72 q 494 -109 456 -72 q 532 -210 532 -146 q 494 -310 532 -274 q 390 -347 456 -347 z "},"ḏ":{"ha":767,"x_min":28,"x_max":713,"o":"m 299 -15 q 164 26 225 -15 q 65 154 102 68 q 28 367 28 240 q 126 671 28 567 q 433 775 224 775 l 444 775 l 444 1122 l 713 1122 l 713 0 l 486 0 l 468 83 l 457 83 q 395 10 435 36 q 299 -15 356 -15 m 392 208 q 444 222 422 208 l 444 569 q 411 572 422 572 q 349 556 373 572 q 314 501 326 540 q 301 390 301 461 q 312 278 301 318 q 342 223 323 238 q 392 208 362 208 m 143 -292 l 143 -122 l 638 -122 l 638 -292 l 143 -292 z "},"ǳ":{"ha":1375,"x_min":28,"x_max":1357,"o":"m 299 -15 q 164 26 225 -15 q 65 154 102 68 q 28 367 28 240 q 126 671 28 567 q 433 775 224 775 l 444 775 l 444 1122 l 713 1122 l 713 0 l 486 0 l 468 83 l 457 83 q 395 10 435 36 q 299 -15 356 -15 m 392 208 q 444 222 422 208 l 444 569 q 411 572 422 572 q 349 556 373 572 q 314 501 326 540 q 301 390 301 461 q 312 278 301 318 q 342 223 323 238 q 392 208 362 208 m 1093 208 l 1357 208 l 1357 0 l 796 0 l 796 167 l 1053 556 l 803 556 l 803 764 l 1350 764 l 1350 597 l 1093 208 z "},"ǆ":{"ha":1375,"x_min":28,"x_max":1357,"o":"m 299 -15 q 164 26 225 -15 q 65 154 102 68 q 28 367 28 240 q 126 671 28 567 q 433 775 224 775 l 444 775 l 444 1122 l 713 1122 l 713 0 l 486 0 l 468 83 l 457 83 q 395 10 435 36 q 299 -15 356 -15 m 392 208 q 444 222 422 208 l 444 569 q 411 572 422 572 q 349 556 373 572 q 314 501 326 540 q 301 390 301 461 q 312 278 301 318 q 342 223 323 238 q 392 208 362 208 m 1093 208 l 1357 208 l 1357 0 l 796 0 l 796 167 l 1053 556 l 803 556 l 803 764 l 1350 764 l 1350 597 l 1093 208 m 1144 1122 l 1322 1122 l 1189 847 l 964 847 l 831 1122 l 1008 1122 l 1076 968 l 1144 1122 z "},"e":{"ha":693,"x_min":28,"x_max":672,"o":"m 672 301 l 299 301 q 318 239 303 261 q 368 207 334 217 q 461 197 401 197 q 635 221 535 197 l 635 10 q 528 -9 576 -3 q 426 -15 479 -15 q 197 26 284 -15 q 68 156 109 68 q 28 386 28 244 q 66 597 28 509 q 180 730 105 684 q 364 776 256 776 q 594 674 517 776 q 672 378 672 571 l 672 301 m 363 604 q 326 592 339 604 q 306 549 313 581 q 299 460 299 518 l 424 460 q 417 549 424 518 q 398 592 411 581 q 363 604 385 604 z "},"é":{"ha":693,"x_min":28,"x_max":672,"o":"m 672 301 l 299 301 q 318 239 303 261 q 368 207 334 217 q 461 197 401 197 q 635 221 535 197 l 635 10 q 528 -9 576 -3 q 426 -15 479 -15 q 197 26 284 -15 q 68 156 109 68 q 28 386 28 244 q 66 597 28 509 q 180 730 105 684 q 364 776 256 776 q 594 674 517 776 q 672 378 672 571 l 672 301 m 363 604 q 326 592 339 604 q 306 549 313 581 q 299 460 299 518 l 424 460 q 417 549 424 518 q 398 592 411 581 q 363 604 385 604 m 240 847 l 385 1122 l 654 1122 l 474 847 l 240 847 z "},"ĕ":{"ha":693,"x_min":28,"x_max":672,"o":"m 672 301 l 299 301 q 318 239 303 261 q 368 207 334 217 q 461 197 401 197 q 635 221 535 197 l 635 10 q 528 -9 576 -3 q 426 -15 479 -15 q 197 26 284 -15 q 68 156 109 68 q 28 386 28 244 q 66 597 28 509 q 180 730 105 684 q 364 776 256 776 q 594 674 517 776 q 672 378 672 571 l 672 301 m 363 604 q 326 592 339 604 q 306 549 313 581 q 299 460 299 518 l 424 460 q 417 549 424 518 q 398 592 411 581 q 363 604 385 604 m 357 856 q 183 917 248 856 q 111 1108 118 979 l 272 1108 q 357 992 278 992 q 442 1108 436 992 l 603 1108 q 531 917 596 979 q 357 856 466 856 z "},"ě":{"ha":693,"x_min":28,"x_max":672,"o":"m 672 301 l 299 301 q 318 239 303 261 q 368 207 334 217 q 461 197 401 197 q 635 221 535 197 l 635 10 q 528 -9 576 -3 q 426 -15 479 -15 q 197 26 284 -15 q 68 156 109 68 q 28 386 28 244 q 66 597 28 509 q 180 730 105 684 q 364 776 256 776 q 594 674 517 776 q 672 378 672 571 l 672 301 m 363 604 q 326 592 339 604 q 306 549 313 581 q 299 460 299 518 l 424 460 q 417 549 424 518 q 398 592 411 581 q 363 604 385 604 m 425 1122 l 603 1122 l 469 847 l 244 847 l 111 1122 l 289 1122 l 357 968 l 425 1122 z "},"ḝ":{"ha":693,"x_min":28,"x_max":672,"o":"m 357 856 q 183 917 248 856 q 111 1108 118 979 l 272 1108 q 357 992 278 992 q 442 1108 436 992 l 603 1108 q 531 917 596 979 q 357 856 466 856 m 672 301 l 299 301 q 318 239 303 261 q 368 207 334 217 q 461 197 401 197 q 635 221 535 197 l 635 10 q 530 -9 578 -3 q 431 -15 482 -15 l 431 -56 q 512 -100 483 -68 q 540 -182 540 -132 q 494 -283 540 -247 q 349 -319 447 -319 q 231 -301 290 -319 l 231 -197 q 284 -211 256 -206 q 333 -215 312 -215 q 382 -205 367 -215 q 397 -171 397 -195 q 331 -124 397 -124 l 301 -124 l 301 -6 q 145 58 205 11 q 56 186 85 106 q 28 386 28 267 q 66 597 28 509 q 180 730 105 684 q 364 776 256 776 q 594 674 517 776 q 672 378 672 571 l 672 301 m 363 604 q 326 592 339 604 q 306 549 313 581 q 299 460 299 518 l 424 460 q 417 549 424 518 q 398 592 411 581 q 363 604 385 604 z "},"ê":{"ha":693,"x_min":28,"x_max":672,"o":"m 672 301 l 299 301 q 318 239 303 261 q 368 207 334 217 q 461 197 401 197 q 635 221 535 197 l 635 10 q 528 -9 576 -3 q 426 -15 479 -15 q 197 26 284 -15 q 68 156 109 68 q 28 386 28 244 q 66 597 28 509 q 180 730 105 684 q 364 776 256 776 q 594 674 517 776 q 672 378 672 571 l 672 301 m 363 604 q 326 592 339 604 q 306 549 313 581 q 299 460 299 518 l 424 460 q 417 549 424 518 q 398 592 411 581 q 363 604 385 604 m 603 847 l 425 847 l 357 1001 l 289 847 l 111 847 l 244 1122 l 469 1122 l 603 847 z "},"ế":{"ha":693,"x_min":28,"x_max":849,"o":"m 672 301 l 299 301 q 318 239 303 261 q 368 207 334 217 q 461 197 401 197 q 635 221 535 197 l 635 10 q 528 -9 576 -3 q 426 -15 479 -15 q 197 26 284 -15 q 68 156 109 68 q 28 386 28 244 q 66 597 28 509 q 180 730 105 684 q 364 776 256 776 q 594 674 517 776 q 672 378 672 571 l 672 301 m 363 604 q 326 592 339 604 q 306 549 313 581 q 299 460 299 518 l 424 460 q 417 549 424 518 q 398 592 411 581 q 363 604 385 604 m 629 1297 l 849 1297 l 697 1110 l 517 1110 l 629 1297 m 244 1122 l 469 1122 l 603 847 l 425 847 l 357 1001 l 289 847 l 111 847 l 244 1122 z "},"ệ":{"ha":693,"x_min":28,"x_max":672,"o":"m 672 301 l 299 301 q 318 239 303 261 q 368 207 334 217 q 461 197 401 197 q 635 221 535 197 l 635 10 q 528 -9 576 -3 q 426 -15 479 -15 q 197 26 284 -15 q 68 156 109 68 q 28 386 28 244 q 66 597 28 509 q 180 730 105 684 q 364 776 256 776 q 594 674 517 776 q 672 378 672 571 l 672 301 m 363 604 q 326 592 339 604 q 306 549 313 581 q 299 460 299 518 l 424 460 q 417 549 424 518 q 398 592 411 581 q 363 604 385 604 m 357 -347 q 253 -310 292 -347 q 215 -210 215 -274 q 253 -109 215 -146 q 357 -72 292 -72 q 460 -109 422 -72 q 499 -210 499 -146 q 460 -310 499 -274 q 357 -347 422 -347 m 603 847 l 425 847 l 357 1001 l 289 847 l 111 847 l 244 1122 l 469 1122 l 603 847 z "},"ề":{"ha":693,"x_min":28,"x_max":725,"o":"m 672 301 l 299 301 q 318 239 303 261 q 368 207 334 217 q 461 197 401 197 q 635 221 535 197 l 635 10 q 528 -9 576 -3 q 426 -15 479 -15 q 197 26 284 -15 q 68 156 109 68 q 28 386 28 244 q 66 597 28 509 q 180 730 105 684 q 364 776 256 776 q 594 674 517 776 q 672 378 672 571 l 672 301 m 363 604 q 326 592 339 604 q 306 549 313 581 q 299 460 299 518 l 424 460 q 417 549 424 518 q 398 592 411 581 q 363 604 385 604 m 725 1110 l 544 1110 l 393 1297 l 613 1297 l 725 1110 m 244 1122 l 469 1122 l 603 847 l 425 847 l 357 1001 l 289 847 l 111 847 l 244 1122 z "},"ể":{"ha":693,"x_min":28,"x_max":761,"o":"m 672 301 l 299 301 q 318 239 303 261 q 368 207 334 217 q 461 197 401 197 q 635 221 535 197 l 635 10 q 528 -9 576 -3 q 426 -15 479 -15 q 197 26 284 -15 q 68 156 109 68 q 28 386 28 244 q 66 597 28 509 q 180 730 105 684 q 364 776 256 776 q 594 674 517 776 q 672 378 672 571 l 672 301 m 363 604 q 326 592 339 604 q 306 549 313 581 q 299 460 299 518 l 424 460 q 417 549 424 518 q 398 592 411 581 q 363 604 385 604 m 576 1315 q 717 1295 673 1315 q 761 1228 761 1274 q 746 1193 761 1206 q 703 1164 731 1179 q 663 1139 677 1150 q 646 1110 649 1127 l 515 1110 q 528 1147 517 1132 q 555 1170 540 1162 q 590 1189 569 1179 q 612 1200 606 1196 q 618 1208 618 1203 q 602 1223 618 1219 q 553 1228 587 1228 q 431 1217 488 1228 l 431 1301 q 500 1311 457 1308 q 576 1315 542 1315 m 244 1122 l 469 1122 l 603 847 l 425 847 l 357 1001 l 289 847 l 111 847 l 244 1122 z "},"ễ":{"ha":693,"x_min":28,"x_max":672,"o":"m 672 301 l 299 301 q 318 239 303 261 q 368 207 334 217 q 461 197 401 197 q 635 221 535 197 l 635 10 q 528 -9 576 -3 q 426 -15 479 -15 q 197 26 284 -15 q 68 156 109 68 q 28 386 28 244 q 66 597 28 509 q 180 730 105 684 q 364 776 256 776 q 594 674 517 776 q 672 378 672 571 l 672 301 m 363 604 q 326 592 339 604 q 306 549 313 581 q 299 460 299 518 l 424 460 q 417 549 424 518 q 398 592 411 581 q 363 604 385 604 m 478 1248 q 552 1259 519 1248 q 618 1294 584 1270 l 618 1153 q 556 1119 590 1129 q 475 1108 523 1108 q 413 1115 442 1108 q 344 1134 384 1122 q 284 1151 308 1145 q 236 1156 261 1156 q 162 1145 194 1156 q 96 1110 130 1134 l 96 1251 q 158 1286 124 1275 q 239 1297 192 1297 q 302 1290 272 1297 q 370 1271 332 1283 q 428 1254 404 1260 q 478 1248 453 1248 m 244 1068 l 469 1068 l 603 849 l 425 849 l 357 972 l 289 849 l 111 849 l 244 1068 z "},"ȅ":{"ha":693,"x_min":-4,"x_max":672,"o":"m 672 301 l 299 301 q 318 239 303 261 q 368 207 334 217 q 461 197 401 197 q 635 221 535 197 l 635 10 q 528 -9 576 -3 q 426 -15 479 -15 q 197 26 284 -15 q 68 156 109 68 q 28 386 28 244 q 66 597 28 509 q 180 730 105 684 q 364 776 256 776 q 594 674 517 776 q 672 378 672 571 l 672 301 m 363 604 q 326 592 339 604 q 306 549 313 581 q 299 460 299 518 l 424 460 q 417 549 424 518 q 398 592 411 581 q 363 604 385 604 m 104 847 l -4 1122 l 213 1122 l 310 847 l 104 847 m 404 847 l 296 1122 l 513 1122 l 610 847 l 404 847 z "},"ë":{"ha":693,"x_min":28,"x_max":672,"o":"m 672 301 l 299 301 q 318 239 303 261 q 368 207 334 217 q 461 197 401 197 q 635 221 535 197 l 635 10 q 528 -9 576 -3 q 426 -15 479 -15 q 197 26 284 -15 q 68 156 109 68 q 28 386 28 244 q 66 597 28 509 q 180 730 105 684 q 364 776 256 776 q 594 674 517 776 q 672 378 672 571 l 672 301 m 363 604 q 326 592 339 604 q 306 549 313 581 q 299 460 299 518 l 424 460 q 417 549 424 518 q 398 592 411 581 q 363 604 385 604 m 189 847 q 85 884 124 847 q 47 985 47 921 q 85 1085 47 1049 q 189 1122 124 1122 q 292 1085 254 1122 q 331 985 331 1049 q 292 884 331 921 q 189 847 254 847 m 525 847 q 422 884 460 847 q 383 985 383 921 q 422 1085 383 1049 q 525 1122 460 1122 q 628 1085 590 1122 q 667 985 667 1049 q 628 884 667 921 q 525 847 590 847 z "},"ė":{"ha":693,"x_min":28,"x_max":672,"o":"m 672 301 l 299 301 q 318 239 303 261 q 368 207 334 217 q 461 197 401 197 q 635 221 535 197 l 635 10 q 528 -9 576 -3 q 426 -15 479 -15 q 197 26 284 -15 q 68 156 109 68 q 28 386 28 244 q 66 597 28 509 q 180 730 105 684 q 364 776 256 776 q 594 674 517 776 q 672 378 672 571 l 672 301 m 363 604 q 326 592 339 604 q 306 549 313 581 q 299 460 299 518 l 424 460 q 417 549 424 518 q 398 592 411 581 q 363 604 385 604 m 357 840 q 234 878 274 840 q 194 985 194 915 q 234 1092 194 1054 q 357 1129 274 1129 q 480 1092 440 1129 q 519 985 519 1054 q 480 878 519 915 q 357 840 440 840 z "},"ẹ":{"ha":693,"x_min":28,"x_max":672,"o":"m 672 301 l 299 301 q 318 239 303 261 q 368 207 334 217 q 461 197 401 197 q 635 221 535 197 l 635 10 q 528 -9 576 -3 q 426 -15 479 -15 q 197 26 284 -15 q 68 156 109 68 q 28 386 28 244 q 66 597 28 509 q 180 730 105 684 q 364 776 256 776 q 594 674 517 776 q 672 378 672 571 l 672 301 m 363 604 q 326 592 339 604 q 306 549 313 581 q 299 460 299 518 l 424 460 q 417 549 424 518 q 398 592 411 581 q 363 604 385 604 m 357 -347 q 253 -310 292 -347 q 215 -210 215 -274 q 253 -109 215 -146 q 357 -72 292 -72 q 460 -109 422 -72 q 499 -210 499 -146 q 460 -310 499 -274 q 357 -347 422 -347 z "},"è":{"ha":693,"x_min":28,"x_max":672,"o":"m 672 301 l 299 301 q 318 239 303 261 q 368 207 334 217 q 461 197 401 197 q 635 221 535 197 l 635 10 q 528 -9 576 -3 q 426 -15 479 -15 q 197 26 284 -15 q 68 156 109 68 q 28 386 28 244 q 66 597 28 509 q 180 730 105 684 q 364 776 256 776 q 594 674 517 776 q 672 378 672 571 l 672 301 m 363 604 q 326 592 339 604 q 306 549 313 581 q 299 460 299 518 l 424 460 q 417 549 424 518 q 398 592 411 581 q 363 604 385 604 m 240 847 l 60 1122 l 329 1122 l 474 847 l 240 847 z "},"ẻ":{"ha":693,"x_min":28,"x_max":672,"o":"m 672 301 l 299 301 q 318 239 303 261 q 368 207 334 217 q 461 197 401 197 q 635 221 535 197 l 635 10 q 528 -9 576 -3 q 426 -15 479 -15 q 197 26 284 -15 q 68 156 109 68 q 28 386 28 244 q 66 597 28 509 q 180 730 105 684 q 364 776 256 776 q 594 674 517 776 q 672 378 672 571 l 672 301 m 363 604 q 326 592 339 604 q 306 549 313 581 q 299 460 299 518 l 424 460 q 417 549 424 518 q 398 592 411 581 q 363 604 385 604 m 292 847 q 310 913 294 889 q 352 958 326 936 q 374 980 367 972 q 381 999 381 988 q 367 1019 381 1013 q 329 1026 353 1026 q 221 1010 275 1026 l 221 1113 q 284 1126 248 1121 q 353 1131 320 1131 q 481 1103 439 1131 q 524 1018 524 1076 q 516 974 524 992 q 498 944 508 956 q 469 917 487 932 q 436 884 447 899 q 422 847 425 870 l 292 847 z "},"ȇ":{"ha":693,"x_min":28,"x_max":672,"o":"m 672 301 l 299 301 q 318 239 303 261 q 368 207 334 217 q 461 197 401 197 q 635 221 535 197 l 635 10 q 528 -9 576 -3 q 426 -15 479 -15 q 197 26 284 -15 q 68 156 109 68 q 28 386 28 244 q 66 597 28 509 q 180 730 105 684 q 364 776 256 776 q 594 674 517 776 q 672 378 672 571 l 672 301 m 363 604 q 326 592 339 604 q 306 549 313 581 q 299 460 299 518 l 424 460 q 417 549 424 518 q 398 592 411 581 q 363 604 385 604 m 111 867 q 182 1058 118 997 q 357 1119 246 1119 q 530 1058 465 1119 q 603 867 596 996 l 442 867 q 357 988 436 988 q 295 960 315 988 q 272 867 275 932 l 111 867 z "},"ē":{"ha":693,"x_min":28,"x_max":672,"o":"m 672 301 l 299 301 q 318 239 303 261 q 368 207 334 217 q 461 197 401 197 q 635 221 535 197 l 635 10 q 528 -9 576 -3 q 426 -15 479 -15 q 197 26 284 -15 q 68 156 109 68 q 28 386 28 244 q 66 597 28 509 q 180 730 105 684 q 364 776 256 776 q 594 674 517 776 q 672 378 672 571 l 672 301 m 363 604 q 326 592 339 604 q 306 549 313 581 q 299 460 299 518 l 424 460 q 417 549 424 518 q 398 592 411 581 q 363 604 385 604 m 110 900 l 110 1071 l 604 1071 l 604 900 l 110 900 z "},"ḗ":{"ha":693,"x_min":28,"x_max":672,"o":"m 672 301 l 299 301 q 318 239 303 261 q 368 207 334 217 q 461 197 401 197 q 635 221 535 197 l 635 10 q 528 -9 576 -3 q 426 -15 479 -15 q 197 26 284 -15 q 68 156 109 68 q 28 386 28 244 q 66 597 28 509 q 180 730 105 684 q 364 776 256 776 q 594 674 517 776 q 672 378 672 571 l 672 301 m 363 604 q 326 592 339 604 q 306 549 313 581 q 299 460 299 518 l 424 460 q 417 549 424 518 q 398 592 411 581 q 363 604 385 604 m 110 900 l 110 1071 l 604 1071 l 604 900 l 110 900 m 238 1168 l 350 1388 l 628 1388 l 476 1168 l 238 1168 z "},"ḕ":{"ha":693,"x_min":28,"x_max":672,"o":"m 672 301 l 299 301 q 318 239 303 261 q 368 207 334 217 q 461 197 401 197 q 635 221 535 197 l 635 10 q 528 -9 576 -3 q 426 -15 479 -15 q 197 26 284 -15 q 68 156 109 68 q 28 386 28 244 q 66 597 28 509 q 180 730 105 684 q 364 776 256 776 q 594 674 517 776 q 672 378 672 571 l 672 301 m 363 604 q 326 592 339 604 q 306 549 313 581 q 299 460 299 518 l 424 460 q 417 549 424 518 q 398 592 411 581 q 363 604 385 604 m 110 900 l 110 1071 l 604 1071 l 604 900 l 110 900 m 238 1168 l 86 1388 l 364 1388 l 476 1168 l 238 1168 z "},"ę":{"ha":693,"x_min":28,"x_max":672,"o":"m 672 301 l 299 301 q 318 239 303 261 q 368 207 334 217 q 461 197 401 197 q 635 221 535 197 l 635 10 q 511 -68 544 -28 q 478 -150 478 -107 q 497 -196 478 -180 q 553 -212 516 -212 q 635 -194 587 -212 l 635 -299 q 579 -314 606 -308 q 517 -319 551 -319 q 376 -278 424 -319 q 328 -165 328 -237 q 346 -83 328 -119 q 407 -15 365 -47 q 189 30 272 -12 q 67 160 106 73 q 28 386 28 247 q 66 597 28 509 q 180 730 105 684 q 364 776 256 776 q 594 674 517 776 q 672 378 672 571 l 672 301 m 363 597 q 326 585 339 597 q 306 542 313 574 q 299 453 299 511 l 424 453 q 417 542 424 511 q 398 585 411 574 q 363 597 385 597 z "},"ẽ":{"ha":693,"x_min":28,"x_max":672,"o":"m 672 301 l 299 301 q 318 239 303 261 q 368 207 334 217 q 461 197 401 197 q 635 221 535 197 l 635 10 q 528 -9 576 -3 q 426 -15 479 -15 q 197 26 284 -15 q 68 156 109 68 q 28 386 28 244 q 66 597 28 509 q 180 730 105 684 q 364 776 256 776 q 594 674 517 776 q 672 378 672 571 l 672 301 m 363 604 q 326 592 339 604 q 306 549 313 581 q 299 460 299 518 l 424 460 q 417 549 424 518 q 398 592 411 581 q 363 604 385 604 m 467 868 q 409 877 436 868 q 344 904 383 886 q 287 927 308 920 q 244 935 267 935 q 174 920 206 935 q 110 872 142 905 l 110 1046 q 170 1089 138 1076 q 247 1103 203 1103 q 305 1094 278 1103 q 370 1067 331 1085 q 427 1043 406 1051 q 469 1036 447 1036 q 540 1051 508 1036 q 604 1099 572 1066 l 604 925 q 543 882 576 895 q 467 868 510 868 z "},"ə":{"ha":693,"x_min":21,"x_max":665,"o":"m 267 779 q 497 738 409 779 q 625 608 584 696 q 665 378 665 520 q 627 167 665 255 q 513 34 588 80 q 329 -12 438 -12 q 99 90 176 -12 q 21 386 21 193 l 21 463 l 394 463 q 375 525 390 503 q 325 557 359 547 q 232 567 292 567 q 58 543 158 567 l 58 754 q 165 773 117 767 q 267 779 214 779 m 331 160 q 367 172 354 160 q 387 215 381 183 q 394 304 394 246 l 269 304 q 276 215 269 246 q 295 172 282 183 q 331 160 308 160 z "},"f":{"ha":514,"x_min":6,"x_max":556,"o":"m 497 921 q 397 895 426 921 q 367 811 367 869 l 367 764 l 526 764 l 526 556 l 367 556 l 367 0 l 103 0 l 103 556 l 6 556 l 6 764 l 103 764 l 103 793 q 191 1047 103 958 q 454 1136 280 1136 q 556 1128 510 1136 l 556 917 q 497 921 522 921 z "},"g":{"ha":767,"x_min":28,"x_max":713,"o":"m 304 -319 q 192 -314 251 -319 q 83 -296 133 -308 l 83 -85 q 279 -110 181 -110 q 404 -74 364 -110 q 444 46 444 -38 l 444 83 l 432 83 q 371 16 410 40 q 281 -7 333 -7 q 157 34 215 -7 q 64 159 99 74 q 28 368 28 243 q 126 672 28 568 q 435 776 224 776 q 579 765 506 776 q 713 731 653 753 l 713 94 q 667 -142 713 -51 q 532 -277 622 -234 q 304 -319 442 -319 m 400 214 q 444 222 426 214 l 444 571 q 410 574 422 574 q 350 558 374 574 q 314 502 326 542 q 301 392 301 462 q 312 282 301 320 q 343 229 322 244 q 400 214 364 214 z "},"ǵ":{"ha":767,"x_min":28,"x_max":713,"o":"m 304 -319 q 192 -314 251 -319 q 83 -296 133 -308 l 83 -85 q 279 -110 181 -110 q 404 -74 364 -110 q 444 46 444 -38 l 444 83 l 432 83 q 371 16 410 40 q 281 -7 333 -7 q 157 34 215 -7 q 64 159 99 74 q 28 368 28 243 q 126 672 28 568 q 435 776 224 776 q 579 765 506 776 q 713 731 653 753 l 713 94 q 667 -142 713 -51 q 532 -277 622 -234 q 304 -319 442 -319 m 400 214 q 444 222 426 214 l 444 571 q 410 574 422 574 q 350 558 374 574 q 314 502 326 542 q 301 392 301 462 q 312 282 301 320 q 343 229 322 244 q 400 214 364 214 m 281 847 l 425 1122 l 694 1122 l 514 847 l 281 847 z "},"ğ":{"ha":767,"x_min":28,"x_max":713,"o":"m 304 -319 q 192 -314 251 -319 q 83 -296 133 -308 l 83 -85 q 279 -110 181 -110 q 404 -74 364 -110 q 444 46 444 -38 l 444 83 l 432 83 q 371 16 410 40 q 281 -7 333 -7 q 157 34 215 -7 q 64 159 99 74 q 28 368 28 243 q 126 672 28 568 q 435 776 224 776 q 579 765 506 776 q 713 731 653 753 l 713 94 q 667 -142 713 -51 q 532 -277 622 -234 q 304 -319 442 -319 m 400 214 q 444 222 426 214 l 444 571 q 410 574 422 574 q 350 558 374 574 q 314 502 326 542 q 301 392 301 462 q 312 282 301 320 q 343 229 322 244 q 400 214 364 214 m 397 856 q 223 917 288 856 q 151 1108 158 979 l 313 1108 q 397 992 318 992 q 482 1108 476 992 l 643 1108 q 571 917 636 979 q 397 856 506 856 z "},"ǧ":{"ha":767,"x_min":28,"x_max":713,"o":"m 304 -319 q 192 -314 251 -319 q 83 -296 133 -308 l 83 -85 q 279 -110 181 -110 q 404 -74 364 -110 q 444 46 444 -38 l 444 83 l 432 83 q 371 16 410 40 q 281 -7 333 -7 q 157 34 215 -7 q 64 159 99 74 q 28 368 28 243 q 126 672 28 568 q 435 776 224 776 q 579 765 506 776 q 713 731 653 753 l 713 94 q 667 -142 713 -51 q 532 -277 622 -234 q 304 -319 442 -319 m 400 214 q 444 222 426 214 l 444 571 q 410 574 422 574 q 350 558 374 574 q 314 502 326 542 q 301 392 301 462 q 312 282 301 320 q 343 229 322 244 q 400 214 364 214 m 465 1122 l 643 1122 l 510 847 l 285 847 l 151 1122 l 329 1122 l 397 968 l 465 1122 z "},"ĝ":{"ha":767,"x_min":28,"x_max":713,"o":"m 304 -319 q 192 -314 251 -319 q 83 -296 133 -308 l 83 -85 q 279 -110 181 -110 q 404 -74 364 -110 q 444 46 444 -38 l 444 83 l 432 83 q 371 16 410 40 q 281 -7 333 -7 q 157 34 215 -7 q 64 159 99 74 q 28 368 28 243 q 126 672 28 568 q 435 776 224 776 q 579 765 506 776 q 713 731 653 753 l 713 94 q 667 -142 713 -51 q 532 -277 622 -234 q 304 -319 442 -319 m 400 214 q 444 222 426 214 l 444 571 q 410 574 422 574 q 350 558 374 574 q 314 502 326 542 q 301 392 301 462 q 312 282 301 320 q 343 229 322 244 q 400 214 364 214 m 643 847 l 465 847 l 397 1001 l 329 847 l 151 847 l 285 1122 l 510 1122 l 643 847 z "},"ģ":{"ha":767,"x_min":28,"x_max":713,"o":"m 304 -319 q 192 -314 251 -319 q 83 -296 133 -308 l 83 -85 q 279 -110 181 -110 q 404 -74 364 -110 q 444 46 444 -38 l 444 83 l 432 83 q 371 16 410 40 q 281 -7 333 -7 q 157 34 215 -7 q 64 159 99 74 q 28 368 28 243 q 126 672 28 568 q 435 776 224 776 q 579 765 506 776 q 713 731 653 753 l 713 94 q 667 -142 713 -51 q 532 -277 622 -234 q 304 -319 442 -319 m 400 214 q 444 222 426 214 l 444 571 q 410 574 422 574 q 350 558 374 574 q 314 502 326 542 q 301 392 301 462 q 312 282 301 320 q 343 229 322 244 q 400 214 364 214 m 440 1024 q 517 994 492 1017 q 542 933 542 970 q 506 865 542 889 q 397 842 471 842 q 253 963 253 842 q 270 1049 253 1003 q 314 1128 288 1095 l 483 1128 q 455 1069 465 1093 q 440 1024 444 1045 z "},"ġ":{"ha":767,"x_min":28,"x_max":713,"o":"m 304 -319 q 192 -314 251 -319 q 83 -296 133 -308 l 83 -85 q 279 -110 181 -110 q 404 -74 364 -110 q 444 46 444 -38 l 444 83 l 432 83 q 371 16 410 40 q 281 -7 333 -7 q 157 34 215 -7 q 64 159 99 74 q 28 368 28 243 q 126 672 28 568 q 435 776 224 776 q 579 765 506 776 q 713 731 653 753 l 713 94 q 667 -142 713 -51 q 532 -277 622 -234 q 304 -319 442 -319 m 400 214 q 444 222 426 214 l 444 571 q 410 574 422 574 q 350 558 374 574 q 314 502 326 542 q 301 392 301 462 q 312 282 301 320 q 343 229 322 244 q 400 214 364 214 m 397 840 q 275 878 315 840 q 235 985 235 915 q 275 1092 235 1054 q 397 1129 315 1129 q 520 1092 480 1129 q 560 985 560 1054 q 520 878 560 915 q 397 840 480 840 z "},"ḡ":{"ha":767,"x_min":28,"x_max":713,"o":"m 304 -319 q 192 -314 251 -319 q 83 -296 133 -308 l 83 -85 q 279 -110 181 -110 q 404 -74 364 -110 q 444 46 444 -38 l 444 83 l 432 83 q 371 16 410 40 q 281 -7 333 -7 q 157 34 215 -7 q 64 159 99 74 q 28 368 28 243 q 126 672 28 568 q 435 776 224 776 q 579 765 506 776 q 713 731 653 753 l 713 94 q 667 -142 713 -51 q 532 -277 622 -234 q 304 -319 442 -319 m 400 214 q 444 222 426 214 l 444 571 q 410 574 422 574 q 350 558 374 574 q 314 502 326 542 q 301 392 301 462 q 312 282 301 320 q 343 229 322 244 q 400 214 364 214 m 150 900 l 150 1071 l 644 1071 l 644 900 l 150 900 z "},"h":{"ha":763,"x_min":54,"x_max":711,"o":"m 54 1122 l 322 1122 l 322 686 l 335 686 q 402 753 361 731 q 506 776 443 776 q 610 748 564 776 q 684 656 656 719 q 711 492 711 592 l 711 0 l 443 0 l 443 467 q 429 523 443 506 q 389 539 415 539 q 352 531 371 539 q 322 511 333 524 l 322 0 l 54 0 l 54 1122 z "},"ħ":{"ha":763,"x_min":0,"x_max":711,"o":"m 506 776 q 610 748 564 776 q 684 656 656 719 q 711 492 711 592 l 711 0 l 443 0 l 443 467 q 429 523 443 506 q 389 539 415 539 q 352 531 371 539 q 322 511 333 524 l 322 0 l 54 0 l 54 847 l 0 847 l 0 1028 l 54 1028 l 54 1122 l 322 1122 l 322 1028 l 482 1028 l 482 847 l 322 847 l 322 686 l 335 686 q 402 753 361 731 q 506 776 443 776 z "},"ḫ":{"ha":763,"x_min":54,"x_max":711,"o":"m 54 1122 l 322 1122 l 322 686 l 335 686 q 402 753 361 731 q 506 776 443 776 q 610 748 564 776 q 684 656 656 719 q 711 492 711 592 l 711 0 l 443 0 l 443 467 q 429 523 443 506 q 389 539 415 539 q 352 531 371 539 q 322 511 333 524 l 322 0 l 54 0 l 54 1122 m 383 -333 q 206 -272 270 -333 q 138 -97 142 -210 l 299 -97 q 320 -176 300 -151 q 383 -201 341 -201 q 445 -176 425 -201 q 468 -97 466 -151 l 629 -97 q 561 -272 625 -210 q 383 -333 497 -333 z "},"ĥ":{"ha":763,"x_min":54,"x_max":711,"o":"m 54 1122 l 322 1122 l 322 686 l 335 686 q 402 753 361 731 q 506 776 443 776 q 610 748 564 776 q 684 656 656 719 q 711 492 711 592 l 711 0 l 443 0 l 443 467 q 429 523 443 506 q 389 539 415 539 q 352 531 371 539 q 322 511 333 524 l 322 0 l 54 0 l 54 1122 m 629 1168 l 451 1168 l 383 1292 l 315 1168 l 138 1168 l 271 1388 l 496 1388 l 629 1168 z "},"ḥ":{"ha":763,"x_min":54,"x_max":711,"o":"m 54 1122 l 322 1122 l 322 686 l 335 686 q 402 753 361 731 q 506 776 443 776 q 610 748 564 776 q 684 656 656 719 q 711 492 711 592 l 711 0 l 443 0 l 443 467 q 429 523 443 506 q 389 539 415 539 q 352 531 371 539 q 322 511 333 524 l 322 0 l 54 0 l 54 1122 m 383 -347 q 280 -310 318 -347 q 242 -210 242 -274 q 280 -109 242 -146 q 383 -72 318 -72 q 487 -109 449 -72 q 525 -210 525 -146 q 487 -310 525 -274 q 383 -347 449 -347 z "},"i":{"ha":378,"x_min":26,"x_max":351,"o":"m 54 0 l 54 764 l 324 764 l 324 0 l 54 0 m 189 840 q 66 878 106 840 q 26 985 26 915 q 66 1092 26 1054 q 189 1129 106 1129 q 311 1092 272 1129 q 351 985 351 1054 q 311 878 351 915 q 189 840 272 840 z "},"ı":{"ha":378,"x_min":54,"x_max":324,"o":"m 54 0 l 54 764 l 324 764 l 324 0 l 54 0 z "},"í":{"ha":378,"x_min":54,"x_max":486,"o":"m 54 0 l 54 764 l 324 764 l 324 0 l 54 0 m 72 847 l 217 1122 l 486 1122 l 306 847 l 72 847 z "},"ĭ":{"ha":378,"x_min":-57,"x_max":435,"o":"m 54 0 l 54 764 l 324 764 l 324 0 l 54 0 m 189 856 q 15 917 80 856 q -57 1108 -50 979 l 104 1108 q 189 992 110 992 q 274 1108 268 992 l 435 1108 q 363 917 428 979 q 189 856 298 856 z "},"î":{"ha":378,"x_min":-57,"x_max":435,"o":"m 54 0 l 54 764 l 324 764 l 324 0 l 54 0 m 435 847 l 257 847 l 189 1001 l 121 847 l -57 847 l 76 1122 l 301 1122 l 435 847 z "},"ȉ":{"ha":378,"x_min":-172,"x_max":442,"o":"m 54 0 l 54 764 l 324 764 l 324 0 l 54 0 m -64 847 l -172 1122 l 44 1122 l 142 847 l -64 847 m 236 847 l 128 1122 l 344 1122 l 442 847 l 236 847 z "},"ï":{"ha":378,"x_min":-121,"x_max":499,"o":"m 54 0 l 54 764 l 324 764 l 324 0 l 54 0 m 21 847 q -83 884 -44 847 q -121 985 -121 921 q -83 1085 -121 1049 q 21 1122 -44 1122 q 124 1085 86 1122 q 163 985 163 1049 q 124 884 163 921 q 21 847 86 847 m 357 847 q 253 884 292 847 q 215 985 215 921 q 253 1085 215 1049 q 357 1122 292 1122 q 460 1085 422 1122 q 499 985 499 1049 q 460 884 499 921 q 357 847 422 847 z "},"ḯ":{"ha":378,"x_min":-121,"x_max":499,"o":"m 54 0 l 54 764 l 324 764 l 324 0 l 54 0 m 21 847 q -83 884 -44 847 q -121 985 -121 921 q -83 1085 -121 1049 q 21 1122 -44 1122 q 124 1085 86 1122 q 163 985 163 1049 q 124 884 163 921 q 21 847 86 847 m 357 847 q 253 884 292 847 q 215 985 215 921 q 253 1085 215 1049 q 357 1122 292 1122 q 460 1085 422 1122 q 499 985 499 1049 q 460 884 499 921 q 357 847 422 847 m 69 1168 l 182 1388 l 460 1388 l 308 1168 l 69 1168 z "},"ị":{"ha":378,"x_min":26,"x_max":351,"o":"m 54 0 l 54 764 l 324 764 l 324 0 l 54 0 m 189 840 q 66 878 106 840 q 26 985 26 915 q 66 1092 26 1054 q 189 1129 106 1129 q 311 1092 272 1129 q 351 985 351 1054 q 311 878 351 915 q 189 840 272 840 m 189 -347 q 85 -310 124 -347 q 47 -210 47 -274 q 85 -109 47 -146 q 189 -72 124 -72 q 292 -109 254 -72 q 331 -210 331 -146 q 292 -310 331 -274 q 189 -347 254 -347 z "},"ì":{"ha":378,"x_min":-108,"x_max":324,"o":"m 54 0 l 54 764 l 324 764 l 324 0 l 54 0 m 72 847 l -108 1122 l 161 1122 l 306 847 l 72 847 z "},"ỉ":{"ha":378,"x_min":53,"x_max":356,"o":"m 54 0 l 54 764 l 324 764 l 324 0 l 54 0 m 124 847 q 142 913 126 889 q 184 958 158 936 q 206 980 199 972 q 213 999 213 988 q 199 1019 213 1013 q 161 1026 185 1026 q 53 1010 107 1026 l 53 1113 q 116 1126 80 1121 q 185 1131 152 1131 q 313 1103 271 1131 q 356 1018 356 1076 q 348 974 356 992 q 330 944 340 956 q 301 917 319 932 q 268 884 279 899 q 254 847 257 870 l 124 847 z "},"ȋ":{"ha":378,"x_min":-57,"x_max":435,"o":"m 54 0 l 54 764 l 324 764 l 324 0 l 54 0 m -57 867 q 14 1058 -50 997 q 189 1119 78 1119 q 362 1058 297 1119 q 435 867 428 996 l 274 867 q 189 988 268 988 q 127 960 147 988 q 104 867 107 932 l -57 867 z "},"ī":{"ha":378,"x_min":-58,"x_max":436,"o":"m 54 0 l 54 764 l 324 764 l 324 0 l 54 0 m -58 900 l -58 1071 l 436 1071 l 436 900 l -58 900 z "},"į":{"ha":378,"x_min":17,"x_max":351,"o":"m 189 840 q 66 878 106 840 q 26 985 26 915 q 66 1092 26 1054 q 189 1129 106 1129 q 311 1092 272 1129 q 351 985 351 1054 q 311 878 351 915 q 189 840 272 840 m 54 764 l 324 764 l 324 0 q 200 -71 233 -35 q 167 -150 167 -107 q 186 -196 167 -180 q 242 -212 205 -212 q 324 -194 276 -212 l 324 -299 q 268 -314 295 -308 q 206 -319 240 -319 q 65 -278 113 -319 q 17 -165 17 -237 q 40 -74 17 -114 q 119 0 63 -35 l 54 0 l 54 764 z "},"ĩ":{"ha":378,"x_min":-58,"x_max":436,"o":"m 54 0 l 54 764 l 324 764 l 324 0 l 54 0 m 299 868 q 241 877 268 868 q 176 904 215 886 q 119 927 140 920 q 76 935 99 935 q 6 920 38 935 q -58 872 -26 905 l -58 1046 q 2 1089 -31 1076 q 79 1103 35 1103 q 136 1094 110 1103 q 202 1067 163 1085 q 259 1043 238 1051 q 301 1036 279 1036 q 372 1051 340 1036 q 436 1099 403 1066 l 436 925 q 375 882 408 895 q 299 868 342 868 z "},"j":{"ha":378,"x_min":-42,"x_max":351,"o":"m -42 -214 q 34 -60 13 -135 q 54 125 54 15 l 54 764 l 324 764 l 324 136 q 281 -109 324 1 q 136 -331 238 -220 l -42 -214 m 189 840 q 66 878 106 840 q 26 985 26 915 q 66 1092 26 1054 q 189 1129 106 1129 q 311 1092 272 1129 q 351 985 351 1054 q 311 878 351 915 q 189 840 272 840 z "},"ȷ":{"ha":378,"x_min":-42,"x_max":324,"o":"m -42 -214 q 34 -60 13 -135 q 54 125 54 15 l 54 764 l 324 764 l 324 136 q 281 -109 324 1 q 136 -331 238 -220 l -42 -214 z "},"ĵ":{"ha":378,"x_min":-57,"x_max":435,"o":"m -42 -214 q 34 -60 13 -135 q 54 125 54 15 l 54 764 l 324 764 l 324 136 q 281 -109 324 1 q 136 -331 238 -220 l -42 -214 m 435 847 l 257 847 l 189 1001 l 121 847 l -57 847 l 76 1122 l 301 1122 l 435 847 z "},"k":{"ha":757,"x_min":54,"x_max":788,"o":"m 501 0 l 347 289 l 322 289 l 322 0 l 54 0 l 54 1122 l 322 1122 l 322 497 l 344 497 l 483 764 l 763 764 l 573 399 l 788 0 l 501 0 z "},"ķ":{"ha":757,"x_min":54,"x_max":788,"o":"m 501 0 l 347 289 l 322 289 l 322 0 l 54 0 l 54 1122 l 322 1122 l 322 497 l 344 497 l 483 764 l 763 764 l 573 399 l 788 0 l 501 0 m 407 -72 q 551 -193 551 -72 q 534 -280 551 -233 q 490 -358 516 -326 l 321 -358 q 349 -300 339 -324 q 364 -254 360 -276 q 288 -224 313 -248 q 263 -164 263 -201 q 298 -96 263 -119 q 407 -72 333 -72 z "},"ĸ":{"ha":757,"x_min":54,"x_max":788,"o":"m 501 0 l 347 289 l 322 289 l 322 0 l 54 0 l 54 764 l 322 764 l 322 497 l 344 497 l 483 764 l 763 764 l 573 399 l 788 0 l 501 0 z "},"l":{"ha":376,"x_min":54,"x_max":322,"o":"m 54 0 l 54 1122 l 322 1122 l 322 0 l 54 0 z "},"ĺ":{"ha":376,"x_min":54,"x_max":460,"o":"m 54 0 l 54 1122 l 322 1122 l 322 0 l 54 0 m 69 1168 l 182 1388 l 460 1388 l 308 1168 l 69 1168 z "},"ľ":{"ha":376,"x_min":54,"x_max":557,"o":"m 54 0 l 54 1122 l 322 1122 l 322 0 l 54 0 m 356 819 q 373 967 368 899 q 378 1122 378 1035 l 557 1122 q 543 957 557 1035 q 503 819 528 878 l 356 819 z "},"ļ":{"ha":376,"x_min":44,"x_max":333,"o":"m 54 0 l 54 1122 l 322 1122 l 322 0 l 54 0 m 189 -72 q 333 -193 333 -72 q 316 -280 333 -233 q 272 -358 298 -326 l 103 -358 q 131 -300 121 -324 q 146 -254 142 -276 q 69 -224 94 -248 q 44 -164 44 -201 q 80 -96 44 -119 q 189 -72 115 -72 z "},"ŀ":{"ha":671,"x_min":54,"x_max":686,"o":"m 54 0 l 54 1122 l 322 1122 l 322 0 l 54 0 m 524 407 q 401 444 441 407 q 361 551 361 482 q 401 658 361 621 q 524 696 441 696 q 646 658 606 696 q 686 551 686 621 q 646 444 686 482 q 524 407 606 407 z "},"ḷ":{"ha":376,"x_min":47,"x_max":331,"o":"m 54 0 l 54 1122 l 322 1122 l 322 0 l 54 0 m 189 -347 q 85 -310 124 -347 q 47 -210 47 -274 q 85 -109 47 -146 q 189 -72 124 -72 q 292 -109 254 -72 q 331 -210 331 -146 q 292 -310 331 -274 q 189 -347 254 -347 z "},"ǉ":{"ha":754,"x_min":54,"x_max":728,"o":"m 54 0 l 54 1122 l 322 1122 l 322 0 l 54 0 m 335 -214 q 410 -60 390 -135 q 431 125 431 15 l 431 764 l 700 764 l 700 136 q 657 -109 700 1 q 513 -331 615 -220 l 335 -214 m 565 840 q 443 878 483 840 q 403 985 403 915 q 443 1092 403 1054 q 565 1129 483 1129 q 688 1092 648 1129 q 728 985 728 1054 q 688 878 728 915 q 565 840 648 840 z "},"ḻ":{"ha":376,"x_min":-58,"x_max":436,"o":"m 54 0 l 54 1122 l 322 1122 l 322 0 l 54 0 m -58 -292 l -58 -122 l 436 -122 l 436 -292 l -58 -292 z "},"ł":{"ha":446,"x_min":-31,"x_max":478,"o":"m 478 522 l 357 465 l 357 0 l 89 0 l 89 336 l 46 315 l -31 469 l 89 526 l 89 1122 l 357 1122 l 357 655 l 401 676 l 478 522 z "},"m":{"ha":1131,"x_min":54,"x_max":1079,"o":"m 853 776 q 1018 708 956 776 q 1079 489 1079 640 l 1079 0 l 811 0 l 811 474 q 757 539 811 539 q 727 534 743 539 q 699 519 711 528 l 699 506 l 699 0 l 436 0 l 436 474 q 423 524 436 509 q 385 539 410 539 q 350 531 368 539 q 322 511 333 524 l 322 0 l 54 0 l 54 764 l 276 764 l 296 686 l 307 686 q 387 754 342 731 q 493 776 433 776 q 590 754 547 776 q 660 684 633 731 q 745 752 695 728 q 853 776 796 776 z "},"ṃ":{"ha":1131,"x_min":54,"x_max":1079,"o":"m 853 776 q 1018 708 956 776 q 1079 489 1079 640 l 1079 0 l 811 0 l 811 474 q 757 539 811 539 q 727 534 743 539 q 699 519 711 528 l 699 506 l 699 0 l 436 0 l 436 474 q 423 524 436 509 q 385 539 410 539 q 350 531 368 539 q 322 511 333 524 l 322 0 l 54 0 l 54 764 l 276 764 l 296 686 l 307 686 q 387 754 342 731 q 493 776 433 776 q 590 754 547 776 q 660 684 633 731 q 745 752 695 728 q 853 776 796 776 m 568 -347 q 465 -310 503 -347 q 426 -210 426 -274 q 465 -109 426 -146 q 568 -72 503 -72 q 672 -109 633 -72 q 710 -210 710 -146 q 672 -310 710 -274 q 568 -347 633 -347 z "},"n":{"ha":763,"x_min":54,"x_max":711,"o":"m 54 764 l 276 764 l 296 686 l 307 686 q 490 776 374 776 q 651 708 591 776 q 711 492 711 640 l 711 0 l 443 0 l 443 471 q 429 524 443 508 q 389 539 415 539 q 352 531 369 539 q 322 511 334 524 l 322 0 l 54 0 l 54 764 z "},"ń":{"ha":763,"x_min":54,"x_max":711,"o":"m 54 764 l 276 764 l 296 686 l 307 686 q 490 776 374 776 q 651 708 591 776 q 711 492 711 640 l 711 0 l 443 0 l 443 471 q 429 524 443 508 q 389 539 415 539 q 352 531 369 539 q 322 511 334 524 l 322 0 l 54 0 l 54 764 m 267 847 l 411 1122 l 681 1122 l 500 847 l 267 847 z "},"ŉ":{"ha":763,"x_min":7,"x_max":711,"o":"m 54 764 l 276 764 l 296 686 l 307 686 q 490 776 374 776 q 651 708 591 776 q 711 492 711 640 l 711 0 l 443 0 l 443 471 q 429 524 443 508 q 389 539 415 539 q 352 531 369 539 q 322 511 334 524 l 322 0 l 54 0 l 54 764 m 151 1128 q 296 1007 296 1128 q 278 920 296 967 q 235 842 260 874 l 65 842 q 94 900 83 876 q 108 946 104 924 q 32 976 57 952 q 7 1036 7 999 q 42 1104 7 1081 q 151 1128 78 1128 z "},"ň":{"ha":763,"x_min":54,"x_max":711,"o":"m 54 764 l 276 764 l 296 686 l 307 686 q 490 776 374 776 q 651 708 591 776 q 711 492 711 640 l 711 0 l 443 0 l 443 471 q 429 524 443 508 q 389 539 415 539 q 352 531 369 539 q 322 511 334 524 l 322 0 l 54 0 l 54 764 m 451 1122 l 629 1122 l 496 847 l 271 847 l 138 1122 l 315 1122 l 383 968 l 451 1122 z "},"ņ":{"ha":763,"x_min":54,"x_max":711,"o":"m 54 764 l 276 764 l 296 686 l 307 686 q 490 776 374 776 q 651 708 591 776 q 711 492 711 640 l 711 0 l 443 0 l 443 471 q 429 524 443 508 q 389 539 415 539 q 352 531 369 539 q 322 511 334 524 l 322 0 l 54 0 l 54 764 m 383 -72 q 528 -193 528 -72 q 510 -280 528 -233 q 467 -358 492 -326 l 297 -358 q 326 -300 315 -324 q 340 -254 336 -276 q 264 -224 289 -248 q 239 -164 239 -201 q 274 -96 239 -119 q 383 -72 310 -72 z "},"ṅ":{"ha":763,"x_min":54,"x_max":711,"o":"m 54 764 l 276 764 l 296 686 l 307 686 q 490 776 374 776 q 651 708 591 776 q 711 492 711 640 l 711 0 l 443 0 l 443 471 q 429 524 443 508 q 389 539 415 539 q 352 531 369 539 q 322 511 334 524 l 322 0 l 54 0 l 54 764 m 383 840 q 261 878 301 840 q 221 985 221 915 q 261 1092 221 1054 q 383 1129 301 1129 q 506 1092 466 1129 q 546 985 546 1054 q 506 878 546 915 q 383 840 466 840 z "},"ṇ":{"ha":763,"x_min":54,"x_max":711,"o":"m 54 764 l 276 764 l 296 686 l 307 686 q 490 776 374 776 q 651 708 591 776 q 711 492 711 640 l 711 0 l 443 0 l 443 471 q 429 524 443 508 q 389 539 415 539 q 352 531 369 539 q 322 511 334 524 l 322 0 l 54 0 l 54 764 m 383 -347 q 280 -310 318 -347 q 242 -210 242 -274 q 280 -109 242 -146 q 383 -72 318 -72 q 487 -109 449 -72 q 525 -210 525 -146 q 487 -310 525 -274 q 383 -347 449 -347 z "},"ŋ":{"ha":763,"x_min":54,"x_max":711,"o":"m 347 -214 q 423 -60 402 -135 q 443 125 443 15 l 443 474 q 429 530 443 513 q 389 546 415 546 q 352 538 371 546 q 322 518 333 531 l 322 0 l 54 0 l 54 764 l 276 764 l 296 686 l 307 686 q 388 754 343 731 q 490 776 433 776 q 651 708 592 776 q 711 492 711 640 l 711 136 q 669 -110 711 1 q 525 -331 626 -221 l 347 -214 z "},"ǌ":{"ha":1140,"x_min":54,"x_max":1114,"o":"m 54 764 l 276 764 l 296 686 l 307 686 q 490 776 374 776 q 651 708 591 776 q 711 492 711 640 l 711 0 l 443 0 l 443 471 q 429 524 443 508 q 389 539 415 539 q 352 531 369 539 q 322 511 334 524 l 322 0 l 54 0 l 54 764 m 721 -214 q 796 -60 776 -135 q 817 125 817 15 l 817 764 l 1086 764 l 1086 136 q 1043 -109 1086 1 q 899 -331 1001 -220 l 721 -214 m 951 840 q 829 878 869 840 q 789 985 789 915 q 829 1092 789 1054 q 951 1129 869 1129 q 1074 1092 1034 1129 q 1114 985 1114 1054 q 1074 878 1114 915 q 951 840 1034 840 z "},"ṉ":{"ha":763,"x_min":54,"x_max":711,"o":"m 54 764 l 276 764 l 296 686 l 307 686 q 490 776 374 776 q 651 708 591 776 q 711 492 711 640 l 711 0 l 443 0 l 443 471 q 429 524 443 508 q 389 539 415 539 q 352 531 369 539 q 322 511 334 524 l 322 0 l 54 0 l 54 764 m 136 -292 l 136 -122 l 631 -122 l 631 -292 l 136 -292 z "},"ñ":{"ha":763,"x_min":54,"x_max":711,"o":"m 54 764 l 276 764 l 296 686 l 307 686 q 490 776 374 776 q 651 708 591 776 q 711 492 711 640 l 711 0 l 443 0 l 443 471 q 429 524 443 508 q 389 539 415 539 q 352 531 369 539 q 322 511 334 524 l 322 0 l 54 0 l 54 764 m 493 868 q 436 877 463 868 q 370 904 409 886 q 314 927 334 920 q 271 935 293 935 q 200 920 232 935 q 136 872 169 905 l 136 1046 q 197 1089 164 1076 q 274 1103 230 1103 q 331 1094 304 1103 q 397 1067 358 1085 q 453 1043 433 1051 q 496 1036 474 1036 q 566 1051 535 1036 q 631 1099 598 1066 l 631 925 q 570 882 603 895 q 493 868 537 868 z "},"o":{"ha":742,"x_min":28,"x_max":714,"o":"m 371 -15 q 116 82 203 -15 q 28 376 28 179 q 116 677 28 578 q 371 776 203 776 q 625 676 537 776 q 714 379 714 575 q 626 83 714 181 q 371 -15 538 -15 m 371 182 q 411 197 397 182 q 433 253 426 211 q 440 376 440 295 q 432 504 440 460 q 410 564 424 548 q 371 579 395 579 q 332 564 347 579 q 309 505 317 548 q 301 379 301 461 q 309 254 301 297 q 331 197 316 211 q 371 182 345 182 z "},"ó":{"ha":742,"x_min":28,"x_max":714,"o":"m 371 -15 q 116 82 203 -15 q 28 376 28 179 q 116 677 28 578 q 371 776 203 776 q 625 676 537 776 q 714 379 714 575 q 626 83 714 181 q 371 -15 538 -15 m 371 182 q 411 197 397 182 q 433 253 426 211 q 440 376 440 295 q 432 504 440 460 q 410 564 424 548 q 371 579 395 579 q 332 564 347 579 q 309 505 317 548 q 301 379 301 461 q 309 254 301 297 q 331 197 316 211 q 371 182 345 182 m 254 847 l 399 1122 l 668 1122 l 488 847 l 254 847 z "},"ŏ":{"ha":742,"x_min":28,"x_max":714,"o":"m 371 -15 q 116 82 203 -15 q 28 376 28 179 q 116 677 28 578 q 371 776 203 776 q 625 676 537 776 q 714 379 714 575 q 626 83 714 181 q 371 -15 538 -15 m 371 182 q 411 197 397 182 q 433 253 426 211 q 440 376 440 295 q 432 504 440 460 q 410 564 424 548 q 371 579 395 579 q 332 564 347 579 q 309 505 317 548 q 301 379 301 461 q 309 254 301 297 q 331 197 316 211 q 371 182 345 182 m 371 856 q 197 917 262 856 q 125 1108 132 979 l 286 1108 q 371 992 292 992 q 456 1108 450 992 l 617 1108 q 545 917 610 979 q 371 856 480 856 z "},"ô":{"ha":742,"x_min":28,"x_max":714,"o":"m 371 -15 q 116 82 203 -15 q 28 376 28 179 q 116 677 28 578 q 371 776 203 776 q 625 676 537 776 q 714 379 714 575 q 626 83 714 181 q 371 -15 538 -15 m 371 182 q 411 197 397 182 q 433 253 426 211 q 440 376 440 295 q 432 504 440 460 q 410 564 424 548 q 371 579 395 579 q 332 564 347 579 q 309 505 317 548 q 301 379 301 461 q 309 254 301 297 q 331 197 316 211 q 371 182 345 182 m 617 847 l 439 847 l 371 1001 l 303 847 l 125 847 l 258 1122 l 483 1122 l 617 847 z "},"ố":{"ha":742,"x_min":28,"x_max":863,"o":"m 371 -15 q 116 82 203 -15 q 28 376 28 179 q 116 677 28 578 q 371 776 203 776 q 625 676 537 776 q 714 379 714 575 q 626 83 714 181 q 371 -15 538 -15 m 371 182 q 411 197 397 182 q 433 253 426 211 q 440 376 440 295 q 432 504 440 460 q 410 564 424 548 q 371 579 395 579 q 332 564 347 579 q 309 505 317 548 q 301 379 301 461 q 309 254 301 297 q 331 197 316 211 q 371 182 345 182 m 643 1297 l 863 1297 l 711 1110 l 531 1110 l 643 1297 m 258 1122 l 483 1122 l 617 847 l 439 847 l 371 1001 l 303 847 l 125 847 l 258 1122 z "},"ộ":{"ha":742,"x_min":28,"x_max":714,"o":"m 371 -15 q 116 82 203 -15 q 28 376 28 179 q 116 677 28 578 q 371 776 203 776 q 625 676 537 776 q 714 379 714 575 q 626 83 714 181 q 371 -15 538 -15 m 371 182 q 411 197 397 182 q 433 253 426 211 q 440 376 440 295 q 432 504 440 460 q 410 564 424 548 q 371 579 395 579 q 332 564 347 579 q 309 505 317 548 q 301 379 301 461 q 309 254 301 297 q 331 197 316 211 q 371 182 345 182 m 371 -347 q 267 -310 306 -347 q 229 -210 229 -274 q 267 -109 229 -146 q 371 -72 306 -72 q 474 -109 436 -72 q 513 -210 513 -146 q 474 -310 513 -274 q 371 -347 436 -347 m 617 847 l 439 847 l 371 1001 l 303 847 l 125 847 l 258 1122 l 483 1122 l 617 847 z "},"ồ":{"ha":742,"x_min":28,"x_max":739,"o":"m 371 -15 q 116 82 203 -15 q 28 376 28 179 q 116 677 28 578 q 371 776 203 776 q 625 676 537 776 q 714 379 714 575 q 626 83 714 181 q 371 -15 538 -15 m 371 182 q 411 197 397 182 q 433 253 426 211 q 440 376 440 295 q 432 504 440 460 q 410 564 424 548 q 371 579 395 579 q 332 564 347 579 q 309 505 317 548 q 301 379 301 461 q 309 254 301 297 q 331 197 316 211 q 371 182 345 182 m 739 1110 l 558 1110 l 407 1297 l 626 1297 l 739 1110 m 258 1122 l 483 1122 l 617 847 l 439 847 l 371 1001 l 303 847 l 125 847 l 258 1122 z "},"ổ":{"ha":742,"x_min":28,"x_max":775,"o":"m 371 -15 q 116 82 203 -15 q 28 376 28 179 q 116 677 28 578 q 371 776 203 776 q 625 676 537 776 q 714 379 714 575 q 626 83 714 181 q 371 -15 538 -15 m 371 182 q 411 197 397 182 q 433 253 426 211 q 440 376 440 295 q 432 504 440 460 q 410 564 424 548 q 371 579 395 579 q 332 564 347 579 q 309 505 317 548 q 301 379 301 461 q 309 254 301 297 q 331 197 316 211 q 371 182 345 182 m 590 1315 q 731 1295 687 1315 q 775 1228 775 1274 q 760 1193 775 1206 q 717 1164 745 1179 q 677 1139 691 1150 q 660 1110 663 1127 l 529 1110 q 542 1147 531 1132 q 568 1170 554 1162 q 604 1189 583 1179 q 626 1200 619 1196 q 632 1208 632 1203 q 616 1223 632 1219 q 567 1228 601 1228 q 444 1217 502 1228 l 444 1301 q 514 1311 471 1308 q 590 1315 556 1315 m 258 1122 l 483 1122 l 617 847 l 439 847 l 371 1001 l 303 847 l 125 847 l 258 1122 z "},"ỗ":{"ha":742,"x_min":28,"x_max":714,"o":"m 371 -15 q 116 82 203 -15 q 28 376 28 179 q 116 677 28 578 q 371 776 203 776 q 625 676 537 776 q 714 379 714 575 q 626 83 714 181 q 371 -15 538 -15 m 371 182 q 411 197 397 182 q 433 253 426 211 q 440 376 440 295 q 432 504 440 460 q 410 564 424 548 q 371 579 395 579 q 332 564 347 579 q 309 505 317 548 q 301 379 301 461 q 309 254 301 297 q 331 197 316 211 q 371 182 345 182 m 492 1248 q 566 1259 533 1248 q 632 1294 598 1270 l 632 1153 q 570 1119 603 1129 q 489 1108 537 1108 q 427 1115 456 1108 q 358 1134 398 1122 q 298 1151 322 1145 q 250 1156 275 1156 q 176 1145 208 1156 q 110 1110 144 1134 l 110 1251 q 172 1286 138 1275 q 253 1297 206 1297 q 316 1290 286 1297 q 384 1271 346 1283 q 442 1254 418 1260 q 492 1248 467 1248 m 258 1068 l 483 1068 l 617 849 l 439 849 l 371 972 l 303 849 l 125 849 l 258 1068 z "},"ȍ":{"ha":742,"x_min":10,"x_max":714,"o":"m 371 -15 q 116 82 203 -15 q 28 376 28 179 q 116 677 28 578 q 371 776 203 776 q 625 676 537 776 q 714 379 714 575 q 626 83 714 181 q 371 -15 538 -15 m 371 182 q 411 197 397 182 q 433 253 426 211 q 440 376 440 295 q 432 504 440 460 q 410 564 424 548 q 371 579 395 579 q 332 564 347 579 q 309 505 317 548 q 301 379 301 461 q 309 254 301 297 q 331 197 316 211 q 371 182 345 182 m 118 847 l 10 1122 l 226 1122 l 324 847 l 118 847 m 418 847 l 310 1122 l 526 1122 l 624 847 l 418 847 z "},"ö":{"ha":742,"x_min":28,"x_max":714,"o":"m 371 -15 q 116 82 203 -15 q 28 376 28 179 q 116 677 28 578 q 371 776 203 776 q 625 676 537 776 q 714 379 714 575 q 626 83 714 181 q 371 -15 538 -15 m 371 182 q 411 197 397 182 q 433 253 426 211 q 440 376 440 295 q 432 504 440 460 q 410 564 424 548 q 371 579 395 579 q 332 564 347 579 q 309 505 317 548 q 301 379 301 461 q 309 254 301 297 q 331 197 316 211 q 371 182 345 182 m 203 847 q 99 884 138 847 q 61 985 61 921 q 99 1085 61 1049 q 203 1122 138 1122 q 306 1085 268 1122 q 344 985 344 1049 q 306 884 344 921 q 203 847 268 847 m 539 847 q 435 884 474 847 q 397 985 397 921 q 435 1085 397 1049 q 539 1122 474 1122 q 642 1085 604 1122 q 681 985 681 1049 q 642 884 681 921 q 539 847 604 847 z "},"ȫ":{"ha":742,"x_min":28,"x_max":714,"o":"m 371 -15 q 116 82 203 -15 q 28 376 28 179 q 116 677 28 578 q 371 776 203 776 q 625 676 537 776 q 714 379 714 575 q 626 83 714 181 q 371 -15 538 -15 m 371 182 q 411 197 397 182 q 433 253 426 211 q 440 376 440 295 q 432 504 440 460 q 410 564 424 548 q 371 579 395 579 q 332 564 347 579 q 309 505 317 548 q 301 379 301 461 q 309 254 301 297 q 331 197 316 211 q 371 182 345 182 m 203 847 q 99 884 138 847 q 61 985 61 921 q 99 1085 61 1049 q 203 1122 138 1122 q 306 1085 268 1122 q 344 985 344 1049 q 306 884 344 921 q 203 847 268 847 m 539 847 q 435 884 474 847 q 397 985 397 921 q 435 1085 397 1049 q 539 1122 474 1122 q 642 1085 604 1122 q 681 985 681 1049 q 642 884 681 921 q 539 847 604 847 m 124 1189 l 124 1360 l 618 1360 l 618 1189 l 124 1189 z "},"ȱ":{"ha":742,"x_min":28,"x_max":714,"o":"m 371 -15 q 116 82 203 -15 q 28 376 28 179 q 116 677 28 578 q 371 776 203 776 q 625 676 537 776 q 714 379 714 575 q 626 83 714 181 q 371 -15 538 -15 m 371 182 q 411 197 397 182 q 433 253 426 211 q 440 376 440 295 q 432 504 440 460 q 410 564 424 548 q 371 579 395 579 q 332 564 347 579 q 309 505 317 548 q 301 379 301 461 q 309 254 301 297 q 331 197 316 211 q 371 182 345 182 m 371 840 q 248 878 288 840 q 208 985 208 915 q 248 1092 208 1054 q 371 1129 288 1129 q 493 1092 453 1129 q 533 985 533 1054 q 493 878 533 915 q 371 840 453 840 m 124 1192 l 124 1363 l 618 1363 l 618 1192 l 124 1192 z "},"ọ":{"ha":742,"x_min":28,"x_max":714,"o":"m 371 -15 q 116 82 203 -15 q 28 376 28 179 q 116 677 28 578 q 371 776 203 776 q 625 676 537 776 q 714 379 714 575 q 626 83 714 181 q 371 -15 538 -15 m 371 182 q 411 197 397 182 q 433 253 426 211 q 440 376 440 295 q 432 504 440 460 q 410 564 424 548 q 371 579 395 579 q 332 564 347 579 q 309 505 317 548 q 301 379 301 461 q 309 254 301 297 q 331 197 316 211 q 371 182 345 182 m 371 -347 q 267 -310 306 -347 q 229 -210 229 -274 q 267 -109 229 -146 q 371 -72 306 -72 q 474 -109 436 -72 q 513 -210 513 -146 q 474 -310 513 -274 q 371 -347 436 -347 z "},"ò":{"ha":742,"x_min":28,"x_max":714,"o":"m 371 -15 q 116 82 203 -15 q 28 376 28 179 q 116 677 28 578 q 371 776 203 776 q 625 676 537 776 q 714 379 714 575 q 626 83 714 181 q 371 -15 538 -15 m 371 182 q 411 197 397 182 q 433 253 426 211 q 440 376 440 295 q 432 504 440 460 q 410 564 424 548 q 371 579 395 579 q 332 564 347 579 q 309 505 317 548 q 301 379 301 461 q 309 254 301 297 q 331 197 316 211 q 371 182 345 182 m 254 847 l 74 1122 l 343 1122 l 488 847 l 254 847 z "},"ỏ":{"ha":742,"x_min":28,"x_max":714,"o":"m 371 -15 q 116 82 203 -15 q 28 376 28 179 q 116 677 28 578 q 371 776 203 776 q 625 676 537 776 q 714 379 714 575 q 626 83 714 181 q 371 -15 538 -15 m 371 182 q 411 197 397 182 q 433 253 426 211 q 440 376 440 295 q 432 504 440 460 q 410 564 424 548 q 371 579 395 579 q 332 564 347 579 q 309 505 317 548 q 301 379 301 461 q 309 254 301 297 q 331 197 316 211 q 371 182 345 182 m 306 847 q 324 913 308 889 q 366 958 340 936 q 388 980 381 972 q 394 999 394 988 q 381 1019 394 1013 q 343 1026 367 1026 q 235 1010 289 1026 l 235 1113 q 298 1126 262 1121 q 367 1131 334 1131 q 495 1103 453 1131 q 538 1018 538 1076 q 530 974 538 992 q 511 944 522 956 q 483 917 501 932 q 450 884 461 899 q 436 847 439 870 l 306 847 z "},"ơ":{"ha":742,"x_min":28,"x_max":746,"o":"m 746 858 q 632 666 746 712 q 714 379 714 567 q 626 83 714 181 q 371 -15 538 -15 q 116 82 203 -15 q 28 376 28 179 q 116 677 28 578 q 371 776 203 776 q 437 772 398 776 q 471 769 465 769 q 547 793 522 769 q 572 875 572 817 q 561 969 572 922 l 732 969 q 746 858 746 926 m 371 182 q 411 197 397 182 q 433 253 426 211 q 440 376 440 295 q 432 504 440 460 q 410 564 424 548 q 371 579 395 579 q 332 564 347 579 q 309 505 317 548 q 301 379 301 461 q 309 254 301 297 q 331 197 316 211 q 371 182 345 182 z "},"ớ":{"ha":742,"x_min":28,"x_max":746,"o":"m 610 1122 l 456 847 l 258 847 l 381 1122 l 610 1122 m 746 858 q 632 666 746 712 q 714 379 714 567 q 626 83 714 181 q 371 -15 538 -15 q 116 82 203 -15 q 28 376 28 179 q 116 677 28 578 q 371 776 203 776 q 437 772 398 776 q 471 769 465 769 q 547 793 522 769 q 572 875 572 817 q 561 969 572 922 l 732 969 q 746 858 746 926 m 371 182 q 411 197 397 182 q 433 253 426 211 q 440 376 440 295 q 432 504 440 460 q 410 564 424 548 q 371 579 395 579 q 332 564 347 579 q 309 505 317 548 q 301 379 301 461 q 309 254 301 297 q 331 197 316 211 q 371 182 345 182 z "},"ợ":{"ha":742,"x_min":28,"x_max":746,"o":"m 746 858 q 632 666 746 712 q 714 379 714 567 q 626 83 714 181 q 371 -15 538 -15 q 116 82 203 -15 q 28 376 28 179 q 116 677 28 578 q 371 776 203 776 q 437 772 398 776 q 471 769 465 769 q 547 793 522 769 q 572 875 572 817 q 561 969 572 922 l 732 969 q 746 858 746 926 m 371 182 q 411 197 397 182 q 433 253 426 211 q 440 376 440 295 q 432 504 440 460 q 410 564 424 548 q 371 579 395 579 q 332 564 347 579 q 309 505 317 548 q 301 379 301 461 q 309 254 301 297 q 331 197 316 211 q 371 182 345 182 m 371 -347 q 267 -310 306 -347 q 229 -210 229 -274 q 267 -109 229 -146 q 371 -72 306 -72 q 474 -109 436 -72 q 513 -210 513 -146 q 474 -310 513 -274 q 371 -347 436 -347 z "},"ờ":{"ha":742,"x_min":28,"x_max":746,"o":"m 746 858 q 632 666 746 712 q 714 379 714 567 q 626 83 714 181 q 371 -15 538 -15 q 116 82 203 -15 q 28 376 28 179 q 116 677 28 578 q 371 776 203 776 q 437 772 398 776 q 471 769 465 769 q 547 793 522 769 q 572 875 572 817 q 561 969 572 922 l 732 969 q 746 858 746 926 m 371 182 q 411 197 397 182 q 433 253 426 211 q 440 376 440 295 q 432 504 440 460 q 410 564 424 548 q 371 579 395 579 q 332 564 347 579 q 309 505 317 548 q 301 379 301 461 q 309 254 301 297 q 331 197 316 211 q 371 182 345 182 m 240 847 l 60 1122 l 329 1122 l 474 847 l 240 847 z "},"ở":{"ha":742,"x_min":28,"x_max":746,"o":"m 746 858 q 632 666 746 712 q 714 379 714 567 q 626 83 714 181 q 371 -15 538 -15 q 116 82 203 -15 q 28 376 28 179 q 116 677 28 578 q 371 776 203 776 q 437 772 398 776 q 471 769 465 769 q 547 793 522 769 q 572 875 572 817 q 561 969 572 922 l 732 969 q 746 858 746 926 m 371 182 q 411 197 397 182 q 433 253 426 211 q 440 376 440 295 q 432 504 440 460 q 410 564 424 548 q 371 579 395 579 q 332 564 347 579 q 309 505 317 548 q 301 379 301 461 q 309 254 301 297 q 331 197 316 211 q 371 182 345 182 m 292 847 q 310 913 294 889 q 352 958 326 936 q 374 980 367 972 q 381 999 381 988 q 367 1019 381 1013 q 329 1026 353 1026 q 221 1010 275 1026 l 221 1113 q 284 1126 248 1121 q 353 1131 320 1131 q 481 1103 439 1131 q 524 1018 524 1076 q 516 974 524 992 q 498 944 508 956 q 469 917 487 932 q 436 884 447 899 q 422 847 425 870 l 292 847 z "},"ỡ":{"ha":742,"x_min":28,"x_max":746,"o":"m 425 868 q 372 877 394 868 q 317 904 349 886 q 271 927 289 920 q 231 935 253 935 q 110 872 172 935 l 110 1046 q 233 1103 163 1103 q 287 1094 264 1103 q 342 1067 310 1085 q 388 1043 369 1051 q 428 1036 406 1036 q 549 1099 486 1036 l 549 925 q 425 868 496 868 m 746 858 q 632 666 746 712 q 714 379 714 567 q 626 83 714 181 q 371 -15 538 -15 q 116 82 203 -15 q 28 376 28 179 q 116 677 28 578 q 371 776 203 776 q 437 772 398 776 q 471 769 465 769 q 547 793 522 769 q 572 875 572 817 q 561 969 572 922 l 732 969 q 746 858 746 926 m 371 182 q 411 197 397 182 q 433 253 426 211 q 440 376 440 295 q 432 504 440 460 q 410 564 424 548 q 371 579 395 579 q 332 564 347 579 q 309 505 317 548 q 301 379 301 461 q 309 254 301 297 q 331 197 316 211 q 371 182 345 182 z "},"ő":{"ha":742,"x_min":28,"x_max":732,"o":"m 371 -15 q 116 82 203 -15 q 28 376 28 179 q 116 677 28 578 q 371 776 203 776 q 625 676 537 776 q 714 379 714 575 q 626 83 714 181 q 371 -15 538 -15 m 371 182 q 411 197 397 182 q 433 253 426 211 q 440 376 440 295 q 432 504 440 460 q 410 564 424 548 q 371 579 395 579 q 332 564 347 579 q 309 505 317 548 q 301 379 301 461 q 309 254 301 297 q 331 197 316 211 q 371 182 345 182 m 118 847 l 215 1122 l 432 1122 l 324 847 l 118 847 m 418 847 l 515 1122 l 732 1122 l 624 847 l 418 847 z "},"ȏ":{"ha":742,"x_min":28,"x_max":714,"o":"m 371 -15 q 116 82 203 -15 q 28 376 28 179 q 116 677 28 578 q 371 776 203 776 q 625 676 537 776 q 714 379 714 575 q 626 83 714 181 q 371 -15 538 -15 m 371 182 q 411 197 397 182 q 433 253 426 211 q 440 376 440 295 q 432 504 440 460 q 410 564 424 548 q 371 579 395 579 q 332 564 347 579 q 309 505 317 548 q 301 379 301 461 q 309 254 301 297 q 331 197 316 211 q 371 182 345 182 m 125 867 q 196 1058 132 997 q 371 1119 260 1119 q 544 1058 478 1119 q 617 867 610 996 l 456 867 q 371 988 450 988 q 309 960 329 988 q 286 867 289 932 l 125 867 z "},"ō":{"ha":742,"x_min":28,"x_max":714,"o":"m 371 -15 q 116 82 203 -15 q 28 376 28 179 q 116 677 28 578 q 371 776 203 776 q 625 676 537 776 q 714 379 714 575 q 626 83 714 181 q 371 -15 538 -15 m 371 182 q 411 197 397 182 q 433 253 426 211 q 440 376 440 295 q 432 504 440 460 q 410 564 424 548 q 371 579 395 579 q 332 564 347 579 q 309 505 317 548 q 301 379 301 461 q 309 254 301 297 q 331 197 316 211 q 371 182 345 182 m 124 900 l 124 1071 l 618 1071 l 618 900 l 124 900 z "},"ṓ":{"ha":742,"x_min":28,"x_max":714,"o":"m 371 -15 q 116 82 203 -15 q 28 376 28 179 q 116 677 28 578 q 371 776 203 776 q 625 676 537 776 q 714 379 714 575 q 626 83 714 181 q 371 -15 538 -15 m 371 182 q 411 197 397 182 q 433 253 426 211 q 440 376 440 295 q 432 504 440 460 q 410 564 424 548 q 371 579 395 579 q 332 564 347 579 q 309 505 317 548 q 301 379 301 461 q 309 254 301 297 q 331 197 316 211 q 371 182 345 182 m 124 900 l 124 1071 l 618 1071 l 618 900 l 124 900 m 251 1168 l 364 1388 l 642 1388 l 490 1168 l 251 1168 z "},"ṑ":{"ha":742,"x_min":28,"x_max":714,"o":"m 371 -15 q 116 82 203 -15 q 28 376 28 179 q 116 677 28 578 q 371 776 203 776 q 625 676 537 776 q 714 379 714 575 q 626 83 714 181 q 371 -15 538 -15 m 371 182 q 411 197 397 182 q 433 253 426 211 q 440 376 440 295 q 432 504 440 460 q 410 564 424 548 q 371 579 395 579 q 332 564 347 579 q 309 505 317 548 q 301 379 301 461 q 309 254 301 297 q 331 197 316 211 q 371 182 345 182 m 124 900 l 124 1071 l 618 1071 l 618 900 l 124 900 m 251 1168 l 100 1388 l 378 1388 l 490 1168 l 251 1168 z "},"ǫ":{"ha":742,"x_min":28,"x_max":714,"o":"m 371 776 q 625 676 537 776 q 714 379 714 575 q 667 142 714 231 q 525 11 621 52 q 427 -42 462 -16 q 381 -92 393 -67 q 368 -146 368 -117 q 388 -194 368 -176 q 443 -212 407 -212 q 525 -194 477 -212 l 525 -299 q 469 -314 497 -308 q 407 -319 442 -319 q 266 -278 315 -319 q 218 -165 218 -237 q 238 -80 218 -117 q 303 -11 258 -43 q 98 104 169 8 q 28 376 28 200 q 116 677 28 578 q 371 776 203 776 m 371 182 q 411 197 397 182 q 433 253 426 211 q 440 376 440 295 q 432 504 440 460 q 410 564 424 548 q 371 579 395 579 q 332 564 347 579 q 309 505 317 548 q 301 379 301 461 q 309 254 301 297 q 331 197 316 211 q 371 182 345 182 z "},"ø":{"ha":742,"x_min":28,"x_max":714,"o":"m 636 663 q 714 379 714 561 q 626 83 714 181 q 371 -15 538 -15 q 209 15 277 -15 l 171 -43 l 54 36 l 99 103 q 28 376 28 201 q 116 677 28 578 q 371 776 203 776 q 524 749 459 776 l 563 807 l 679 728 l 636 663 m 371 585 q 324 568 342 585 q 296 507 306 552 q 286 379 286 463 l 286 356 l 422 563 q 400 580 413 575 q 371 585 388 585 m 371 176 q 419 192 401 176 q 446 251 437 208 q 456 376 456 294 q 455 419 456 406 l 313 203 q 337 183 323 189 q 371 176 351 176 z "},"ǿ":{"ha":742,"x_min":28,"x_max":714,"o":"m 636 663 q 714 379 714 561 q 626 83 714 181 q 371 -15 538 -15 q 209 15 277 -15 l 171 -43 l 54 36 l 99 103 q 28 376 28 201 q 116 677 28 578 q 371 776 203 776 q 524 749 459 776 l 563 807 l 679 728 l 636 663 m 371 585 q 324 568 342 585 q 296 507 306 552 q 286 379 286 463 l 286 356 l 422 563 q 400 580 413 575 q 371 585 388 585 m 371 176 q 419 192 401 176 q 446 251 437 208 q 456 376 456 294 q 455 419 456 406 l 313 203 q 337 183 323 189 q 371 176 351 176 m 254 847 l 399 1122 l 668 1122 l 488 847 l 254 847 z "},"õ":{"ha":742,"x_min":28,"x_max":714,"o":"m 371 -15 q 116 82 203 -15 q 28 376 28 179 q 116 677 28 578 q 371 776 203 776 q 625 676 537 776 q 714 379 714 575 q 626 83 714 181 q 371 -15 538 -15 m 371 182 q 411 197 397 182 q 433 253 426 211 q 440 376 440 295 q 432 504 440 460 q 410 564 424 548 q 371 579 395 579 q 332 564 347 579 q 309 505 317 548 q 301 379 301 461 q 309 254 301 297 q 331 197 316 211 q 371 182 345 182 m 481 868 q 423 877 450 868 q 358 904 397 886 q 301 927 322 920 q 258 935 281 935 q 188 920 219 935 q 124 872 156 905 l 124 1046 q 184 1089 151 1076 q 261 1103 217 1103 q 318 1094 292 1103 q 384 1067 345 1085 q 441 1043 420 1051 q 483 1036 461 1036 q 554 1051 522 1036 q 618 1099 585 1066 l 618 925 q 557 882 590 895 q 481 868 524 868 z "},"ṍ":{"ha":742,"x_min":28,"x_max":714,"o":"m 371 -15 q 116 82 203 -15 q 28 376 28 179 q 116 677 28 578 q 371 776 203 776 q 625 676 537 776 q 714 379 714 575 q 626 83 714 181 q 371 -15 538 -15 m 371 182 q 411 197 397 182 q 433 253 426 211 q 440 376 440 295 q 432 504 440 460 q 410 564 424 548 q 371 579 395 579 q 332 564 347 579 q 309 505 317 548 q 301 379 301 461 q 309 254 301 297 q 331 197 316 211 q 371 182 345 182 m 481 868 q 423 877 450 868 q 358 904 397 886 q 301 927 322 920 q 258 935 281 935 q 188 920 219 935 q 124 872 156 905 l 124 1046 q 184 1089 151 1076 q 261 1103 217 1103 q 318 1094 292 1103 q 384 1067 345 1085 q 441 1043 420 1051 q 483 1036 461 1036 q 554 1051 522 1036 q 618 1099 585 1066 l 618 925 q 557 882 590 895 q 481 868 524 868 m 251 1168 l 364 1388 l 642 1388 l 490 1168 l 251 1168 z "},"ṏ":{"ha":742,"x_min":28,"x_max":714,"o":"m 371 -15 q 116 82 203 -15 q 28 376 28 179 q 116 677 28 578 q 371 776 203 776 q 625 676 537 776 q 714 379 714 575 q 626 83 714 181 q 371 -15 538 -15 m 371 182 q 411 197 397 182 q 433 253 426 211 q 440 376 440 295 q 432 504 440 460 q 410 564 424 548 q 371 579 395 579 q 332 564 347 579 q 309 505 317 548 q 301 379 301 461 q 309 254 301 297 q 331 197 316 211 q 371 182 345 182 m 481 868 q 423 877 450 868 q 358 904 397 886 q 301 927 322 920 q 258 935 281 935 q 188 920 219 935 q 124 872 156 905 l 124 1046 q 184 1089 151 1076 q 261 1103 217 1103 q 318 1094 292 1103 q 384 1067 345 1085 q 441 1043 420 1051 q 483 1036 461 1036 q 554 1051 522 1036 q 618 1099 585 1066 l 618 925 q 557 882 590 895 q 481 868 524 868 m 203 1136 q 99 1173 138 1136 q 61 1274 61 1210 q 99 1374 61 1338 q 203 1411 138 1411 q 306 1374 268 1411 q 344 1274 344 1338 q 306 1173 344 1210 q 203 1136 268 1136 m 539 1136 q 435 1173 474 1136 q 397 1274 397 1210 q 435 1374 397 1338 q 539 1411 474 1411 q 642 1374 604 1411 q 681 1274 681 1338 q 642 1173 681 1210 q 539 1136 604 1136 z "},"ȭ":{"ha":742,"x_min":28,"x_max":714,"o":"m 371 -15 q 116 82 203 -15 q 28 376 28 179 q 116 677 28 578 q 371 776 203 776 q 625 676 537 776 q 714 379 714 575 q 626 83 714 181 q 371 -15 538 -15 m 371 182 q 411 197 397 182 q 433 253 426 211 q 440 376 440 295 q 432 504 440 460 q 410 564 424 548 q 371 579 395 579 q 332 564 347 579 q 309 505 317 548 q 301 379 301 461 q 309 254 301 297 q 331 197 316 211 q 371 182 345 182 m 481 868 q 423 877 450 868 q 358 904 397 886 q 301 927 322 920 q 258 935 281 935 q 188 920 219 935 q 124 872 156 905 l 124 1046 q 184 1089 151 1076 q 261 1103 217 1103 q 318 1094 292 1103 q 384 1067 345 1085 q 441 1043 420 1051 q 483 1036 461 1036 q 554 1051 522 1036 q 618 1099 585 1066 l 618 925 q 557 882 590 895 q 481 868 524 868 m 124 1189 l 124 1360 l 618 1360 l 618 1189 l 124 1189 z "},"œ":{"ha":1103,"x_min":28,"x_max":1082,"o":"m 1082 301 l 715 301 q 733 239 718 261 q 781 207 749 217 q 871 197 813 197 q 1044 221 945 197 l 1044 10 q 938 -9 986 -3 q 839 -15 890 -15 q 675 5 742 -15 q 565 67 608 25 q 357 -15 489 -15 q 114 83 199 -15 q 28 376 28 181 q 114 677 28 577 q 357 776 199 776 q 579 674 501 776 q 668 750 615 723 q 790 776 721 776 q 945 731 880 776 q 1047 597 1011 686 q 1082 378 1082 508 l 1082 301 m 775 604 q 740 592 753 604 q 721 549 728 581 q 714 460 715 518 l 833 460 q 827 549 833 518 q 809 592 821 581 q 775 604 797 604 m 371 182 q 411 197 397 182 q 433 253 426 211 q 440 376 440 295 q 432 504 440 460 q 410 564 424 548 q 371 579 395 579 q 332 564 347 579 q 309 505 317 548 q 301 379 301 461 q 309 254 301 297 q 331 197 316 211 q 371 182 345 182 z "},"p":{"ha":767,"x_min":54,"x_max":739,"o":"m 54 764 l 281 764 l 299 678 l 310 678 q 371 751 331 725 q 468 776 411 776 q 603 735 542 776 q 702 607 665 693 q 739 394 739 522 q 641 90 739 194 q 333 -14 543 -14 l 322 -14 l 322 -306 l 54 -306 l 54 764 m 356 189 q 417 205 394 189 q 453 260 441 221 q 465 371 465 300 q 455 483 465 443 q 424 538 444 523 q 375 553 405 553 q 322 539 345 553 l 322 192 q 356 189 344 189 z "},"þ":{"ha":767,"x_min":54,"x_max":739,"o":"m 54 1122 l 322 1122 l 322 686 l 335 686 q 395 753 357 730 q 486 776 434 776 q 614 735 556 776 q 705 607 671 693 q 739 394 739 521 q 641 90 739 194 q 333 -14 543 -14 l 322 -14 l 322 -306 l 54 -306 l 54 1122 m 356 189 q 417 205 394 189 q 453 260 441 221 q 465 371 465 300 q 454 482 465 443 q 422 536 443 522 q 367 551 401 551 q 322 543 341 551 l 322 192 q 356 189 344 189 z "},"q":{"ha":767,"x_min":28,"x_max":713,"o":"m 444 76 l 432 76 q 371 9 410 33 q 281 -14 333 -14 q 153 28 210 -14 q 62 156 96 69 q 28 369 28 242 q 126 673 28 570 q 433 776 224 776 q 579 765 506 776 q 713 731 653 753 l 713 -306 l 444 -306 l 444 76 m 400 211 q 444 219 426 211 l 444 571 q 410 574 422 574 q 350 558 374 574 q 314 502 326 542 q 301 393 301 463 q 313 281 301 320 q 345 226 324 241 q 400 211 366 211 z "},"r":{"ha":540,"x_min":54,"x_max":533,"o":"m 54 764 l 274 764 l 294 657 l 306 657 q 371 749 327 721 q 476 776 415 776 q 533 771 503 776 l 533 522 q 458 529 504 529 q 378 515 416 529 q 322 479 341 501 l 322 0 l 54 0 l 54 764 z "},"ŕ":{"ha":540,"x_min":54,"x_max":592,"o":"m 54 764 l 274 764 l 294 657 l 306 657 q 371 749 327 721 q 476 776 415 776 q 533 771 503 776 l 533 522 q 458 529 504 529 q 378 515 416 529 q 322 479 341 501 l 322 0 l 54 0 l 54 764 m 178 847 l 322 1122 l 592 1122 l 411 847 l 178 847 z "},"ř":{"ha":540,"x_min":49,"x_max":540,"o":"m 54 764 l 274 764 l 294 657 l 306 657 q 371 749 327 721 q 476 776 415 776 q 533 771 503 776 l 533 522 q 458 529 504 529 q 378 515 416 529 q 322 479 341 501 l 322 0 l 54 0 l 54 764 m 363 1122 l 540 1122 l 407 847 l 182 847 l 49 1122 l 226 1122 l 294 968 l 363 1122 z "},"ŗ":{"ha":540,"x_min":44,"x_max":533,"o":"m 54 764 l 274 764 l 294 657 l 306 657 q 371 749 327 721 q 476 776 415 776 q 533 771 503 776 l 533 522 q 458 529 504 529 q 378 515 416 529 q 322 479 341 501 l 322 0 l 54 0 l 54 764 m 189 -72 q 333 -193 333 -72 q 316 -280 333 -233 q 272 -358 298 -326 l 103 -358 q 131 -300 121 -324 q 146 -254 142 -276 q 69 -224 94 -248 q 44 -164 44 -201 q 80 -96 44 -119 q 189 -72 115 -72 z "},"ȑ":{"ha":540,"x_min":-67,"x_max":547,"o":"m 54 764 l 274 764 l 294 657 l 306 657 q 371 749 327 721 q 476 776 415 776 q 533 771 503 776 l 533 522 q 458 529 504 529 q 378 515 416 529 q 322 479 341 501 l 322 0 l 54 0 l 54 764 m 42 847 l -67 1122 l 150 1122 l 247 847 l 42 847 m 342 847 l 233 1122 l 450 1122 l 547 847 l 342 847 z "},"ṛ":{"ha":540,"x_min":47,"x_max":533,"o":"m 54 764 l 274 764 l 294 657 l 306 657 q 371 749 327 721 q 476 776 415 776 q 533 771 503 776 l 533 522 q 458 529 504 529 q 378 515 416 529 q 322 479 341 501 l 322 0 l 54 0 l 54 764 m 189 -347 q 85 -310 124 -347 q 47 -210 47 -274 q 85 -109 47 -146 q 189 -72 124 -72 q 292 -109 254 -72 q 331 -210 331 -146 q 292 -310 331 -274 q 189 -347 254 -347 z "},"ȓ":{"ha":540,"x_min":49,"x_max":540,"o":"m 54 764 l 274 764 l 294 657 l 306 657 q 371 749 327 721 q 476 776 415 776 q 533 771 503 776 l 533 522 q 458 529 504 529 q 378 515 416 529 q 322 479 341 501 l 322 0 l 54 0 l 54 764 m 49 867 q 119 1058 56 997 q 294 1119 183 1119 q 468 1058 402 1119 q 540 867 533 996 l 379 867 q 294 988 374 988 q 233 960 253 988 q 210 867 213 932 l 49 867 z "},"ṟ":{"ha":540,"x_min":-58,"x_max":533,"o":"m 54 764 l 274 764 l 294 657 l 306 657 q 371 749 327 721 q 476 776 415 776 q 533 771 503 776 l 533 522 q 458 529 504 529 q 378 515 416 529 q 322 479 341 501 l 322 0 l 54 0 l 54 764 m -58 -292 l -58 -122 l 436 -122 l 436 -292 l -58 -292 z "},"s":{"ha":592,"x_min":18,"x_max":579,"o":"m 258 -15 q 44 18 139 -15 l 44 228 q 253 194 140 194 q 319 206 300 194 q 338 238 338 217 q 330 258 338 251 q 306 269 323 265 l 194 296 q 64 371 110 315 q 18 522 18 426 q 57 657 18 600 q 171 745 95 714 q 357 776 247 776 q 536 756 451 776 l 536 546 q 372 567 459 567 q 260 521 260 567 q 268 502 260 509 q 293 492 276 496 l 404 465 q 535 392 490 444 q 579 243 579 340 q 540 106 579 164 q 428 16 501 47 q 258 -15 356 -15 z "},"ś":{"ha":592,"x_min":18,"x_max":589,"o":"m 258 -15 q 44 18 139 -15 l 44 228 q 253 194 140 194 q 319 206 300 194 q 338 238 338 217 q 330 258 338 251 q 306 269 323 265 l 194 296 q 64 371 110 315 q 18 522 18 426 q 57 657 18 600 q 171 745 95 714 q 357 776 247 776 q 536 756 451 776 l 536 546 q 372 567 459 567 q 260 521 260 567 q 268 502 260 509 q 293 492 276 496 l 404 465 q 535 392 490 444 q 579 243 579 340 q 540 106 579 164 q 428 16 501 47 q 258 -15 356 -15 m 175 847 l 319 1122 l 589 1122 l 408 847 l 175 847 z "},"ṥ":{"ha":592,"x_min":18,"x_max":589,"o":"m 258 -15 q 44 18 139 -15 l 44 228 q 253 194 140 194 q 319 206 300 194 q 338 238 338 217 q 330 258 338 251 q 306 269 323 265 l 194 296 q 64 371 110 315 q 18 522 18 426 q 57 657 18 600 q 171 745 95 714 q 357 776 247 776 q 536 756 451 776 l 536 546 q 372 567 459 567 q 260 521 260 567 q 268 502 260 509 q 293 492 276 496 l 404 465 q 535 392 490 444 q 579 243 579 340 q 540 106 579 164 q 428 16 501 47 q 258 -15 356 -15 m 153 1094 q 57 1119 91 1094 q 22 1194 22 1144 q 57 1269 22 1244 q 153 1294 91 1294 q 249 1269 215 1294 q 283 1194 283 1244 q 249 1119 283 1144 q 153 1094 215 1094 m 175 847 l 319 1122 l 589 1122 l 408 847 l 175 847 z "},"š":{"ha":592,"x_min":18,"x_max":579,"o":"m 258 -15 q 44 18 139 -15 l 44 228 q 253 194 140 194 q 319 206 300 194 q 338 238 338 217 q 330 258 338 251 q 306 269 323 265 l 194 296 q 64 371 110 315 q 18 522 18 426 q 57 657 18 600 q 171 745 95 714 q 357 776 247 776 q 536 756 451 776 l 536 546 q 372 567 459 567 q 260 521 260 567 q 268 502 260 509 q 293 492 276 496 l 404 465 q 535 392 490 444 q 579 243 579 340 q 540 106 579 164 q 428 16 501 47 q 258 -15 356 -15 m 360 1122 l 538 1122 l 404 847 l 179 847 l 46 1122 l 224 1122 l 292 968 l 360 1122 z "}}}
